<mxfile host="Electron" agent="Mozilla/5.0 (Macintosh; Intel Mac OS X 10_15_7) AppleWebKit/537.36 (KHTML, like Gecko) draw.io/27.0.9 Chrome/134.0.6998.205 Electron/35.4.0 Safari/537.36" version="27.0.9">
  <diagram name="Seite-1" id="SAhqgb4drjFWhyu3D_Xa">
    <mxGraphModel dx="1283" dy="908" grid="1" gridSize="10" guides="1" tooltips="1" connect="1" arrows="1" fold="1" page="1" pageScale="1" pageWidth="827" pageHeight="1169" math="0" shadow="0">
      <root>
        <mxCell id="0" />
        <mxCell id="1" parent="0" />
        <mxCell id="5BD-4aEA06oa_ZhCL0HX-2" value="" style="rounded=0;whiteSpace=wrap;html=1;strokeWidth=2;" vertex="1" parent="1">
          <mxGeometry x="66" y="108" width="710" height="730" as="geometry" />
        </mxCell>
        <mxCell id="JDpEO1lSi9x2BgJFtEtq-5" value="The Audlang Vision" style="text;html=1;align=left;verticalAlign=middle;whiteSpace=wrap;rounded=0;fontStyle=1;fontSize=18;" parent="1" vertex="1">
          <mxGeometry x="73.27" y="110" width="247" height="30" as="geometry" />
        </mxCell>
        <mxCell id="v6klMF0UBrYqatLwZ3fX-11" value="" style="rounded=0;whiteSpace=wrap;html=1;strokeWidth=2;" vertex="1" parent="1">
          <mxGeometry x="80" y="370" width="680" height="150" as="geometry" />
        </mxCell>
        <mxCell id="v6klMF0UBrYqatLwZ3fX-12" value="Service Layer" style="text;html=1;align=right;verticalAlign=middle;whiteSpace=wrap;rounded=0;fontStyle=1;fontSize=16;" vertex="1" parent="1">
          <mxGeometry x="77" y="370" width="120" height="30" as="geometry" />
        </mxCell>
        <mxCell id="v6klMF0UBrYqatLwZ3fX-14" value="" style="group" vertex="1" connectable="0" parent="1">
          <mxGeometry x="358.38" y="629" width="199.23000000000002" height="120" as="geometry" />
        </mxCell>
        <mxCell id="v6klMF0UBrYqatLwZ3fX-9" value="" style="shape=cylinder3;whiteSpace=wrap;html=1;boundedLbl=1;backgroundOutline=1;size=15;strokeWidth=2;" vertex="1" parent="v6klMF0UBrYqatLwZ3fX-14">
          <mxGeometry x="11.86" width="175.5" height="80" as="geometry" />
        </mxCell>
        <mxCell id="v6klMF0UBrYqatLwZ3fX-13" value="Main Audience Store&lt;div&gt;&lt;span style=&quot;font-weight: normal;&quot;&gt;(e.g., BigQuery)&lt;/span&gt;&lt;/div&gt;" style="text;html=1;align=center;verticalAlign=middle;whiteSpace=wrap;rounded=0;fontStyle=1;fontSize=16;" vertex="1" parent="v6klMF0UBrYqatLwZ3fX-14">
          <mxGeometry y="90" width="199.23" height="30" as="geometry" />
        </mxCell>
        <mxCell id="v6klMF0UBrYqatLwZ3fX-18" value="" style="group" vertex="1" connectable="0" parent="1">
          <mxGeometry x="579.73" y="629" width="199.22999999999996" height="120" as="geometry" />
        </mxCell>
        <mxCell id="v6klMF0UBrYqatLwZ3fX-16" value="" style="shape=cylinder3;whiteSpace=wrap;html=1;boundedLbl=1;backgroundOutline=1;size=15;strokeWidth=2;" vertex="1" parent="v6klMF0UBrYqatLwZ3fX-18">
          <mxGeometry x="40.54" y="10" width="118.14" height="70" as="geometry" />
        </mxCell>
        <mxCell id="v6klMF0UBrYqatLwZ3fX-17" value="Adhoc Query Store&lt;div&gt;&lt;span style=&quot;font-weight: normal;&quot;&gt;(e.g., Apache Solr)&lt;/span&gt;&lt;/div&gt;" style="text;html=1;align=center;verticalAlign=middle;whiteSpace=wrap;rounded=0;fontStyle=1;fontSize=16;" vertex="1" parent="v6klMF0UBrYqatLwZ3fX-18">
          <mxGeometry y="90" width="199.23" height="30" as="geometry" />
        </mxCell>
        <mxCell id="v6klMF0UBrYqatLwZ3fX-29" value="" style="group" vertex="1" connectable="0" parent="1">
          <mxGeometry x="57.99999999999999" y="620" width="300" height="155" as="geometry" />
        </mxCell>
        <mxCell id="v6klMF0UBrYqatLwZ3fX-20" value="" style="shape=cylinder3;whiteSpace=wrap;html=1;boundedLbl=1;backgroundOutline=1;size=15;strokeWidth=2;" vertex="1" parent="v6klMF0UBrYqatLwZ3fX-29">
          <mxGeometry x="45.07" width="94.93" height="70" as="geometry" />
        </mxCell>
        <mxCell id="v6klMF0UBrYqatLwZ3fX-21" value="Meta Data" style="text;html=1;align=center;verticalAlign=middle;whiteSpace=wrap;rounded=0;fontStyle=1;fontSize=16;" vertex="1" parent="v6klMF0UBrYqatLwZ3fX-29">
          <mxGeometry y="70" width="159.61" height="30" as="geometry" />
        </mxCell>
        <mxCell id="v6klMF0UBrYqatLwZ3fX-24" value="" style="group" vertex="1" connectable="0" parent="v6klMF0UBrYqatLwZ3fX-29">
          <mxGeometry x="60" y="10" width="240" height="120" as="geometry" />
        </mxCell>
        <mxCell id="v6klMF0UBrYqatLwZ3fX-25" value="" style="shape=cylinder3;whiteSpace=wrap;html=1;boundedLbl=1;backgroundOutline=1;size=15;strokeWidth=2;fillColor=#f5f5f5;strokeColor=#666666;fontColor=#333333;" vertex="1" parent="v6klMF0UBrYqatLwZ3fX-24">
          <mxGeometry x="64.88" y="30" width="69.46" height="50" as="geometry" />
        </mxCell>
        <mxCell id="v6klMF0UBrYqatLwZ3fX-26" value="Audlang&lt;div&gt;Expressions&lt;/div&gt;" style="text;html=1;align=center;verticalAlign=middle;whiteSpace=wrap;rounded=0;fontStyle=1;fontSize=16;" vertex="1" parent="v6klMF0UBrYqatLwZ3fX-24">
          <mxGeometry x="-20.39" y="90" width="240" height="30" as="geometry" />
        </mxCell>
        <mxCell id="v6klMF0UBrYqatLwZ3fX-33" value="" style="group" vertex="1" connectable="0" parent="1">
          <mxGeometry x="110" y="460" width="102.72999999999999" height="50" as="geometry" />
        </mxCell>
        <mxCell id="v6klMF0UBrYqatLwZ3fX-32" value="" style="shape=module;align=left;spacingLeft=20;align=center;verticalAlign=top;whiteSpace=wrap;html=1;strokeWidth=2;" vertex="1" parent="v6klMF0UBrYqatLwZ3fX-33">
          <mxGeometry width="102.73" height="50" as="geometry" />
        </mxCell>
        <mxCell id="v6klMF0UBrYqatLwZ3fX-31" value="" style="shape=image;aspect=fixed;image=data:image/svg+xml,PD94bWwgdmVyc2lvbj0iMS4wIiBlbmNvZGluZz0iVVRGLTgiIHN0YW5kYWxvbmU9Im5vIj8+CjwhLS0gQ3JlYXRlZCB3aXRoIElua3NjYXBlIChodHRwOi8vd3d3Lmlua3NjYXBlLm9yZy8pIC0tPgoKPHN2ZwogICB3aWR0aD0iMTgwLjMzNDcybW0iCiAgIGhlaWdodD0iMTAyLjM5MDY1bW0iCiAgIHZpZXdCb3g9IjAgMCAxODAuMzM0NzIgMTAyLjM5MDY1IgogICB2ZXJzaW9uPSIxLjEiCiAgIGlkPSJzdmcxIgogICB4bWw6c3BhY2U9InByZXNlcnZlIgogICBpbmtzY2FwZTp2ZXJzaW9uPSIxLjMuMiAoMDkxZTIwZSwgMjAyMy0xMS0yNSkiCiAgIHNvZGlwb2RpOmRvY25hbWU9ImF1Z2Uuc3ZnIgogICB4bWxuczppbmtzY2FwZT0iaHR0cDovL3d3dy5pbmtzY2FwZS5vcmcvbmFtZXNwYWNlcy9pbmtzY2FwZSIKICAgeG1sbnM6c29kaXBvZGk9Imh0dHA6Ly9zb2RpcG9kaS5zb3VyY2Vmb3JnZS5uZXQvRFREL3NvZGlwb2RpLTAuZHRkIgogICB4bWxucz0iaHR0cDovL3d3dy53My5vcmcvMjAwMC9zdmciCiAgIHhtbG5zOnN2Zz0iaHR0cDovL3d3dy53My5vcmcvMjAwMC9zdmciPjxzb2RpcG9kaTpuYW1lZHZpZXcKICAgICBpZD0ibmFtZWR2aWV3MSIKICAgICBwYWdlY29sb3I9IiNmZmZmZmYiCiAgICAgYm9yZGVyY29sb3I9IiMwMDAwMDAiCiAgICAgYm9yZGVyb3BhY2l0eT0iMC4yNSIKICAgICBpbmtzY2FwZTpzaG93cGFnZXNoYWRvdz0iMiIKICAgICBpbmtzY2FwZTpwYWdlb3BhY2l0eT0iMC4wIgogICAgIGlua3NjYXBlOnBhZ2VjaGVja2VyYm9hcmQ9IjAiCiAgICAgaW5rc2NhcGU6ZGVza2NvbG9yPSIjZDFkMWQxIgogICAgIGlua3NjYXBlOmRvY3VtZW50LXVuaXRzPSJtbSIKICAgICBzaG93Z3VpZGVzPSJ0cnVlIgogICAgIGlua3NjYXBlOnpvb209IjEuMzYwMTQxNSIKICAgICBpbmtzY2FwZTpjeD0iMzE5LjgxOTY3IgogICAgIGlua3NjYXBlOmN5PSIzMTcuMjQ2NDEiCiAgICAgaW5rc2NhcGU6d2luZG93LXdpZHRoPSIyMDMyIgogICAgIGlua3NjYXBlOndpbmRvdy1oZWlnaHQ9IjEyOTAiCiAgICAgaW5rc2NhcGU6d2luZG93LXg9IjE5MTUiCiAgICAgaW5rc2NhcGU6d2luZG93LXk9IjI1IgogICAgIGlua3NjYXBlOndpbmRvdy1tYXhpbWl6ZWQ9IjAiCiAgICAgaW5rc2NhcGU6Y3VycmVudC1sYXllcj0ibGF5ZXIxIiAvPjxkZWZzCiAgICAgaWQ9ImRlZnMxIiAvPjxnCiAgICAgaW5rc2NhcGU6bGFiZWw9IkViZW5lIDEiCiAgICAgaW5rc2NhcGU6Z3JvdXBtb2RlPSJsYXllciIKICAgICBpZD0ibGF5ZXIxIgogICAgIHRyYW5zZm9ybT0idHJhbnNsYXRlKC05LjEyNjg5NzYsLTMzLjg0MjQzMikiPjxwYXRoCiAgICAgICBpZD0icGF0aDEiCiAgICAgICBzdHlsZT0iZmlsbDojNGQ0ZDRkO2ZpbGwtb3BhY2l0eToxO3N0cm9rZS13aWR0aDowLjU3Mjg3OSIKICAgICAgIGQ9Ik0gOTkuMTMyNzczLDMzLjg0MjQzMiBBIDExNC4yMDY3NiwxMzEuODI4NTEgMCAwIDAgOS4xMjY4OTc2LDg1LjAzNzc1MiAxMTQuMjA2NzYsMTMxLjgyODUxIDAgMCAwIDk5LjEzMjc3MywxMzYuMjMzMDggMTE0LjIwNjc2LDEzMS44Mjg1MSAwIDAgMCAxODkuNDYxNjIsODUuMDM3NzUyIDExNC4yMDY3NiwxMzEuODI4NTEgMCAwIDAgOTkuMTMyNzczLDMzLjg0MjQzMiBaIE0gNzMuOTQ0NjQ3LDQ5Ljc5ODU3MiBBIDQzLjUxMjgzMyw0My41MTI4MzMgMCAwIDAgNTUuNzgxNDE1LDg1LjAzNzc1MiA0My41MTI4MzMsNDMuNTEyODMzIDAgMCAwIDczLjk0NDY0NywxMjAuMjc2OTUgOTcuOTI5Nzg0LDk5Ljk4NTUxNCAwIDAgMSAyMS45Nzc3OTQsODUuMDM3NzUyIDk3LjkyOTc4NCw5OS45ODU1MTQgMCAwIDEgNzMuOTQ0NjQ3LDQ5Ljc5ODU3MiBaIG0gNTAuNzExNjMzLDAuMDEgYSA5Ny45Mjk3ODQsOTkuOTg1NTE0IDAgMCAxIDUxLjk1NDQ1LDM1LjIyOTM3IDk3LjkyOTc4NCw5OS45ODU1MTQgMCAwIDEgLTUxLjk1NDQ1LDM1LjIyOTM3OCA0My41MTI4MzMsNDMuNTEyODMzIDAgMCAwIDE4LjE1MDgzLC0zNS4yMjkzNzggNDMuNTEyODMzLDQzLjUxMjgzMyAwIDAgMCAtMTguMTUwODMsLTM1LjIyOTM3IHogbSAtMjUuMzYyMjc3LDIuMDU1NjkgQSAzMy4xNzM5MTIsMzMuMTczOTEyIDAgMCAxIDEzMi40NjgyLDg1LjAzNzk0MiAzMy4xNzM5MTIsMzMuMTczOTEyIDAgMCAxIDk5LjI5NDAwMywxMTguMjExNjMgMzMuMTczOTEyLDMzLjE3MzkxMiAwIDAgMSA2Ni4xMjAzMTksODUuMDM3OTQyIDMzLjE3MzkxMiwzMy4xNzM5MTIgMCAwIDEgOTkuMjk0MDAzLDUxLjg2NDI2MiBaIG0gMCwxNC43OTg1OCBhIDE4LjM3NTA2NSwxOC4zNzUwNjUgMCAwIDAgLTIuNzcwODksMC4zNjQ4NCA5LjA1NjQ0NDIsOS4wNTY0NDQyIDAgMCAxIDEuNDczODEsNC45NDg1MyA5LjA1NjQ0NDIsOS4wNTY0NDQyIDAgMCAxIC05LjA1NjI5LDkuMDU2MjkgOS4wNTY0NDQyLDkuMDU2NDQ0MiAwIDAgMSAtNi41MzgxMDQsLTIuODE4OTQgMTguMzc1MDY1LDE4LjM3NTA2NSAwIDAgMCAtMS40ODMxMTQsNi44MjQzOCAxOC4zNzUwNjUsMTguMzc1MDY1IDAgMCAwIDE4LjM3NDU4OCwxOC4zNzUxMDggMTguMzc1MDY1LDE4LjM3NTA2NSAwIDAgMCAxOC4zNzUxMDcsLTE4LjM3NTEwOCAxOC4zNzUwNjUsMTguMzc1MDY1IDAgMCAwIC0xOC4zNzUxMDcsLTE4LjM3NTEgeiIgLz48L2c+PC9zdmc+Cg==;" vertex="1" parent="v6klMF0UBrYqatLwZ3fX-33">
          <mxGeometry x="32.72999999999999" y="10" width="52.87" height="30" as="geometry" />
        </mxCell>
        <mxCell id="v6klMF0UBrYqatLwZ3fX-36" style="rounded=0;orthogonalLoop=1;jettySize=auto;html=1;exitX=0.75;exitY=1;exitDx=0;exitDy=0;strokeWidth=2;entryX=0.5;entryY=0;entryDx=0;entryDy=0;entryPerimeter=0;dashed=1;" edge="1" parent="1" source="v6klMF0UBrYqatLwZ3fX-32" target="v6klMF0UBrYqatLwZ3fX-25">
          <mxGeometry relative="1" as="geometry" />
        </mxCell>
        <mxCell id="v6klMF0UBrYqatLwZ3fX-40" value="" style="group" vertex="1" connectable="0" parent="1">
          <mxGeometry x="64" y="537" width="199.23000000000002" height="75" as="geometry" />
        </mxCell>
        <mxCell id="v6klMF0UBrYqatLwZ3fX-37" value="&lt;ul&gt;&lt;li&gt;&lt;span style=&quot;background-color: transparent; color: light-dark(rgb(0, 0, 0), rgb(255, 255, 255));&quot;&gt;Control&lt;/span&gt;&lt;/li&gt;&lt;li&gt;Tracking&lt;/li&gt;&lt;li&gt;Analytics&lt;/li&gt;&lt;/ul&gt;" style="text;html=1;align=left;verticalAlign=middle;whiteSpace=wrap;rounded=0;fontStyle=0;fontSize=14;" vertex="1" parent="v6klMF0UBrYqatLwZ3fX-40">
          <mxGeometry y="15" width="199.23" height="60" as="geometry" />
        </mxCell>
        <mxCell id="v6klMF0UBrYqatLwZ3fX-38" value="Attribute usage" style="text;html=1;align=left;verticalAlign=middle;whiteSpace=wrap;rounded=0;fontStyle=0;fontSize=14;" vertex="1" parent="v6klMF0UBrYqatLwZ3fX-40">
          <mxGeometry x="24" width="116" height="20" as="geometry" />
        </mxCell>
        <mxCell id="v6klMF0UBrYqatLwZ3fX-39" style="edgeStyle=orthogonalEdgeStyle;rounded=0;orthogonalLoop=1;jettySize=auto;html=1;exitX=0.5;exitY=1;exitDx=0;exitDy=0;" edge="1" parent="v6klMF0UBrYqatLwZ3fX-40" source="v6klMF0UBrYqatLwZ3fX-38" target="v6klMF0UBrYqatLwZ3fX-38">
          <mxGeometry relative="1" as="geometry" />
        </mxCell>
        <mxCell id="v6klMF0UBrYqatLwZ3fX-41" value="Audience&lt;div&gt;Projection&lt;/div&gt;" style="shape=module;align=left;spacingLeft=20;align=center;verticalAlign=top;whiteSpace=wrap;html=1;strokeWidth=2;fontSize=14;" vertex="1" parent="1">
          <mxGeometry x="629.34" y="390" width="100" height="50" as="geometry" />
        </mxCell>
        <mxCell id="v6klMF0UBrYqatLwZ3fX-42" value="Audience&lt;div&gt;Management&lt;/div&gt;" style="shape=module;align=left;spacingLeft=20;align=center;verticalAlign=top;whiteSpace=wrap;html=1;strokeWidth=2;fontSize=14;" vertex="1" parent="1">
          <mxGeometry x="290" y="390" width="116" height="50" as="geometry" />
        </mxCell>
        <mxCell id="v6klMF0UBrYqatLwZ3fX-43" value="Audience&lt;div&gt;Processing&lt;/div&gt;" style="shape=module;align=left;spacingLeft=20;align=center;verticalAlign=top;whiteSpace=wrap;html=1;strokeWidth=2;fontSize=14;" vertex="1" parent="1">
          <mxGeometry x="400" y="460" width="116" height="50" as="geometry" />
        </mxCell>
        <mxCell id="v6klMF0UBrYqatLwZ3fX-45" style="rounded=0;orthogonalLoop=1;jettySize=auto;html=1;exitX=0.5;exitY=1;exitDx=0;exitDy=0;strokeWidth=2;entryX=0.855;entryY=0;entryDx=0;entryDy=4.35;entryPerimeter=0;dashed=1;" edge="1" parent="1" source="v6klMF0UBrYqatLwZ3fX-42" target="v6klMF0UBrYqatLwZ3fX-25">
          <mxGeometry relative="1" as="geometry">
            <mxPoint x="340" y="510" as="sourcePoint" />
            <mxPoint x="371" y="660" as="targetPoint" />
            <Array as="points">
              <mxPoint x="242" y="540" />
            </Array>
          </mxGeometry>
        </mxCell>
        <mxCell id="v6klMF0UBrYqatLwZ3fX-46" value="CRUD&lt;br&gt;&lt;div&gt;audience&amp;nbsp;&lt;/div&gt;&lt;div&gt;definitions&lt;/div&gt;" style="text;html=1;align=left;verticalAlign=middle;whiteSpace=wrap;rounded=0;fontStyle=0;fontSize=14;" vertex="1" parent="1">
          <mxGeometry x="250" y="542" width="150" height="50" as="geometry" />
        </mxCell>
        <mxCell id="v6klMF0UBrYqatLwZ3fX-47" style="rounded=0;orthogonalLoop=1;jettySize=auto;html=1;exitX=0.25;exitY=1;exitDx=0;exitDy=0;strokeWidth=2;entryX=1;entryY=0;entryDx=0;entryDy=15;entryPerimeter=0;dashed=1;" edge="1" parent="1" source="v6klMF0UBrYqatLwZ3fX-43" target="v6klMF0UBrYqatLwZ3fX-25">
          <mxGeometry relative="1" as="geometry">
            <mxPoint x="430" y="590" as="sourcePoint" />
            <mxPoint x="461" y="740" as="targetPoint" />
            <Array as="points">
              <mxPoint x="430" y="600" />
            </Array>
          </mxGeometry>
        </mxCell>
        <mxCell id="v6klMF0UBrYqatLwZ3fX-48" value="Read&lt;br&gt;&lt;div&gt;audience&amp;nbsp;&lt;/div&gt;&lt;div&gt;definitions&lt;/div&gt;" style="text;html=1;align=left;verticalAlign=middle;whiteSpace=wrap;rounded=0;fontStyle=0;fontSize=14;" vertex="1" parent="1">
          <mxGeometry x="358" y="542" width="75" height="50" as="geometry" />
        </mxCell>
        <mxCell id="v6klMF0UBrYqatLwZ3fX-49" value="&quot;Materialize&quot;&lt;div&gt;audiences&lt;/div&gt;&lt;div&gt;(batch)&lt;/div&gt;" style="text;html=1;align=left;verticalAlign=middle;whiteSpace=wrap;rounded=0;fontStyle=0;fontSize=14;" vertex="1" parent="1">
          <mxGeometry x="467.61" y="542" width="90" height="50" as="geometry" />
        </mxCell>
        <mxCell id="v6klMF0UBrYqatLwZ3fX-50" style="rounded=0;orthogonalLoop=1;jettySize=auto;html=1;exitX=0.5;exitY=1;exitDx=0;exitDy=0;strokeWidth=2;entryX=0.5;entryY=0;entryDx=0;entryDy=0;entryPerimeter=0;dashed=1;" edge="1" parent="1" source="v6klMF0UBrYqatLwZ3fX-43" target="v6klMF0UBrYqatLwZ3fX-9">
          <mxGeometry relative="1" as="geometry">
            <mxPoint x="456" y="700" as="sourcePoint" />
            <mxPoint x="380" y="924" as="targetPoint" />
          </mxGeometry>
        </mxCell>
        <mxCell id="v6klMF0UBrYqatLwZ3fX-51" style="rounded=0;orthogonalLoop=1;jettySize=auto;html=1;exitX=0.5;exitY=1;exitDx=0;exitDy=0;strokeWidth=2;dashed=1;entryX=0.5;entryY=0;entryDx=0;entryDy=0;entryPerimeter=0;" edge="1" parent="1" source="v6klMF0UBrYqatLwZ3fX-41" target="v6klMF0UBrYqatLwZ3fX-16">
          <mxGeometry relative="1" as="geometry">
            <mxPoint x="670" y="630" as="sourcePoint" />
            <mxPoint x="670" y="640" as="targetPoint" />
          </mxGeometry>
        </mxCell>
        <mxCell id="v6klMF0UBrYqatLwZ3fX-53" value="Counting/&lt;div&gt;Facetting&lt;br&gt;&lt;div&gt;(real-time)&lt;/div&gt;&lt;/div&gt;" style="text;html=1;align=left;verticalAlign=middle;whiteSpace=wrap;rounded=0;fontStyle=0;fontSize=14;" vertex="1" parent="1">
          <mxGeometry x="688.96" y="542" width="90" height="50" as="geometry" />
        </mxCell>
        <mxCell id="Iunje0_k27cHRM6f_ocS-1" value="" style="shape=image;aspect=fixed;image=data:image/svg+xml,PD94bWwgdmVyc2lvbj0iMS4wIiBlbmNvZGluZz0iVVRGLTgiIHN0YW5kYWxvbmU9Im5vIj8+CjwhLS0gQ3JlYXRlZCB3aXRoIElua3NjYXBlIChodHRwOi8vd3d3Lmlua3NjYXBlLm9yZy8pIC0tPgoKPHN2ZwogICB3aWR0aD0iOTBtbSIKICAgaGVpZ2h0PSIxMDBtbSIKICAgdmlld0JveD0iMCAwIDkwIDEwMCIKICAgdmVyc2lvbj0iMS4xIgogICBpZD0ic3ZnMSIKICAgaW5rc2NhcGU6dmVyc2lvbj0iMS4zLjIgKDA5MWUyMGUsIDIwMjMtMTEtMjUpIgogICBzb2RpcG9kaTpkb2NuYW1lPSJhdWRpZW5jZS1idWlsZGVyLnN2ZyIKICAgeG1sbnM6aW5rc2NhcGU9Imh0dHA6Ly93d3cuaW5rc2NhcGUub3JnL25hbWVzcGFjZXMvaW5rc2NhcGUiCiAgIHhtbG5zOnNvZGlwb2RpPSJodHRwOi8vc29kaXBvZGkuc291cmNlZm9yZ2UubmV0L0RURC9zb2RpcG9kaS0wLmR0ZCIKICAgeG1sbnM9Imh0dHA6Ly93d3cudzMub3JnLzIwMDAvc3ZnIgogICB4bWxuczpzdmc9Imh0dHA6Ly93d3cudzMub3JnLzIwMDAvc3ZnIj4KICA8c29kaXBvZGk6bmFtZWR2aWV3CiAgICAgaWQ9Im5hbWVkdmlldzEiCiAgICAgcGFnZWNvbG9yPSIjZmZmZmZmIgogICAgIGJvcmRlcmNvbG9yPSIjMDAwMDAwIgogICAgIGJvcmRlcm9wYWNpdHk9IjAuMjUiCiAgICAgaW5rc2NhcGU6c2hvd3BhZ2VzaGFkb3c9IjIiCiAgICAgaW5rc2NhcGU6cGFnZW9wYWNpdHk9IjAuMCIKICAgICBpbmtzY2FwZTpwYWdlY2hlY2tlcmJvYXJkPSIwIgogICAgIGlua3NjYXBlOmRlc2tjb2xvcj0iI2QxZDFkMSIKICAgICBpbmtzY2FwZTpkb2N1bWVudC11bml0cz0ibW0iCiAgICAgaW5rc2NhcGU6em9vbT0iMC43OTA2Nzg3NiIKICAgICBpbmtzY2FwZTpjeD0iMTAxLjgxMTI2IgogICAgIGlua3NjYXBlOmN5PSItODYuMDAyMDU4IgogICAgIGlua3NjYXBlOndpbmRvdy13aWR0aD0iMTgyNCIKICAgICBpbmtzY2FwZTp3aW5kb3ctaGVpZ2h0PSIxMjc5IgogICAgIGlua3NjYXBlOndpbmRvdy14PSIxOTM5IgogICAgIGlua3NjYXBlOndpbmRvdy15PSIyNSIKICAgICBpbmtzY2FwZTp3aW5kb3ctbWF4aW1pemVkPSIwIgogICAgIGlua3NjYXBlOmN1cnJlbnQtbGF5ZXI9ImxheWVyMSIKICAgICBzaG93Z3VpZGVzPSJ0cnVlIiAvPgogIDxkZWZzCiAgICAgaWQ9ImRlZnMxIiAvPgogIDxnCiAgICAgaW5rc2NhcGU6bGFiZWw9IkViZW5lIDEiCiAgICAgaW5rc2NhcGU6Z3JvdXBtb2RlPSJsYXllciIKICAgICBpZD0ibGF5ZXIxIgogICAgIHRyYW5zZm9ybT0idHJhbnNsYXRlKC0yMy45NTY1MjQsLTE2MC45MTMwNCkiPgogICAgPHJlY3QKICAgICAgIHN0eWxlPSJmaWxsOiM4MDgwODA7c3Ryb2tlLXdpZHRoOjAuMjQ3MjExIgogICAgICAgaWQ9InJlY3QyIgogICAgICAgd2lkdGg9IjkwIgogICAgICAgaGVpZ2h0PSIxMDAiCiAgICAgICB4PSIyMy45NTY1MjQiCiAgICAgICB5PSIxNjAuOTEzMDQiCiAgICAgICByeT0iMi4yNjE1NTM4IiAvPgogICAgPHJlY3QKICAgICAgIHN0eWxlPSJmaWxsOiNlNmU2ZTY7c3Ryb2tlLXdpZHRoOjAuMjQ0NjAxIgogICAgICAgaWQ9InJlY3QxIgogICAgICAgd2lkdGg9Ijg5IgogICAgICAgaGVpZ2h0PSI5OSIKICAgICAgIHg9IjI0LjQ1NjUyNCIKICAgICAgIHk9IjE2MS40MTMwNCIKICAgICAgIHJ5PSIyLjIzODkzODEiIC8+CiAgICA8cGF0aAogICAgICAgaWQ9InJlY3QzIgogICAgICAgc3R5bGU9ImZpbGw6IzgwODA4MDtzdHJva2Utd2lkdGg6MC4yMzY0MDkiCiAgICAgICBkPSJtIDI2LjIxODAzOCwxNjAuOTEzMTggYyAtMS4yNTI4OTksMCAtMi4yNjEzNjEsMC45MjIyOSAtMi4yNjEzNjEsMi4wNjgwOSB2IDcuOTMxODEgaCA4OS45OTk2NzMgdiAtNy45MzE4MSBjIDAsLTEuMTQ1OCAtMS4wMDg0NiwtMi4wNjgwOSAtMi4yNjEzNiwtMi4wNjgwOSB6IG0gMjQuNjMwNTM4LDIuNDM1NTEgaCAxLjEzNTg0OCBsIDEuODg0MTIzLDUuMDM3NDEgaCAtMS4xNTAzMTggbCAtMC4zODA4NTUsLTEuMTIxODkgaCAtMS44ODM2MDYgbCAtMC4zOTUzMjUsMS4xMjE4OSBoIC0xLjExNDY2IHogbSAxMC4wODkzMDYsMCBoIDEuMDAyMDA3IHYgNS4wMzc0MSBoIC0wLjk1MjM5NyB2IC0wLjQ2NTYgaCAtMC4wMTM5NSBjIC0wLjExNzU5MiwwLjE5NzU1IC0wLjI3Mjc1MywwLjM0MTA5IC0wLjQ2NTYwNCwwLjQzMDQ2IC0wLjE4ODE0OSwwLjA4NDcgLTAuNDAyNDUsMC4xMjcxMyAtMC42NDIzMzgsMC4xMjcxMyAtMC4yNzI4MTYsMCAtMC41MTI4OSwtMC4wNTIxIC0wLjcxOTg1MywtMC4xNTU1NSAtMC4yMDY5NjMsLTAuMTA4MTggLTAuMzc4MjksLTAuMjUxNzIgLTAuNTE0Njk3LC0wLjQzMDQ2IC0wLjEzMTcwNCwtMC4xODM0NCAtMC4yMzI3ODUsLTAuMzkyNjggLTAuMzAzMzQxLC0wLjYyNzg3IC0wLjA2NTg1LC0wLjIzNTE5IC0wLjA5ODcsLTAuNDc5ODEgLTAuMDk4NywtMC43MzM4MSAwLC0wLjI0NDU5IDAuMDMyODUsLTAuNDc5NjEgMC4wOTg3LC0wLjcwNTM4IDAuMDcwNTYsLTAuMjMwNDkgMC4xNzE2MzcsLTAuNDMyNjUgMC4zMDMzNDEsLTAuNjA2NjggMC4xMzY0MDcsLTAuMTc0MDQgMC4zMDU3MiwtMC4zMTMwMyAwLjUwNzk3OSwtMC40MTY1MSAwLjIwMjI1OSwtMC4xMDgxOSAwLjQzNzI3MiwtMC4xNjIyNyAwLjcwNTM4MywtMC4xNjIyNyAwLjIxNjM3MSwwIDAuNDIxMDY0LDAuMDQ3IDAuNjEzOTE2LDAuMTQxMDggMC4xOTc1NTUsMC4wODk0IDAuMzUyNzE2LDAuMjIzMyAwLjQ2NTYwNSwwLjQwMjA0IGggMC4wMTM5NSB6IG0gMS43ODU0MjEsMCBoIDEuMDAxNDg5IHYgMC44MjUyNyBoIC0xLjAwMTQ4OSB6IG0gMjAuMTkzMDgzLDAgaCAyLjM3MDM5OCBjIDAuMjM5ODg4LDAgMC40NTg3MzUsMC4wMjA3IDAuNjU2MjkxLDAuMDYzIDAuMTk3NTU1LDAuMDQyMyAwLjM2Njg2OCwwLjExMzA5IDAuNTA3OTc5LDAuMjExODcgMC4xNDExMTEsMC4wOTQxIDAuMjQ5MjY5LDAuMjIwOTMgMC4zMjQ1MjgsMC4zODA4NiAwLjA3OTk2LDAuMTU5OTMgMC4xMTk4ODksMC4zNTc1NCAwLjExOTg4OSwwLjU5MjczIDAsMC4yNTQgLTAuMDU4NjIsMC40NjU3NyAtMC4xNzYyMTYsMC42MzUxIC0wLjExMjg5LDAuMTY5MzMgLTAuMjgyMjAyLDAuMzA4MzMgLTAuNTA3OTgsMC40MTY1MSAwLjMxMDQ0NSwwLjA4OTQgMC41NDA5MTIsMC4yNDY1NSAwLjY5MTQzMSwwLjQ3MjMzIDAuMTU1MjIyLDAuMjIxMDcgMC4yMzI1NDQsMC40ODk0NSAwLjIzMjU0NCwwLjgwNDYgMCwwLjI1NCAtMC4wNDkwMiwwLjQ3NDg1IC0wLjE0Nzc5NSwwLjY2MzAxIC0wLjA5ODc4LDAuMTgzNDQgLTAuMjMzMjI2LDAuMzM0MDYgLTAuNDAyNTU5LDAuNDUxNjUgLTAuMTY0NjMsMC4xMTc1NyAtMC4zNTUxNzIsMC4yMDQ1IC0wLjU3MTU0MiwwLjI2MDk2IC0wLjIxMTY2NywwLjA1NjUgLTAuNDI5OTk2LDAuMDg0NyAtMC42NTU3NzMsMC4wODQ3IGggLTIuNDQxMTk1IHogbSA5LjA3MzM0OCwwIGggMS4wMDIwMDYgdiAwLjgyNTI3IGggLTEuMDAyMDA2IHogbSAxLjgyMDA0NCwwIGggMS4wMDIwMDYgdiA1LjAzNzQxIGggLTEuMDAyMDA2IHogbSA0LjM0NjUwNSwwIGggMS4wMDE0ODkgdiA1LjAzNzQxIGggLTAuOTUyMzk3IHYgLTAuNDY1NiBoIC0wLjAxMzk1IGMgLTAuMTE3NTk0LDAuMTk3NTUgLTAuMjcyNzUxLDAuMzQxMDkgLTAuNDY1NjA1LDAuNDMwNDYgLTAuMTg4MTQ5LDAuMDg0NyAtMC40MDI0NSwwLjEyNzEzIC0wLjY0MjMzOCwwLjEyNzEzIC0wLjI3MjgxNSwwIC0wLjUxMjM3NCwtMC4wNTIxIC0wLjcxOTMzNiwtMC4xNTU1NSAtMC4yMDY5NjMsLTAuMTA4MTggLTAuMzc4ODA3LC0wLjI1MTcyIC0wLjUxNTIxNCwtMC40MzA0NiAtMC4xMzE3MDQsLTAuMTgzNDQgLTAuMjMyNzg2LC0wLjM5MjY4IC0wLjMwMzM0MSwtMC42Mjc4NyAtMC4wNjU4NSwtMC4yMzUxOSAtMC4wOTg3LC0wLjQ3OTgxIC0wLjA5ODcsLTAuNzMzODEgMCwtMC4yNDQ1OSAwLjAzMjg1LC0wLjQ3OTYxIDAuMDk4NywtMC43MDUzOCAwLjA3MDU1LC0wLjIzMDQ5IDAuMTcxNjM3LC0wLjQzMjY1IDAuMzAzMzQxLC0wLjYwNjY4IDAuMTM2NDA3LC0wLjE3NDA0IDAuMzA1NzIsLTAuMzEzMDMgMC41MDc5NzksLTAuNDE2NTEgMC4yMDIyNTksLTAuMTA4MTkgMC40MzcyNzIsLTAuMTYyMjcgMC43MDUzODMsLTAuMTYyMjcgMC4yMTYzNzEsMCAwLjQyMTA2NSwwLjA0NyAwLjYxMzkxNiwwLjE0MTA4IDAuMTk3NTU0LDAuMDg5NCAwLjM1MjcxMiwwLjIyMzMgMC40NjU2MDUsMC40MDIwNCBoIDAuMDE0NDcgeiBtIC0xNC4xMzI0NzEsMC44NjA0MSB2IDEuMTc4MjIgaCAxLjEyMTg5NSBjIDAuMTk3NTU1LDAgMC4zNTk3OTIsLTAuMDQ3IDAuNDg2NzkyLC0wLjE0MTA4IDAuMTI3LC0wLjA5NDEgMC4xOTA2ODYsLTAuMjQ2NyAwLjE5MDY4NiwtMC40NTgzNyAwLC0wLjExNzU5IC0wLjAyMTIzLC0wLjIxNDEyIC0wLjA2MzU2LC0wLjI4OTM4IC0wLjA0MjMzLC0wLjA3NTMgLTAuMDk4OTQsLTAuMTMzODkgLTAuMTY5NDk4LC0wLjE3NjIyIC0wLjA3MDU2LC0wLjA0MjMgLTAuMTUyOTM5LC0wLjA3MDYgLTAuMjQ3MDE0LC0wLjA4NDggLTAuMDg5MzcsLTAuMDE4OCAtMC4xODMzNzUsLTAuMDI4NCAtMC4yODIxNTMsLTAuMDI4NCB6IG0gLTMyLjYyNDg4MiwwLjM4MTM3IC0wLjY1NjI5MSwxLjg0ODQ3IGggMS4zMDUzNDcgbCAtMC42MzUxMDQsLTEuODQ4NDcgeiBtIDE0LjgwMjcxNCwwLjA0OTEgYyAwLjMxMDQ0NCwwIDAuNTgwODM5LDAuMDYxMSAwLjgxMTMyLDAuMTgzNDUgMC4yMzA0ODIsMC4xMTc2IDAuNDE4NDkyLDAuMjc3ODMgMC41NjQzMDcsMC40ODAwOCAwLjE1MDUxNywwLjIwMjI2IDAuMjU4Njc0LDAuNDMyNzIgMC4zMjQ1MjgsMC42OTE0MyAwLjA2NTg1LDAuMjU4NzEgMC4wODk2MSwwLjUyOTEgMC4wNzA4LDAuODExMzIgaCAtMi42MzE4OCBjIDAuMDE0MTEsMC4zMjQ1NSAwLjA5NjQ5LDAuNTU5NTcgMC4yNDcwMTMsMC43MDUzOCAwLjE1MDUxOCwwLjE0NTgyIDAuMzY2ODMzLDAuMjE4NTkgMC42NDkwNTYsMC4yMTg1OSAwLjIwMjI1OSwwIDAuMzc2MTE3LC0wLjA0OSAwLjUyMTkzMiwtMC4xNDc3OSAwLjE0NTgxNCwtMC4xMDM0OCAwLjIzNTI3NCwtMC4yMTE2NCAwLjI2ODIwMSwtMC4zMjQ1MyBoIDAuODgyMTE2IGMgLTAuMTQxMTEsMC40Mzc0NSAtMC4zNTc0MjYsMC43NDk3OCAtMC42NDkwNTYsMC45Mzc5MyAtMC4yOTE2MjksMC4xODgxNSAtMC42NDQ0MDgsMC4yODI2NyAtMS4wNTgzMzMsMC4yODI2NyAtMC4yODY5MjYsMCAtMC41NDU2OTgsLTAuMDQ1IC0wLjc3NjE4LC0wLjEzNDM2IC0wLjIzMDQ4MSwtMC4wOTQxIC0wLjQyNTU2OCwtMC4yMjU0OCAtMC41ODU0OTQsLTAuMzk0ODEgLTAuMTU5OTI2LC0wLjE2OTMzIC0wLjI4NDc2NywtMC4zNzIwMSAtMC4zNzQxMzcsLTAuNjA3MiAtMC4wODQ2NywtMC4yMzUxOCAtMC4xMjcxMjUsLTAuNDkzNDQgLTAuMTI3MTI1LC0wLjc3NTY2IDAsLTAuMjcyODEgMC4wNDQ5OSwtMC41MjcwNCAwLjEzNDM1OSwtMC43NjIyMyAwLjA4OTM3LC0wLjIzNTE4IDAuMjE2MjI2LC0wLjQzNzM1IDAuMzgwODU2LC0wLjYwNjY4IDAuMTY0NjI5LC0wLjE3NDAzIDAuMzU5NzE2LC0wLjMxMDUgMC41ODU0OTQsLTAuNDA5MjggMC4yMzA0ODEsLTAuMDk4OCAwLjQ4NDcwOCwtMC4xNDgzMSAwLjc2MjIyNywtMC4xNDgzMSB6IG0gNC40NTE5MjUsMCBjIDAuMjY4MTExLDAgMC40ODY5NTYsMC4wMzc5IDAuNjU2MjksMC4xMTMxNyAwLjE3NDAzNywwLjA3MDYgMC4zMTA1LDAuMTcxNjQgMC40MDkyNzgsMC4zMDMzNSAwLjA5ODc4LDAuMTI2OTkgMC4xNjcwMTIsMC4yODQxNyAwLjIwNDYzOCwwLjQ3MjMyIDAuMDQyMzMsMC4xODM0NCAwLjA2MzU2LDAuMzg4MTMgMC4wNjM1NiwwLjYxMzkxIHYgMi4yNDM3OSBoIC0xLjAwMjAwNiB2IC0yLjA2MDM0IGMgMCwtMC4zMDEwMyAtMC4wNDcsLTAuNTI0NDMgLTAuMTQxMDc2LC0wLjY3MDI0IC0wLjA5NDA4LC0wLjE1MDUyIC0wLjI2MTM3MywtMC4yMjU4MiAtMC41MDEyNjIsLTAuMjI1ODIgLTAuMjcyODE1LDAgLTAuNDcwNDMzLDAuMDgyNCAtMC41OTI3MjksMC4yNDcwMSAtMC4xMjIyOTYsMC4xNTk5MyAtMC4xODM0NTEsMC40MjU3NyAtMC4xODM0NTEsMC43OTczNyB2IDEuOTEyMDIgaCAtMS4wMDE0ODkgdiAtMy42NDc4NCBoIDAuOTUyMzk3IHYgMC41MDc5OCBoIDAuMDIxMTkgYyAwLjEyNywtMC4yMTE2NiAwLjI5MTc2NywtMC4zNjQyOSAwLjQ5NDAyNywtMC40NTgzNyAwLjIwMjI1OSwtMC4wOTg4IDAuNDA4OTY3LC0wLjE0ODMxIDAuNjIwNjMzLC0wLjE0ODMxIHogbSAzLjg0NTI0MywwIGMgMC4yMTYzNywwIDAuNDIzNTk1LDAuMDI4MyAwLjYyMTE1MSwwLjA4NDggMC4yMDIyNTksMC4wNTY0IDAuMzgwNjYyLDAuMTQzMzggMC41MzU4ODQsMC4yNjA5NyAwLjE1OTkyNiwwLjExMjg5IDAuMjg5MzEyLDAuMjU2NDMgMC4zODgwOSwwLjQzMDQ2IDAuMDk4NzgsMC4xNjkzNCAwLjE1NTM4NiwwLjM3MTUgMC4xNjk0OTksMC42MDY2OCBoIC0wLjk4MDgxOSBjIC0wLjA2NTg1LC0wLjQxODYyIC0wLjMxMzAwMywtMC42Mjc4NiAtMC43NDEwNCwtMC42Mjc4NiAtMC4xNTk5MjYsMCAtMC4yOTM4NTgsMC4wMzc0IC0wLjQwMjA0MiwwLjExMjY1IC0wLjEwODE4NiwwLjA3MDYgLTAuMTk3NjQ1LDAuMTY1MDggLTAuMjY4MjAxLDAuMjgyNjcgLTAuMDY1ODUsMC4xMTI4OSAtMC4xMTI4NTcsMC4yMzk3NCAtMC4xNDEwNzcsMC4zODA4NiAtMC4wMjgyMiwwLjEzNjQgLTAuMDQyMzcsMC4yNzI4NyAtMC4wNDIzNywwLjQwOTI3IDAsMC4xMzE3MSAwLjAxNDE2LDAuMjY1NjQgMC4wNDIzNywwLjQwMjA1IDAuMDI4MjIsMC4xMzY0IDAuMDczMjEsMC4yNjEyNSAwLjEzNDM1OSwwLjM3NDEzIDAuMDY1ODUsMC4xMDgxOSAwLjE1Mjc4MSwwLjE5NzEzIDAuMjYwOTY2LDAuMjY3NjkgMC4xMDgxODUsMC4wNzA2IDAuMjM5NTg1LDAuMTA1OTMgMC4zOTQ4MDgsMC4xMDU5MyAwLjIzOTg4OCwwIDAuNDIzMzU0LC0wLjA2NTcgMC41NTAzNTQsLTAuMTk3NCAwLjEzMTcwMywtMC4xMzY0MSAwLjIxNDA4NywtMC4zMTczNCAwLjI0NzAxMywtMC41NDMxMiBoIDAuOTY2ODY2IGMgLTAuMDY1ODUsMC40ODQ0OSAtMC4yNTM4NjIsMC44NTM0MyAtMC41NjQzMDYsMS4xMDc0MyAtMC4zMTA0NDUsMC4yNTQgLTAuNzA4MjExLDAuMzgxMzcgLTEuMTkyNjkyLDAuMzgxMzcgLTAuMjcyODE1LDAgLTAuNTI0NTExLC0wLjA0NSAtMC43NTQ5OTMsLTAuMTM0MzYgLTAuMjI1Nzc3LC0wLjA5NDEgLTAuNDE4MzMzLC0wLjIyMzQ2IC0wLjU3ODI1OSwtMC4zODgwOSAtMC4xNTk5MjYsLTAuMTY0NjMgLTAuMjg0NzY4LC0wLjM1OTcxIC0wLjM3NDEzOCwtMC41ODU0OSAtMC4wODkzNywtMC4yMzA0OCAtMC4xMzM4NDIsLTAuNDgyMTggLTAuMTMzODQyLC0wLjc1NSAwLC0wLjI4MjIyIDAuMDM5OTMsLTAuNTQzMDEgMC4xMTk4OSwtMC43ODI4OSAwLjA4NDY3LC0wLjI0NDYgMC4yMDY5NzYsLTAuNDU0MzYgMC4zNjY5MDIsLTAuNjI4MzkgMC4xNTk5MjYsLTAuMTc4NzQgMC4zNTUwMTMsLTAuMzE3MjIgMC41ODU0OTQsLTAuNDE2IDAuMjMwNDgyLC0wLjA5ODggMC40OTM4LC0wLjE0ODMxIDAuNzkwMTMzLC0wLjE0ODMxIHogbSAzLjk4NjMyLDAgYyAwLjMxMDQ0NCwwIDAuNTgwODM5LDAuMDYxMSAwLjgxMTMyLDAuMTgzNDUgMC4yMzA0ODIsMC4xMTc2IDAuNDE5MDA5LDAuMjc3ODMgMC41NjQ4MjMsMC40ODAwOCAwLjE1MDUxNywwLjIwMjI2IDAuMjU4Njc1LDAuNDMyNzIgMC4zMjQ1MjgsMC42OTE0MyAwLjA2NTg1LDAuMjU4NzEgMC4wODkwOSwwLjUyOTEgMC4wNzAyOCwwLjgxMTMyIGggLTIuNjMxMzY0IGMgMC4wMTQxMSwwLjMyNDU1IDAuMDk1OTgsMC41NTk1NyAwLjI0NjQ5NywwLjcwNTM4IDAuMTUwNTE4LDAuMTQ1ODIgMC4zNjczNTEsMC4yMTg1OSAwLjY0OTU3MywwLjIxODU5IDAuMjAyMjU5LDAgMC4zNzYxMTcsLTAuMDQ5IDAuNTIxOTMyLC0wLjE0Nzc5IDAuMTQ1ODEzLC0wLjEwMzQ4IDAuMjM1Mjc0LC0wLjIxMTY0IDAuMjY4MiwtMC4zMjQ1MyBoIDAuODgxNiBjIC0wLjE0MTExMSwwLjQzNzQ1IC0wLjM1NzQyNywwLjc0OTc4IC0wLjY0OTA1NiwwLjkzNzkzIC0wLjI5MTYzLDAuMTg4MTUgLTAuNjQ0NDA4LDAuMjgyNjcgLTEuMDU4MzMzLDAuMjgyNjcgLTAuMjg2OTI2LDAgLTAuNTQ1Njk4LC0wLjA0NSAtMC43NzYxOCwtMC4xMzQzNiAtMC4yMzA0ODEsLTAuMDk0MSAtMC40MjU1NjgsLTAuMjI1NDggLTAuNTg1NDk0LC0wLjM5NDgxIC0wLjE1OTkyNiwtMC4xNjkzMyAtMC4yODQyNSwtMC4zNzIwMSAtMC4zNzM2MjEsLTAuNjA3MiAtMC4wODQ2NywtMC4yMzUxOCAtMC4xMjcxMjQsLTAuNDkzNDQgLTAuMTI3MTI0LC0wLjc3NTY2IDAsLTAuMjcyODEgMC4wNDQ0NywtMC41MjcwNCAwLjEzMzg0MiwtMC43NjIyMyAwLjA4OTM3LC0wLjIzNTE4IDAuMjE2MjI2LC0wLjQzNzM1IDAuMzgwODU1LC0wLjYwNjY4IDAuMTY0NjMsLTAuMTc0MDMgMC4zNjAyMzMsLTAuMzEwNSAwLjU4NjAxMSwtMC40MDkyOCAwLjIzMDQ4MiwtMC4wOTg4IDAuNDg0MTkyLC0wLjE0ODMxIDAuNzYxNzExLC0wLjE0ODMxIHogbSAyMy4xMTM4MzgsMCBjIDAuMzEwNDQsMCAwLjU4MTM1LDAuMDYxMSAwLjgxMTgzLDAuMTgzNDUgMC4yMzA0OCwwLjExNzYgMC40MTg0OSwwLjI3NzgzIDAuNTY0MzEsMC40ODAwOCAwLjE1MDUsMC4yMDIyNiAwLjI1ODY2LDAuNDMyNzIgMC4zMjQ1MywwLjY5MTQzIDAuMDY1OSwwLjI1ODcxIDAuMDg5NiwwLjUyOTEgMC4wNzA4LDAuODExMzIgaCAtMi42MzE4OCBjIDAuMDE0MSwwLjMyNDU1IDAuMDk2NSwwLjU1OTU3IDAuMjQ3MDIsMC43MDUzOCAwLjE1MDUyLDAuMTQ1ODIgMC4zNjY4MywwLjIxODU5IDAuNjQ5MDUsMC4yMTg1OSAwLjIwMjI2LDAgMC4zNzYxMiwtMC4wNDkgMC41MjE5NCwtMC4xNDc3OSAwLjE0NTgsLTAuMTAzNDggMC4yMzUyNiwtMC4yMTE2NCAwLjI2ODIsLTAuMzI0NTMgaCAwLjg4MjExIGMgLTAuMTQxMTEsMC40Mzc0NSAtMC4zNTc5NCwwLjc0OTc4IC0wLjY0OTU3LDAuOTM3OTMgLTAuMjkxNjMsMC4xODgxNSAtMC42NDQ0MSwwLjI4MjY3IC0xLjA1ODMzLDAuMjgyNjcgLTAuMjg2OTMsMCAtMC41NDUxOSwtMC4wNDUgLTAuNzc1NjcsLTAuMTM0MzYgLTAuMjMwNDgsLTAuMDk0MSAtMC40MjYwOCwtMC4yMjU0OCAtMC41ODYwMSwtMC4zOTQ4MSAtMC4xNTk5MiwtMC4xNjkzMyAtMC4yODQyNDUsLTAuMzcyMDEgLTAuMzczNjE4LC0wLjYwNzIgLTAuMDg0NjcsLTAuMjM1MTggLTAuMTI3MTI0LC0wLjQ5MzQ0IC0wLjEyNzEyNCwtMC43NzU2NiAwLC0wLjI3MjgxIDAuMDQ0NDcsLTAuNTI3MDQgMC4xMzM4NDIsLTAuNzYyMjMgMC4wODkzNywtMC4yMzUxOCAwLjIxNjc1LC0wLjQzNzM1IDAuMzgxMzcsLTAuNjA2NjggMC4xNjQ2NCwtMC4xNzQwMyAwLjM1OTcyLC0wLjMxMDUgMC41ODU1LC0wLjQwOTI4IDAuMjMwNDgsLTAuMDk4OCAwLjQ4NDE5LC0wLjE0ODMxIDAuNzYxNzEsLTAuMTQ4MzEgeiBtIDQuNDk0ODEsMCBjIDAuMDY1OSwwIDAuMTM4NjMsMC4wMTIxIDAuMjE4NTksMC4wMzU3IHYgMC45MzEyMSBjIC0wLjA0NywtMC4wMDkgLTAuMTAzNjMsLTAuMDE2NSAtMC4xNjk0OSwtMC4wMjEyIC0wLjA2NTksLTAuMDA5IC0wLjEyOTA0LC0wLjAxNDUgLTAuMTkwMTcsLTAuMDE0NSAtMC4xODM0NSwwIC0wLjMzODYxLDAuMDMwOCAtMC40NjU2MSwwLjA5MiAtMC4xMjcsMC4wNjExIC0wLjIzMDYxLDAuMTQ1NTQgLTAuMzEwNTcsMC4yNTM3MyAtMC4wNzUyLDAuMTAzNDggLTAuMTI5MzMsMC4yMjU3OSAtMC4xNjIyNywwLjM2NjkgLTAuMDMyOSwwLjE0MTExIC0wLjA0OTYsMC4yOTQyNSAtMC4wNDk2LDAuNDU4ODkgdiAxLjY0MzgyIGggLTEuMDAyIHYgLTMuNjQ3ODQgaCAwLjk1MjkxIHYgMC42Nzc0OCBoIDAuMDEzOSBjIDAuMDQ3LC0wLjExMjg4IDAuMTEwNzMsLTAuMjE2NSAwLjE5MDY5LC0wLjMxMDU3IDAuMDgsLTAuMDk4OCAwLjE3MTQzLC0wLjE4MDYzIDAuMjc0OTIsLTAuMjQ2NSAwLjEwMzQ4LC0wLjA3MDYgMC4yMTQxNywtMC4xMjQ2NiAwLjMzMTc2LC0wLjE2MjI2IDAuMTE3NTksLTAuMDM3NyAwLjIzOTksLTAuMDU2OCAwLjM2NjksLTAuMDU2OCB6IG0gLTUxLjg5Mzk4OCwwLjA5ODcgaCAxLjAwMjAwNyB2IDIuMDYwMzQgYyAwLDAuMzAxMDQgMC4wNDcsMC41MjY5NiAwLjE0MTA3NiwwLjY3NzQ4IDAuMDk0MDcsMC4xNDU4MiAwLjI2MTM3MywwLjIxODU5IDAuNTAxMjYyLDAuMjE4NTkgMC4yNzI4MTUsMCAwLjQ3MDQzMiwtMC4wNzk4IDAuNTkyNzI4LC0wLjIzOTc3IDAuMTIyMjk2LC0wLjE2NDYzIDAuMTgzNDUyLC0wLjQzMzAxIDAuMTgzNDUyLC0wLjgwNDYxIHYgLTEuOTEyMDMgaCAxLjAwMTQ4OSB2IDMuNjQ3ODQgaCAtMC45NTIzOTcgdiAtMC41MDc5OCBoIC0wLjAyMTE5IGMgLTAuMTI3LDAuMjExNjcgLTAuMjkxNzY4LDAuMzY0ODEgLTAuNDk0MDI3LDAuNDU4ODkgLTAuMjAyMjU5LDAuMDk0MSAtMC40MDg5NjcsMC4xNDEwOCAtMC42MjA2MzQsMC4xNDEwOCAtMC4yNjgxMTEsMCAtMC40ODg5NzEsLTAuMDM1NCAtMC42NjMwMDgsLTAuMTA1OTQgLTAuMTY5MzM0LC0wLjA3MDUgLTAuMzAzNzgyLC0wLjE2OTYyIC0wLjQwMjU2LC0wLjI5NjYyIC0wLjA5ODc4LC0wLjEzMTcxIC0wLjE2OTAyMywtMC4yODg4OCAtMC4yMTEzNTYsLTAuNDcyMzIgLTAuMDM3NjMsLTAuMTg4MTYgLTAuMDU2ODQsLTAuMzk1MzggLTAuMDU2ODQsLTAuNjIxMTUgeiBtIDguNTIzNTExLDAgaCAxLjAwMTQ4OSB2IDMuNjQ3ODQgaCAtMS4wMDE0ODkgeiBtIDI1LjA1NDI4NSwwIGggMS4wMDE0ODkgdiAyLjA2MDM0IGMgMCwwLjMwMTA0IDAuMDQ3NTIsMC41MjY5NiAwLjE0MTU5NCwwLjY3NzQ4IDAuMDk0MDcsMC4xNDU4MiAwLjI2MDg1NiwwLjIxODU5IDAuNTAwNzQ0LDAuMjE4NTkgMC4yNzI4MTUsMCAwLjQ3MDQzMywtMC4wNzk4IDAuNTkyNzI5LC0wLjIzOTc3IDAuMTIyMjk2LC0wLjE2NDYzIDAuMTgzNDUxLC0wLjQzMzAxIDAuMTgzNDUxLC0wLjgwNDYxIHYgLTEuOTEyMDMgaCAxLjAwMjAwNiB2IDMuNjQ3ODQgaCAtMC45NTI5MTMgdiAtMC41MDc5OCBIIDkwLjIyNTUgYyAtMC4xMjY5OTksMC4yMTE2NyAtMC4yOTEyNSwwLjM2NDgxIC0wLjQ5MzUwOSwwLjQ1ODg5IC0wLjIwMjI2LDAuMDk0MSAtMC40MDk0ODQsMC4xNDEwOCAtMC42MjExNTEsMC4xNDEwOCAtMC4yNjgxMTEsMCAtMC40ODg5NzIsLTAuMDM1NCAtMC42NjMwMDksLTAuMTA1OTQgLTAuMTY5MzMzLC0wLjA3MDUgLTAuMzAzMjY1LC0wLjE2OTYyIC0wLjQwMjA0MiwtMC4yOTY2MiAtMC4wOTg3OCwtMC4xMzE3MSAtMC4xNjk1NDEsLTAuMjg4ODggLTAuMjExODc0LC0wLjQ3MjMyIC0wLjAzNzYzLC0wLjE4ODE2IC0wLjA1NjMzLC0wLjM5NTM4IC0wLjA1NjMzLC0wLjYyMTE1IHogbSA0LjIxMjE0NiwwIGggMS4wMDIwMDYgdiAzLjY0Nzg0IGggLTEuMDAyMDA2IHogbSAtMzEuODc3MTI0LDAuNjU2MyBjIC0wLjE2NDYyOSwwIC0wLjMwMzYyMywwLjAzMjggLTAuNDE2NTEyLDAuMDk4NyAtMC4xMTI4ODksMC4wNjU5IC0wLjIwNDM2MywwLjE1Mjc4IC0wLjI3NDkxOSwwLjI2MDk2IC0wLjA2NTg1LDAuMTA4MTkgLTAuMTE1Mzg1LDAuMjMzMDMgLTAuMTQ4MzExLDAuMzc0MTQgLTAuMDI4MjIsMC4xMzY0MSAtMC4wNDIzNywwLjI3OTk1IC0wLjA0MjM3LDAuNDMwNDcgMCwwLjE0MTExIDAuMDE2NjgsMC4yODIxMSAwLjA0OTYxLDAuNDIzMjMgMC4wMzI5MywwLjE0MTEgMC4wODQ0NywwLjI2Nzk2IDAuMTU1MDI5LDAuMzgwODUgMC4wNzUyNiwwLjEwODE5IDAuMTY3MjUsMC4xOTc2NSAwLjI3NTQzNSwwLjI2ODIgMC4xMTI4ODksMC4wNjU5IDAuMjQ2ODIxLDAuMDk4NyAwLjQwMjA0MywwLjA5ODcgMC4xNjQ2MywwIDAuMzAxMDkyLC0wLjAzMjggMC40MDkyNzcsLTAuMDk4NyAwLjExMjg4NywtMC4wNjU5IDAuMjAyMzQ4LC0wLjE1Mjc4IDAuMjY4MjAxLC0wLjI2MDk2IDAuMDY1ODUsLTAuMTEyODkgMC4xMTI4NTcsLTAuMjM5NzUgMC4xNDEwNzcsLTAuMzgwODYgMC4wMjgyMiwtMC4xNDExMSAwLjA0MjM3LC0wLjI4NzE4IDAuMDQyMzcsLTAuNDM3NyAwLC0wLjE1MDUyIC0wLjAxNDE1LC0wLjI5NDA2IC0wLjA0MjM3LC0wLjQzMDQ2IC0wLjAyODIyLC0wLjE0MTEyIC0wLjA3Nzc2LC0wLjI2MzQzIC0wLjE0ODMxMiwtMC4zNjY5MSAtMC4wNjU4NSwtMC4xMDgxNyAtMC4xNTI3ODEsLTAuMTk1MSAtMC4yNjA5NjYsLTAuMjYwOTYgLTAuMTA4MTg1LC0wLjA2NTkgLTAuMjQ0NjQ3LC0wLjA5ODcgLTAuNDA5Mjc3LC0wLjA5ODcgeiBtIDYuMDYwNjEyLDAgYyAtMC4xNTk5MjYsMCAtMC4yOTM4NTgsMC4wMjgzIC0wLjQwMjA0MywwLjA4NDcgLTAuMTAzNDgsMC4wNTE3IC0wLjE4ODM5NSwwLjExNzQzIC0wLjI1NDI0OCwwLjE5NzQgLTAuMDYxMTUsMC4wOCAtMC4xMDU2MjIsMC4xNjQ4NyAtMC4xMzM4NDIsMC4yNTQyNSAtMC4wMjM0OSwwLjA4OTQgLTAuMDM3NjQsMC4xNjkyMiAtMC4wNDIzNywwLjIzOTc4IGggMS42Mjk4NzQgYyAtMC4wNDcwNCwtMC4yNTQgLTAuMTMxOTUyLC0wLjQ0NzA3IC0wLjI1NDI0OCwtMC41Nzg3OCAtMC4xMTc1OTIsLTAuMTMxNyAtMC4yOTg1MjcsLTAuMTk3NCAtMC41NDMxMTksLTAuMTk3NCB6IG0gMTIuMjg0MDA1LDAgYyAtMC4xNTk5MjYsMCAtMC4yOTQzNzUsMC4wMjgzIC0wLjQwMjU2LDAuMDg0NyAtMC4xMDM0OCwwLjA1MTcgLTAuMTg3ODc4LDAuMTE3NDMgLTAuMjUzNzMxLDAuMTk3NCAtMC4wNjExNSwwLjA4IC0wLjEwNjEzOSwwLjE2NDg3IC0wLjEzNDM1OSwwLjI1NDI1IC0wLjAyMzQ5LDAuMDg5NCAtMC4wMzcxMiwwLjE2OTIyIC0wLjA0MTg2LDAuMjM5NzggaCAxLjYyOTM1OCBjIC0wLjA0NzA0LC0wLjI1NCAtMC4xMzE0MzUsLTAuNDQ3MDcgLTAuMjUzNzMxLC0wLjU3ODc4IC0wLjExNzU5MywtMC4xMzE3IC0wLjI5ODUyNiwtMC4xOTc0IC0wLjU0MzExOSwtMC4xOTc0IHogbSAxOC44NzMyNjYsMCBjIC0wLjE2NDYyOSwwIC0wLjMwMzEwNiwwLjAzMjggLTAuNDE1OTk1LDAuMDk4NyAtMC4xMTI4ODksMC4wNjU5IC0wLjIwNDg4LDAuMTUyNzggLTAuMjc1NDM2LDAuMjYwOTYgLTAuMDY1ODUsMC4xMDgxOSAtMC4xMTQ4NjcsMC4yMzMwMyAtMC4xNDc3OTQsMC4zNzQxNCAtMC4wMjgyMiwwLjEzNjQxIC0wLjA0MjM4LDAuMjc5OTUgLTAuMDQyMzgsMC40MzA0NyAwLDAuMTQxMTEgMC4wMTYxNywwLjI4MjExIDAuMDQ5MDksMC40MjMyMyAwLjAzMjkzLDAuMTQxMSAwLjA4NDk5LDAuMjY3OTYgMC4xNTU1NDYsMC4zODA4NSAwLjA3NTI2LDAuMTA4MTkgMC4xNjY3MzMsMC4xOTc2NSAwLjI3NDkxOSwwLjI2ODIgMC4xMTI4ODgsMC4wNjU5IDAuMjQ2ODIsMC4wOTg3IDAuNDAyMDQyLDAuMDk4NyAwLjE2NDYzLDAgMC4zMDEwOTIsLTAuMDMyOCAwLjQwOTI3OCwtMC4wOTg3IDAuMTEyODcsLTAuMDY1OSAwLjIwMjMzNCwtMC4xNTI3OCAwLjI2ODIsLTAuMjYwOTYgMC4wNjU4OCwtMC4xMTI4OSAwLjExMjg3NywtMC4yMzk3NSAwLjE0MTA3NywtMC4zODA4NiAwLjAyODIsLTAuMTQxMTEgMC4wNDIzOCwtMC4yODcxOCAwLjA0MjM4LC0wLjQzNzcgMCwtMC4xNTA1MiAtMC4wMTQxNywtMC4yOTQwNiAtMC4wNDIzOCwtMC40MzA0NiAtMC4wMjgyMiwtMC4xNDExMiAtMC4wNzc3NSwtMC4yNjM0MyAtMC4xNDgzMTIsLTAuMzY2OTEgLTAuMDY1ODUsLTAuMTA4MTcgLTAuMTUyNzc4LC0wLjE5NTEgLTAuMjYwOTY1LC0wLjI2MDk2IC0wLjEwODE4NiwtMC4wNjU5IC0wLjI0NDY0OCwtMC4wOTg3IC0wLjQwOTI3OCwtMC4wOTg3IHogbSA0LjI0MDU2NywwIGMgLTAuMTU5OTMsMCAtMC4yOTM4NSwwLjAyODMgLTAuNDAyMDQsMC4wODQ3IC0wLjEwMzQ3LDAuMDUxNyAtMC4xODgzOCwwLjExNzQzIC0wLjI1NDI1LDAuMTk3NCAtMC4wNjEyLDAuMDggLTAuMTA1NjQsMC4xNjQ4NyAtMC4xMzM4NCwwLjI1NDI1IC0wLjAyMzUsMC4wODk0IC0wLjAzNzcsMC4xNjkyMiAtMC4wNDI0LDAuMjM5NzggaCAxLjYyOTg4IGMgLTAuMDQ3LC0wLjI1NCAtMC4xMzE5NiwtMC40NDcwNyAtMC4yNTQyNSwtMC41Nzg3OCAtMC4xMTc1OSwtMC4xMzE3IC0wLjI5ODUzLC0wLjE5NzQgLTAuNTQzMTIsLTAuMTk3NCB6IG0gLTE3LjU0NzI0OCwwLjc0Nzc1IHYgMS4zODI4NiBoIDEuMTg1NDU3IGMgMC4xMDgxODUsMCAwLjIxMTc5OCwtMC4wMDkgMC4zMTA1NzYsLTAuMDI3OSAwLjA5ODc4LC0wLjAyMzUgMC4xODU3MDYsLTAuMDU4OSAwLjI2MDk2NiwtMC4xMDU5NCAwLjA3NTI2LC0wLjA1MTcgMC4xMzM4ODMsLTAuMTE5OTcgMC4xNzYyMTYsLTAuMjA0NjQgMC4wNDcwNCwtMC4wODQ3IDAuMDcwOCwtMC4xOTI4MiAwLjA3MDgsLTAuMzI0NTIgMCwtMC4yNTg3IC0wLjA3MzI5LC0wLjQ0MjE3IC0wLjIxOTEwOCwtMC41NTAzNiAtMC4xNDU4MTUsLTAuMTEyODggLTAuMzM4MzcsLTAuMTY5NSAtMC41NzgyNTksLTAuMTY5NSB6IiAvPgogICAgPGNpcmNsZQogICAgICAgc3R5bGU9ImZpbGw6IzMzMzMzMztmaWxsLW9wYWNpdHk6MTtzdHJva2Utd2lkdGg6MC4xMzc1NDMiCiAgICAgICBpZD0icGF0aDQiCiAgICAgICBjeD0iMjkuMjM5MTM2IgogICAgICAgY3k9IjE2NS45MTMxOCIKICAgICAgIHI9IjIuNSIgLz4KICAgIDxjaXJjbGUKICAgICAgIHN0eWxlPSJmaWxsOiM0ZDRkNGQ7ZmlsbC1vcGFjaXR5OjE7c3Ryb2tlLXdpZHRoOjAuMTM3NTQzIgogICAgICAgaWQ9ImNpcmNsZTQiCiAgICAgICBjeD0iMzUuNjE1ODQ5IgogICAgICAgY3k9IjE2NS45MTMxOCIKICAgICAgIHI9IjIuNSIgLz4KICAgIDxjaXJjbGUKICAgICAgIHN0eWxlPSJmaWxsOiM5OTk5OTk7ZmlsbC1vcGFjaXR5OjE7c3Ryb2tlLXdpZHRoOjAuMTM3NTQzIgogICAgICAgaWQ9ImNpcmNsZTYiCiAgICAgICBjeD0iNDEuOTkyNjY0IgogICAgICAgY3k9IjE2NS45MTMxOCIKICAgICAgIHI9IjIuNSIgLz4KICAgIDxwYXRoCiAgICAgICBpZD0iY2lyY2xlNSIKICAgICAgIHN0eWxlPSJmaWxsOiMzMzMzMzM7ZmlsbC1vcGFjaXR5OjE7c3Ryb2tlLXdpZHRoOjAuMTM3NTQzIgogICAgICAgZD0ibSA0MS45OTI2NjQsMTYzLjQxMzMzIGEgMi41LDIuNSAwIDAgMCAtMi41MDAxMDYsMi41MDAxMSAyLjUsMi41IDAgMCAwIDIuNTAwMTA2LDIuNDk5NTkgMi41LDIuNSAwIDAgMCAyLjUwMDEwNiwtMi40OTk1OSAyLjUsMi41IDAgMCAwIC0yLjUwMDEwNiwtMi41MDAxMSB6IG0gMCwwLjQ5OTcyIGEgMiwyIDAgMCAxIDEuOTk5ODc4LDIuMDAwMzkgMiwyIDAgMCAxIC0xLjk5OTg3OCwxLjk5OTg4IDIsMiAwIDAgMSAtMS45OTk4NzgsLTEuOTk5ODggMiwyIDAgMCAxIDEuOTk5ODc4LC0yLjAwMDM5IHoiIC8+CiAgICA8cmVjdAogICAgICAgc3R5bGU9ImZpbGw6I2Y5ZjlmOTtmaWxsLW9wYWNpdHk6MTtzdHJva2Utd2lkdGg6MC4yNzk0MTkiCiAgICAgICBpZD0icmVjdDYiCiAgICAgICB3aWR0aD0iNzUiCiAgICAgICBoZWlnaHQ9IjUwIgogICAgICAgeD0iMzYuNzE4NDc5IgogICAgICAgeT0iMTcyLjgzOTEzIiAvPgogICAgPHBhdGgKICAgICAgIGlkPSJwYXRoOCIKICAgICAgIHN0eWxlPSJmaWxsOiM5OTk5OTk7ZmlsbC1vcGFjaXR5OjE7c3Ryb2tlLXdpZHRoOjAuMjc5NDE4IgogICAgICAgZD0iTSAzNy4yMTg2NzYsMjIyLjgzOTE1IFYgMTczLjMzOTMzIEggMTExLjcxODUyIFYgMTcyLjgzOTEgSCAzNi43MTg0NDYgdiA1MC4wMDAwNSB6IiAvPgogICAgPHJlY3QKICAgICAgIHN0eWxlPSJmaWxsOiNlY2VjZWM7ZmlsbC1vcGFjaXR5OjE7c3Ryb2tlLXdpZHRoOjAuMTc5MjkyIgogICAgICAgaWQ9InJlY3Q4IgogICAgICAgd2lkdGg9IjQiCiAgICAgICBoZWlnaHQ9IjQ5IgogICAgICAgeD0iMTA3LjcxODQ4IgogICAgICAgeT0iMTczLjMzOTEzIiAvPgogICAgPHBhdGgKICAgICAgIGlkPSJyZWN0NyIKICAgICAgIHN0eWxlPSJmaWxsOiNmZmZmZmY7ZmlsbC1vcGFjaXR5OjE7c3Ryb2tlLXdpZHRoOjAuMjc5NDE4IgogICAgICAgZD0ibSAxMTEuMjE4MjksMTcyLjgzOTEgdiA0OS40OTk4MiBIIDM2LjcxODQ0MyB2IDAuNTAwMjMgSCAxMTEuNzE4NTIgViAxNzIuODM5MSBaIiAvPgogICAgPHJlY3QKICAgICAgIHN0eWxlPSJmaWxsOiM5OTk5OTk7ZmlsbC1vcGFjaXR5OjE7c3Ryb2tlLXdpZHRoOjAuMjg5NiIKICAgICAgIGlkPSJyZWN0OSIKICAgICAgIHdpZHRoPSIxLjUiCiAgICAgICBoZWlnaHQ9IjI1IgogICAgICAgeD0iMTA4Ljk2ODQ4IgogICAgICAgeT0iMTc1LjA4Mzk4IgogICAgICAgcnk9IjEiIC8+CiAgICA8cGF0aAogICAgICAgaWQ9InJlY3QxMSIKICAgICAgIHN0eWxlPSJmaWxsOiM5OTk5OTk7ZmlsbC1vcGFjaXR5OjE7c3Ryb2tlLXdpZHRoOjAuMjQzNzQ0IgogICAgICAgZD0ibSA0My4xNDYxNjQsMTc2Ljk0NTM1IGMgLTAuNzg0NTY0LDAgLTEuNDE1OTM1LDAuNjMxODkgLTEuNDE1OTM1LDEuNDE2NDUgdiA3LjgwNjI0IGMgMCwwLjc4NDU3IDAuNjMxMzcxLDEuNDE1OTQgMS40MTU5MzUsMS40MTU5NCBoIDIxLjI0MjYzMSBjIDAuNzg0NTYzLDAgMS40MTY0NTEsLTAuNjMxMzcgMS40MTY0NTEsLTEuNDE1OTQgdiAtNy44MDYyNCBjIDAsLTAuNzg0NTYgLTAuNjMxODg4LC0xLjQxNjQ1IC0xLjQxNjQ1MSwtMS40MTY0NSB6IG0gOC4xMzk1NTUsNS42NjA2NCBoIDAuODAxNTAxIHYgMC44NzQ4OCBoIDAuNTg3MDQ0IHYgMC41MzY0IEggNTIuMDg3MjIgdiAxLjQ0NDg3IGMgMCwwLjEzNTUgMC4wMjI1NCwwLjIyNTY2IDAuMDY3NywwLjI3MDc5IDAuMDQ1MTYsMC4wNDUxIDAuMTM1ODM1LDAuMDY3NyAwLjI3MTMwMSwwLjA2NzcgMC4wNDUxNSwwIDAuMDg4MzEsLTAuMDAyIDAuMTI5NzA4LC0wLjAwNiAwLjA0MTQsLTAuMDA0IDAuMDgwNzEsLTAuMDEgMC4xMTgzMzksLTAuMDE3IHYgMC42MjA2MyBjIC0wLjA2NzczLDAuMDExMSAtMC4xNDMwNCwwLjAxODcgLTAuMjI1ODI2LDAuMDIyNyAtMC4wODI3OCwwLjAwNCAtMC4xNjMzNCwwLjAwNiAtMC4yNDIzNjIsMC4wMDYgLTAuMTI0MTc3LDAgLTAuMjQzMTYyLC0wLjAxIC0wLjM1NjA1MSwtMC4wMjg0IC0wLjEwOTEyNiwtMC4wMTUxIC0wLjIwNjk3NCwtMC4wNDcyIC0wLjI5MzUyMiwtMC4wOTYxIC0wLjA4Mjc4LC0wLjA0ODkgLTAuMTQ4NDg0LC0wLjExODQ2IC0wLjE5NzQwNCwtMC4yMDg3NyAtMC4wNDg5MiwtMC4wOTAzIC0wLjA3MzM4LC0wLjIwODc4IC0wLjA3MzM4LC0wLjM1NTU0IHYgLTEuNzIxMzQgaCAtMC40ODUyNDYgdiAtMC41MzY0IGggMC40ODUyNDIgeiBtIDcuNzE1ODA4LDAuNzk1ODEgYyAwLjI0ODM1NCwwIDAuNDY1MTg3LDAuMDQ4OSAwLjY0OTU3MiwwLjE0Njc3IDAuMTg0Mzg2LDAuMDk0MSAwLjMzNDQ4NCwwLjIyMjE1IDAuNDUxMTM2LDAuMzgzOTUgMC4xMjA0MTYsMC4xNjE4MSAwLjIwNzI1MiwwLjM0NTk3IDAuMjU5OTMyLDAuNTUyOTQgMC4wNTI2OCwwLjIwNjk2IDAuMDcxMzgsMC40MjMyOCAwLjA1NjMzLDAuNjQ5MDYgaCAtMi4xMDUzIGMgMC4wMTEyOSwwLjI1OTY0IDAuMDc2OTksMC40NDgxNyAwLjE5NzQwNCwwLjU2NDgyIDAuMTIwNDE0LDAuMTE2NjUgMC4yOTM1NywwLjE3NDY3IDAuNTE5MzQ4LDAuMTc0NjcgMC4xNjE4MDcsMCAwLjMwMDg5NCwtMC4wMzkzIDAuNDE3NTQ1LC0wLjExODM0IDAuMTE2NjUzLC0wLjA4MjggMC4xODgxMTgsLTAuMTY5NjIgMC4yMTQ0NTcsLTAuMjU5OTQgaCAwLjcwNTkwMSBjIC0wLjExMjg4OSwwLjM0OTk2IC0wLjI4NjA0NSwwLjYwMDM0IC0wLjUxOTM0OSwwLjc1MDg2IC0wLjIzMzMwMywwLjE1MDUyIC0wLjUxNTgzNywwLjIyNTgzIC0wLjg0Njk3NiwwLjIyNTgzIC0wLjIyOTU0MSwwIC0wLjQzNjI0OSwtMC4wMzYgLTAuNjIwNjM0LC0wLjEwNzQ5IC0wLjE4NDM4NSwtMC4wNzUzIC0wLjM0MDc2NSwtMC4xODAyOCAtMC40Njg3MDUsLTAuMzE1NzQgLTAuMTI3OTQxLC0wLjEzNTQ3IC0wLjIyNzcxLC0wLjI5NzYxIC0wLjI5OTIwNywtMC40ODU3NiAtMC4wNjc3MywtMC4xODgxNSAtMC4xMDEyODYsLTAuMzk0ODYgLTAuMTAxMjg2LC0wLjYyMDYzIDAsLTAuMjE4MjYgMC4wMzU0NywtMC40MjE2NCAwLjEwNjk3LC0wLjYwOTc5IDAuMDcxNSwtMC4xODgxNSAwLjE3MzE4NywtMC4zNDk3NyAwLjMwNDg5MSwtMC40ODUyNCAwLjEzMTcwNCwtMC4xMzkyMiAwLjI4ODA4NCwtMC4yNDg2MSAwLjQ2ODcwNiwtMC4zMjc2MyAwLjE4NDM4NSwtMC4wNzkgMC4zODcyNSwtMC4xMTgzNCAwLjYwOTI2NSwtMC4xMTgzNCB6IG0gMy41NjIwNTYsMCBjIDAuMjE0NDkzLDAgMC4zODkwNDksMC4wMzAyIDAuNTI0NTE2LDAuMDkwNCAwLjEzOTIyNiwwLjA1NjQgMC4yNDg2MDksMC4xMzc1MSAwLjMyNzYyOSwwLjI0Mjg4IDAuMDc5MDYsMC4xMDE2IDAuMTMzNzQ3LDAuMjI3MjQgMC4xNjM4MTQsMC4zNzc3NSAwLjAzMzg3LDAuMTQ2NzYgMC4wNTA2NCwwLjMxMDgzIDAuMDUwNjQsMC40OTE0NSBWIDE4Ni4zOTkgSCA2Mi44Mjg2OCB2IC0xLjY0Nzk2IGMgMCwtMC4yNDA4NCAtMC4wMzc5MSwtMC40MTk3NSAtMC4xMTMxNzEsLTAuNTM2NCAtMC4wNzUyNiwtMC4xMjA0MiAtMC4yMDg1ODYsLTAuMTgwODcgLTAuNDAwNDkyLC0wLjE4MDg3IC0wLjIxODI1NCwwIC0wLjM3NjU1LDAuMDY2MiAtMC40NzQzOSwwLjE5NzkyIC0wLjA5NzgzLDAuMTI3OTQgLTAuMTQ2MjQ0LDAuMzQwNDEgLTAuMTQ2MjQ0LDAuNjM3NjkgdiAxLjUyOTYyIGggLTAuODAyMDE2IHYgLTIuOTE4MTcgaCAwLjc2MjIyOCB2IDAuNDA2MTggaCAwLjAxNzA1IGMgMC4xMDE1OTksLTAuMTY5MzQgMC4yMzMwMDEsLTAuMjkxNjUgMC4zOTQ4MDgsLTAuMzY2OTEgMC4xNjE4MDYsLTAuMDc5IDAuMzI3Nzk0LC0wLjExODM0IDAuNDk3MTI3LC0wLjExODM0IHogbSAtOS43NzYxNDcsMC4wNzkxIGggMC44NDY0NiBsIDAuNTM2NDAxLDEuOTgxMjcgaCAwLjAxMDg1IGwgMC40ODU3NTksLTEuOTgxMjcgaCAwLjc3ODc2MyBsIDAuNDk2NjExLDEuOTc1NTkgaCAwLjAxMTM3IGwgMC41MzY0MDEsLTEuOTc1NTkgaCAwLjgyNDIzOSBsIC0wLjkyMDM1NywyLjkxODE3IGggLTAuODI0MjM5IGwgLTAuNTE4ODMyLC0xLjk1ODU0IGggLTAuMDExMzcgbCAtMC40OTY2MTEsMS45NTg1NCBoIC0wLjgyOTkyMyB6IG0gNi4xOTE4NywwLjUyNTAzIGMgLTAuMTI3OTQxLDAgLTAuMjM1Mzk2LDAuMDIyNiAtMC4zMjE5NDQsMC4wNjc3IC0wLjA4Mjc5LDAuMDQxNCAtMC4xNTA0MDksMC4wOTQxIC0wLjIwMzA4OSwwLjE1ODEzIC0wLjA0ODkyLDAuMDY0IC0wLjA4NDkxLDAuMTMxNTkgLTAuMTA3NDg3LDAuMjAzMDkgLTAuMDE4ODUsMC4wNzE1IC0wLjAyOTg2LDAuMTM1MjUgLTAuMDMzNTksMC4xOTE3MiBoIDEuMzAzNzk2IGMgLTAuMDM3NjMsLTAuMjAzMiAtMC4xMDUyNTIsLTAuMzU3MTQgLTAuMjAzMDg4LC0wLjQ2MjUxIC0wLjA5NDA3LC0wLjEwNTM2IC0wLjIzODkyNSwtMC4xNTgxMyAtMC40MzQ1OTgsLTAuMTU4MTMgeiIgLz4KICAgIDxwYXRoCiAgICAgICBzdHlsZT0iZm9udC13ZWlnaHQ6Ym9sZDtmb250LXNpemU6NC4yMzMzM3B4O2ZvbnQtZmFtaWx5OidIZWx2ZXRpY2EgTmV1ZSc7LWlua3NjYXBlLWZvbnQtc3BlY2lmaWNhdGlvbjonSGVsdmV0aWNhIE5ldWUsIEJvbGQnO2ZpbGw6IzMzMzMzMztzdHJva2Utd2lkdGg6MC4yNjQ1ODMiCiAgICAgICBkPSJtIDQyLjk1NDUzNiwxNzkuMjQzMjYgcSAwLjAxMjcsLTAuMjExNjcgMC4xMDU4MzQsLTAuMzUxMzcgMC4wOTMxMywtMC4xMzk3IDAuMjM3MDY2LC0wLjIyNDM2IDAuMTQzOTM0LC0wLjA4NDcgMC4zMjE3MzQsLTAuMTE4NTQgMC4xODIwMzMsLTAuMDM4MSAwLjM2NDA2NiwtMC4wMzgxIDAuMTY1MSwwIDAuMzM0NDM0LDAuMDI1NCAwLjE2OTMzMywwLjAyMTIgMC4zMDkwMzMsMC4wODg5IDAuMTM5NywwLjA2NzcgMC4yMjg2LDAuMTkwNSAwLjA4ODksMC4xMTg1NCAwLjA4ODksMC4zMTc1IHYgMS4xMzg3NyBxIDAsMC4xNDgxNyAwLjAxNjkzLDAuMjgzNjMgMC4wMTY5MywwLjEzNTQ3IDAuMDU5MjcsMC4yMDMyIGggLTAuNjA5NiBxIC0wLjAxNjkzLC0wLjA1MDggLTAuMDI5NjMsLTAuMTAxNiAtMC4wMDg1LC0wLjA1NSAtMC4wMTI3LC0wLjExMDA2IC0wLjE0MzkzNCwwLjE0ODE2IC0wLjMzODY2NywwLjIwNzQzIC0wLjE5NDczMywwLjA1OTMgLTAuMzk3OTMzLDAuMDU5MyAtMC4xNTY2MzQsMCAtMC4yOTIxLC0wLjAzODEgLTAuMTM1NDY3LC0wLjAzODEgLTAuMjM3MDY3LC0wLjExODU0IC0wLjEwMTYsLTAuMDgwNCAtMC4xNjA4NjcsLTAuMjAzMiAtMC4wNTUwMywtMC4xMjI3NiAtMC4wNTUwMywtMC4yOTIxIDAsLTAuMTg2MjYgMC4wNjM1LC0wLjMwNDggMC4wNjc3MywtMC4xMjI3NiAwLjE2OTMzMywtMC4xOTQ3MyAwLjEwNTgzNCwtMC4wNzIgMC4yMzcwNjcsLTAuMTA1ODMgMC4xMzU0NjcsLTAuMDM4MSAwLjI3MDkzMywtMC4wNTkzIDAuMTM1NDY3LC0wLjAyMTIgMC4yNjY3LC0wLjAzMzkgMC4xMzEyMzQsLTAuMDEyNyAwLjIzMjgzNCwtMC4wMzgxIDAuMTAxNiwtMC4wMjU0IDAuMTYwODY2LC0wLjA3MiAwLjA1OTI3LC0wLjA1MDggMC4wNTUwMywtMC4xNDM5NCAwLC0wLjA5NzQgLTAuMDMzODcsLTAuMTUyNCAtMC4wMjk2MywtMC4wNTkzIC0wLjA4NDY3LC0wLjA4ODkgLTAuMDUwOCwtMC4wMzM5IC0wLjEyMjc2NiwtMC4wNDIzIC0wLjA2NzczLC0wLjAxMjcgLTAuMTQ4MTY3LC0wLjAxMjcgLTAuMTc3OCwwIC0wLjI3OTQsMC4wNzYyIC0wLjEwMTYsMC4wNzYyIC0wLjExODUzMywwLjI1NCB6IG0gMS4zODg1MzQsMC40NDQ1IHEgLTAuMDM4MSwwLjAzMzkgLTAuMDk3MzcsMC4wNTUgLTAuMDU1MDMsMC4wMTY5IC0wLjEyMjc2NywwLjAyOTYgLTAuMDYzNSwwLjAxMjcgLTAuMTM1NDY2LDAuMDIxMiAtMC4wNzE5NywwLjAwOCAtMC4xNDM5MzQsMC4wMjEyIC0wLjA2NzczLDAuMDEyNyAtMC4xMzU0NjYsMC4wMzM5IC0wLjA2MzUsMC4wMjEyIC0wLjExNDMsMC4wNTkzIC0wLjA0NjU3LDAuMDMzOSAtMC4wNzYyLDAuMDg4OSAtMC4wMjk2MywwLjA1NSAtMC4wMjk2MywwLjEzOTcgMCwwLjA4MDQgMC4wMjk2MywwLjEzNTQ3IDAuMDI5NjMsMC4wNTUgMC4wODA0MywwLjA4ODkgMC4wNTA4LDAuMDI5NiAwLjExODUzMywwLjA0MjMgMC4wNjc3MywwLjAxMjcgMC4xMzk3LDAuMDEyNyAwLjE3NzgsMCAwLjI3NTE2NywtMC4wNTkzIDAuMDk3MzcsLTAuMDU5MyAwLjE0MzkzMywtMC4xMzk3IDAuMDQ2NTcsLTAuMDg0NyAwLjA1NTAzLC0wLjE2OTM0IDAuMDEyNywtMC4wODQ3IDAuMDEyNywtMC4xMzU0NiB6IG0gMi4wODcwMywwLjU1NDU3IHEgLTAuMTM5NywwIC0wLjIzMjgzMywtMC4wNTkzIC0wLjA5MzEzLC0wLjA1OTMgLTAuMTUyNCwtMC4xNTI0IC0wLjA1NTAzLC0wLjA5MzEgLTAuMDgwNDMsLTAuMjA3NDMgLTAuMDIxMTcsLTAuMTE4NTQgLTAuMDIxMTcsLTAuMjM3MDcgMCwtMC4xMjI3NyAwLjAyNTQsLTAuMjMyODMgMC4wMjk2MywtMC4xMTQzIDAuMDg4OSwtMC4xOTg5NyAwLjA2MzUsLTAuMDg4OSAwLjE1MjQsLTAuMTM5NyAwLjA5MzEzLC0wLjA1MDggMC4yMjAxMzMsLTAuMDUwOCAwLjE0ODE2NywwIDAuMjQ1NTM0LDAuMDU1IDAuMDk3MzcsMC4wNTUgMC4xNTY2MzMsMC4xNDgxNyAwLjA1OTI3LDAuMDkzMSAwLjA4NDY3LDAuMjE1OSAwLjAyNTQsMC4xMTg1MyAwLjAyNTQsMC4yNTQgMCwwLjExODUzIC0wLjAzMzg3LDAuMjI4NiAtMC4wMjk2MywwLjEwNTgzIC0wLjA5MzEzLDAuMTkwNSAtMC4wNjM1LDAuMDg0NyAtMC4xNjA4NjcsMC4xMzU0NyAtMC4wOTczNywwLjA1MDggLTAuMjI0MzY3LDAuMDUwOCB6IG0gMS4wODM3MzQsMC4zNzY3NiB2IC0yLjA0ODkzIGggLTAuNTcxNSB2IDAuMjkyMSBoIC0wLjAwODUgcSAtMC4xMTAwNjcsLTAuMTkwNSAtMC4yNzUxNjcsLTAuMjcwOTMgLTAuMTYwODY2LC0wLjA4MDQgLTAuMzc2NzY2LC0wLjA4MDQgLTAuMjI4NiwwIC0wLjQwNjQsMC4wODg5IC0wLjE3MzU2NywwLjA4ODkgLTAuMjkyMSwwLjI0MTMgLTAuMTE4NTM0LDAuMTQ4MTcgLTAuMTgyMDM0LDAuMzQ3MTQgLTAuMDU5MjcsMC4xOTQ3MyAtMC4wNTkyNywwLjQwNjQgMCwwLjIyNDM2IDAuMDUwOCwwLjQyNzU2IDAuMDU1MDMsMC4xOTg5NyAwLjE2OTMzMywwLjM1MTM3IDAuMTE0MywwLjE0ODE3IDAuMjkyMSwwLjIzNzA3IDAuMTc3OCwwLjA4NDcgMC40MjMzMzMsMC4wODQ3IDAuMTk4OTY3LDAgMC4zNzY3NjcsLTAuMDgwNCAwLjE4MjAzMywtMC4wODQ3IDAuMjc5NCwtMC4yNTgyMyBoIDAuMDA4NSB2IDAuMjg3ODYgcSAwLjAwNDIsMC4yMzI4NCAtMC4xMTQzLDAuMzg1MjQgLTAuMTE0MywwLjE1MjQgLTAuMzY4MywwLjE1MjQgLTAuMTYwODY3LDAgLTAuMjgzNjM0LC0wLjA2NzcgLTAuMTIyNzY2LC0wLjA2MzUgLTAuMTY1MSwtMC4yMzI4MyBoIC0wLjU5NjkgcSAwLjAxMjcsMC4xODYyNyAwLjEwMTYsMC4zMTc1IDAuMDkzMTMsMC4xMzU0NyAwLjIyODYsMC4yMjAxMyAwLjEzOTcsMC4wODQ3IDAuMzA0OCwwLjEyMjc3IDAuMTY5MzM0LDAuMDQyMyAwLjMzMDIsMC4wNDIzIDAuMzc2NzY3LDAgMC42MDExMzQsLTAuMTAxNiAwLjIyNDM2NiwtMC4xMDE2IDAuMzQyOSwtMC4yNDk3NiAwLjExODUzMywtMC4xNDM5NCAwLjE1MjQsLTAuMzEzMjcgMC4wMzgxLC0wLjE2OTMzIDAuMDM4MSwtMC4zMDA1NyB6IG0gMS45NTU4LC0xLjE4OTU2IGggLTAuOTc3OSBxIDAuMDA0MiwtMC4wNjM1IDAuMDI1NCwtMC4xNDM5NCAwLjAyNTQsLTAuMDgwNCAwLjA4MDQzLC0wLjE1MjQgMC4wNTkyNywtMC4wNzIgMC4xNTI0LC0wLjExODUzIDAuMDk3MzcsLTAuMDUwOCAwLjI0MTMsLTAuMDUwOCAwLjIyMDEzNCwwIDAuMzI1OTY3LDAuMTE4NTMgMC4xMTAwNjcsMC4xMTg1NCAwLjE1MjQsMC4zNDcxNCB6IG0gLTAuOTc3OSwwLjM4MSBoIDEuNTc5MDMzIHEgMC4wMTY5MywtMC4yNTQgLTAuMDQyMzMsLTAuNDg2ODQgLTAuMDU5MjcsLTAuMjMyODMgLTAuMTk0NzMzLC0wLjQxNDg2IC0wLjEzMTIzNCwtMC4xODIwNCAtMC4zMzg2NjcsLTAuMjg3ODcgLTAuMjA3NDMzLC0wLjExMDA3IC0wLjQ4NjgzMywtMC4xMTAwNyAtMC4yNDk3NjcsMCAtMC40NTcyLDAuMDg4OSAtMC4yMDMyLDAuMDg4OSAtMC4zNTEzNjcsMC4yNDU1NCAtMC4xNDgxNjcsMC4xNTI0IC0wLjIyODYsMC4zNjQwNiAtMC4wODA0MywwLjIxMTY3IC0wLjA4MDQzLDAuNDU3MiAwLDAuMjU0IDAuMDc2MiwwLjQ2NTY3IDAuMDgwNDMsMC4yMTE2NyAwLjIyNDM2NiwwLjM2NDA3IDAuMTQzOTM0LDAuMTUyNCAwLjM1MTM2NywwLjIzNzA2IDAuMjA3NDMzLDAuMDgwNCAwLjQ2NTY2NywwLjA4MDQgMC4zNzI1MzMsMCAwLjYzNSwtMC4xNjkzNCAwLjI2MjQ2NiwtMC4xNjkzMyAwLjM4OTQ2NiwtMC41NjMwMyBoIC0wLjUyOTE2NiBxIC0wLjAyOTYzLDAuMTAxNiAtMC4xNjA4NjcsMC4xOTQ3MyAtMC4xMzEyMzMsMC4wODg5IC0wLjMxMzI2NywwLjA4ODkgLTAuMjU0LDAgLTAuMzg5NDY2LC0wLjEzMTIzIC0wLjEzNTQ2NywtMC4xMzEyMyAtMC4xNDgxNjcsLTAuNDIzMzMgeiBtIDEuOTMwMzk3LC0wLjQ2NTY3IHYgMC41MTY0NyBoIDEuMjc0MjM0IHYgLTAuNTE2NDcgeiBtIDIuNzQ3NDMxLDAuODk3NDcgcSAtMC4xMzk3LDAgLTAuMjMyODMzLC0wLjA1OTMgLTAuMDkzMTMsLTAuMDU5MyAtMC4xNTI0LC0wLjE1MjQgLTAuMDU1MDMsLTAuMDkzMSAtMC4wODA0MywtMC4yMDc0MyAtMC4wMjExNywtMC4xMTg1NCAtMC4wMjExNywtMC4yMzcwNyAwLC0wLjEyMjc3IDAuMDI1NCwtMC4yMzI4MyAwLjAyOTYzLC0wLjExNDMgMC4wODg5LC0wLjE5ODk3IDAuMDYzNSwtMC4wODg5IDAuMTUyNCwtMC4xMzk3IDAuMDkzMTMsLTAuMDUwOCAwLjIyMDEzMywtMC4wNTA4IDAuMTQ4MTY3LDAgMC4yNDU1MzQsMC4wNTUgMC4wOTczNywwLjA1NSAwLjE1NjYzMywwLjE0ODE3IDAuMDU5MjcsMC4wOTMxIDAuMDg0NjcsMC4yMTU5IDAuMDI1NCwwLjExODUzIDAuMDI1NCwwLjI1NCAwLDAuMTE4NTMgLTAuMDMzODcsMC4yMjg2IC0wLjAyOTYzLDAuMTA1ODMgLTAuMDkzMTMsMC4xOTA1IC0wLjA2MzUsMC4wODQ3IC0wLjE2MDg2NywwLjEzNTQ3IC0wLjA5NzM3LDAuMDUwOCAtMC4yMjQzNjcsMC4wNTA4IHogbSAxLjA4MzczNCwwLjM3Njc2IHYgLTIuMDQ4OTMgaCAtMC41NzE1IHYgMC4yOTIxIGggLTAuMDA4NSBxIC0wLjExMDA2NywtMC4xOTA1IC0wLjI3NTE2NywtMC4yNzA5MyAtMC4xNjA4NjYsLTAuMDgwNCAtMC4zNzY3NjYsLTAuMDgwNCAtMC4yMjg2LDAgLTAuNDA2NCwwLjA4ODkgLTAuMTczNTY3LDAuMDg4OSAtMC4yOTIxLDAuMjQxMyAtMC4xMTg1MzQsMC4xNDgxNyAtMC4xODIwMzQsMC4zNDcxNCAtMC4wNTkyNywwLjE5NDczIC0wLjA1OTI3LDAuNDA2NCAwLDAuMjI0MzYgMC4wNTA4LDAuNDI3NTYgMC4wNTUwMywwLjE5ODk3IDAuMTY5MzMzLDAuMzUxMzcgMC4xMTQzLDAuMTQ4MTcgMC4yOTIxLDAuMjM3MDcgMC4xNzc4LDAuMDg0NyAwLjQyMzMzMywwLjA4NDcgMC4xOTg5NjcsMCAwLjM3Njc2NywtMC4wODA0IDAuMTgyMDMzLC0wLjA4NDcgMC4yNzk0LC0wLjI1ODIzIGggMC4wMDg1IHYgMC4yODc4NiBxIDAuMDA0MiwwLjIzMjg0IC0wLjExNDMsMC4zODUyNCAtMC4xMTQzLDAuMTUyNCAtMC4zNjgzLDAuMTUyNCAtMC4xNjA4NjcsMCAtMC4yODM2MzQsLTAuMDY3NyAtMC4xMjI3NjYsLTAuMDYzNSAtMC4xNjUxLC0wLjIzMjgzIGggLTAuNTk2OSBxIDAuMDEyNywwLjE4NjI3IDAuMTAxNiwwLjMxNzUgMC4wOTMxMywwLjEzNTQ3IDAuMjI4NiwwLjIyMDEzIDAuMTM5NywwLjA4NDcgMC4zMDQ4LDAuMTIyNzcgMC4xNjkzMzQsMC4wNDIzIDAuMzMwMiwwLjA0MjMgMC4zNzY3NjcsMCAwLjYwMTEzNCwtMC4xMDE2IDAuMjI0MzY2LC0wLjEwMTYgMC4zNDI5LC0wLjI0OTc2IDAuMTE4NTMzLC0wLjE0Mzk0IDAuMTUyNCwtMC4zMTMyNyAwLjAzODEsLTAuMTY5MzMgMC4wMzgxLC0wLjMwMDU3IHogbSAwLjQ4MjYsLTIuMDQ4OTMgdiAyLjE4ODYzIGggMC42MDExMzMgdiAtMC45ODYzNiBxIDAsLTAuMTQ4MTcgMC4wMjk2MywtMC4yNzUxNyAwLjAyOTYzLC0wLjEyNyAwLjA5NzM3LC0wLjIyMDEzIDAuMDcxOTcsLTAuMDk3NCAwLjE4NjI2NywtMC4xNTI0IDAuMTE0MywtMC4wNTUgMC4yNzk0LC0wLjA1NSAwLjA1NTAzLDAgMC4xMTQzLDAuMDA4IDAuMDU5MjcsMC4wMDQgMC4xMDE2LDAuMDEyNyB2IC0wLjU1ODggcSAtMC4wNzE5NywtMC4wMjEyIC0wLjEzMTIzMywtMC4wMjEyIC0wLjExNDMsMCAtMC4yMjAxMzQsMC4wMzM5IC0wLjEwNTgzMywwLjAzMzkgLTAuMTk4OTY2LDAuMDk3NCAtMC4wOTMxMywwLjA1OTMgLTAuMTY1MSwwLjE0ODE2IC0wLjA3MTk3LDAuMDg0NyAtMC4xMTQzLDAuMTg2MjcgaCAtMC4wMDg1IHYgLTAuNDA2NCB6IG0gMi4xMDM5NjgsMS4wOTY0MyBxIDAsLTAuMTMxMjMgMC4wMjU0LC0wLjI1ODIzIDAuMDI1NCwtMC4xMjcgMC4wODQ2NywtMC4yMjQzNyAwLjA2MzUsLTAuMDk3NCAwLjE2NTEsLTAuMTU2NjMgMC4xMDE2LC0wLjA2MzUgMC4yNTQsLTAuMDYzNSAwLjE1MjQsMCAwLjI1NCwwLjA2MzUgMC4xMDU4MzMsMC4wNTkzIDAuMTY1MSwwLjE1NjYzIDAuMDYzNSwwLjA5NzQgMC4wODg5LDAuMjI0MzcgMC4wMjU0LDAuMTI3IDAuMDI1NCwwLjI1ODIzIDAsMC4xMzEyNCAtMC4wMjU0LDAuMjU4MjQgLTAuMDI1NCwwLjEyMjc2IC0wLjA4ODksMC4yMjQzNiAtMC4wNTkyNywwLjA5NzQgLTAuMTY1MSwwLjE1NjY0IC0wLjEwMTYsMC4wNTkzIC0wLjI1NCwwLjA1OTMgLTAuMTUyNCwwIC0wLjI1NCwtMC4wNTkzIC0wLjEwMTYsLTAuMDU5MyAtMC4xNjUxLC0wLjE1NjY0IC0wLjA1OTI3LC0wLjEwMTYgLTAuMDg0NjcsLTAuMjI0MzYgLTAuMDI1NCwtMC4xMjcgLTAuMDI1NCwtMC4yNTgyNCB6IG0gLTAuNjAxMTMzLDAgcSAwLDAuMjYyNDcgMC4wODA0MywwLjQ3NDE0IDAuMDgwNDMsMC4yMTE2NiAwLjIyODYsMC4zNjQwNiAwLjE0ODE2NywwLjE0ODE3IDAuMzU1NiwwLjIyODYgMC4yMDc0MzMsMC4wODA0IDAuNDY1NjY3LDAuMDgwNCAwLjI1ODIzMywwIDAuNDY1NjY2LC0wLjA4MDQgMC4yMTE2NjcsLTAuMDgwNCAwLjM1OTgzNCwtMC4yMjg2IDAuMTQ4MTY2LC0wLjE1MjQgMC4yMjg2LC0wLjM2NDA2IDAuMDgwNDMsLTAuMjExNjcgMC4wODA0MywtMC40NzQxNCAwLC0wLjI2MjQ2IC0wLjA4MDQzLC0wLjQ3NDEzIC0wLjA4MDQzLC0wLjIxNTkgLTAuMjI4NiwtMC4zNjQwNyAtMC4xNDgxNjcsLTAuMTUyNCAtMC4zNTk4MzQsLTAuMjMyODMgLTAuMjA3NDMzLC0wLjA4NDcgLTAuNDY1NjY2LC0wLjA4NDcgLTAuMjU4MjM0LDAgLTAuNDY1NjY3LDAuMDg0NyAtMC4yMDc0MzMsMC4wODA0IC0wLjM1NTYsMC4yMzI4MyAtMC4xNDgxNjcsMC4xNDgxNyAtMC4yMjg2LDAuMzY0MDcgLTAuMDgwNDMsMC4yMTE2NyAtMC4wODA0MywwLjQ3NDEzIHogbSA0LjcwNzQ2NywxLjA5MjIgdiAtMi4xODg2MyBoIC0wLjYwMTEzNCB2IDEuMTQ3MjMgcSAwLDAuMzM0NDQgLTAuMTEwMDY2LDAuNDgyNiAtMC4xMTAwNjcsMC4xNDM5NCAtMC4zNTU2LDAuMTQzOTQgLTAuMjE1OSwwIC0wLjMwMDU2NywtMC4xMzEyNCAtMC4wODQ2NywtMC4xMzU0NiAtMC4wODQ2NywtMC40MDY0IHYgLTEuMjM2MTMgaCAtMC42MDExMzMgdiAxLjM0NjIgcSAwLDAuMjAzMiAwLjAzMzg3LDAuMzcyNTMgMC4wMzgxLDAuMTY1MSAwLjEyNywwLjI4MzY0IDAuMDg4OSwwLjExNDMgMC4yNDEzLDAuMTc3OCAwLjE1NjYzMywwLjA2MzUgMC4zOTc5MzMsMC4wNjM1IDAuMTkwNSwwIDAuMzcyNTMzLC0wLjA4NDcgMC4xODIwMzQsLTAuMDg0NyAwLjI5NjMzNCwtMC4yNzUxNyBoIDAuMDEyNyB2IDAuMzA0OCB6IG0gMS41NjIxLC0wLjM5MzcgcSAtMC4xNDM5MzMsMCAtMC4yNDU1MzMsLTAuMDU5MyAtMC4xMDE2LC0wLjA1OTMgLTAuMTY1MSwtMC4xNTI0IC0wLjA1OTI3LC0wLjA5NzQgLTAuMDg4OSwtMC4yMjQzNyAtMC4wMjU0LC0wLjEyNyAtMC4wMjU0LC0wLjI1ODIzIDAsLTAuMTM1NDcgMC4wMjU0LC0wLjI2MjQ3IDAuMDI1NCwtMC4xMjcgMC4wODQ2NywtMC4yMjQzNyAwLjA2MzUsLTAuMDk3NCAwLjE2MDg2NiwtMC4xNTY2MyAwLjEwMTYsLTAuMDYzNSAwLjI0OTc2NywtMC4wNjM1IDAuMTQzOTMzLDAgMC4yNDEzLDAuMDYzNSAwLjEwMTYsMC4wNTkzIDAuMTY1MSwwLjE2MDg3IDAuMDYzNSwwLjA5NzQgMC4wODg5LDAuMjI0MzYgMC4wMjk2MywwLjEyNyAwLjAyOTYzLDAuMjU4MjQgMCwwLjEzMTIzIC0wLjAyNTQsMC4yNTgyMyAtMC4wMjU0LDAuMTI3IC0wLjA4ODksMC4yMjQzNyAtMC4wNTkyNywwLjA5MzEgLTAuMTYwODY2LDAuMTUyNCAtMC4wOTczNywwLjA1OTMgLTAuMjQ1NTM0LDAuMDU5MyB6IG0gLTEuMTA0OSwtMS43OTQ5MyB2IDIuOTU0ODcgaCAwLjYwMTEzNCB2IC0xLjAzNzE3IGggMC4wMDg1IHEgMC4xMTAwNjcsMC4xNjA4NyAwLjI3OTQsMC4yNDU1MyAwLjE3MzU2NywwLjA4MDQgMC4zNzY3NjcsMC4wODA0IDAuMjQxMywwIDAuNDE5MSwtMC4wOTMxIDAuMTgyMDMzLC0wLjA5MzEgMC4zMDA1NjcsLTAuMjQ5NzYgMC4xMjI3NjYsLTAuMTU2NjQgMC4xODIwMzMsLTAuMzU5ODQgMC4wNTkyNywtMC4yMDMyIDAuMDU5MjcsLTAuNDIzMzMgMCwtMC4yMzI4MyAtMC4wNTkyNywtMC40NDQ1IC0wLjA1OTI3LC0wLjIxNTkgLTAuMTgyMDMzLC0wLjM3Njc3IC0wLjEyMjc2NywtMC4xNjA4NiAtMC4zMDkwMzQsLTAuMjU4MjMgLTAuMTg2MjY2LC0wLjA5NzQgLTAuNDQ0NSwtMC4wOTc0IC0wLjIwMzIsMCAtMC4zNzI1MzMsMC4wODA0IC0wLjE2OTMzMywwLjA4MDQgLTAuMjc5NCwwLjI1ODIzIGggLTAuMDA4NSB2IC0wLjI3OTQgeiIKICAgICAgIGlkPSJ0ZXh0MTIiCiAgICAgICBhcmlhLWxhYmVsPSJhZ2UtZ3JvdXAiIC8+CiAgICA8cGF0aAogICAgICAgaWQ9InJlY3QxMyIKICAgICAgIHN0eWxlPSJmaWxsOiMzMzMzMzM7ZmlsbC1vcGFjaXR5OjE7c3Ryb2tlLXdpZHRoOjAuNTY1NTM1IgogICAgICAgZD0ibSA3MS4zMzM2MywxOTIuMDMzNzYgYyAtMC42NDc0MzMsMCAtMS4xNjg5MjEsMC41MjA5NyAtMS4xNjg5MjEsMS4xNjg0IHYgMjIuNjYyNyBjIDAsMC42NDc0MyAwLjUyMTQ4OCwxLjE2ODkyIDEuMTY4OTIxLDEuMTY4OTIgaCAzMy42NjI1NSBjIDAuNjQ3NDMsMCAxLjE2ODkyLC0wLjUyMTQ5IDEuMTY4OTIsLTEuMTY4OTIgdiAtMjIuNjYyNyBjIDAsLTAuNjQ3NDMgLTAuNTIxNDksLTEuMTY4NCAtMS4xNjg5MiwtMS4xNjg0IHogbSAwLjExMjEzOCwwLjQ5OTcxIGggMzMuNDM4MjcyIGMgMC40MzI1MywwIDAuNzgwODMsMC4zNDgzIDAuNzgwODMsMC43ODA4MyB2IDIyLjQzODQyIGMgMCwwLjQzMjUzIC0wLjM0ODMsMC43ODA4MyAtMC43ODA4MywwLjc4MDgzIEggNzEuNDQ1NzY4IGMgLTAuNDMyNTMsMCAtMC43ODA4MzEsLTAuMzQ4MyAtMC43ODA4MzEsLTAuNzgwODMgViAxOTMuMzE0MyBjIDAsLTAuNDMyNTMgMC4zNDgzMDEsLTAuNzgwODMgMC43ODA4MzEsLTAuNzgwODMgeiIgLz4KICAgIDxwYXRoCiAgICAgICBpZD0icGF0aDEzIgogICAgICAgc3R5bGU9ImZpbGw6IzMzMzMzMztmaWxsLW9wYWNpdHk6MTtzdHJva2Utd2lkdGg6MC4xOTE3ODkiCiAgICAgICBkPSJtIDUzLjcwODE3OCwxOTkuNTMwMTYgYSA1LDUgMCAwIDAgLTQuOTk5Njk0LDUuMDAwMjEgNSw1IDAgMCAwIDQuOTk5Njk0LDQuOTk5NyA1LDUgMCAwIDAgNS4wMDAyMTIsLTQuOTk5NyA1LDUgMCAwIDAgLTUuMDAwMjEyLC01LjAwMDIxIHogbSAwLDAuNzUwMzQgYSA0LjI1LDQuMjUgMCAwIDEgNC4yNDk4Nyw0LjI0OTg3IDQuMjUsNC4yNSAwIDAgMSAtNC4yNDk4Nyw0LjI0OTg3IDQuMjUsNC4yNSAwIDAgMSAtNC4yNDk4NjksLTQuMjQ5ODcgNC4yNSw0LjI1IDAgMCAxIDQuMjQ5ODY5LC00LjI0OTg3IHogbSAtMi44MDk2NDcsMi45OSAtMC45NTIzOTcsMi41MTkyMyBoIDAuNTU3MDcyIGwgMC4xOTc5MjEsLTAuNTYxMjEgaCAwLjk0MTU0NCBsIDAuMTkwNjg2LDAuNTYxMjEgaCAwLjU3NTE1OSBsIC0wLjk0MjA2MSwtMi41MTkyMyB6IG0gMS43Mjg1NzYsMCB2IDIuNTE5MjMgaCAwLjUxODgzMiB2IC0xLjY4NjcyIGggMC4wMDY3IGwgMS4wNDc5OTgsMS42ODY3MiBoIDAuNTUzOTcxIHYgLTIuNTE5MjMgaCAtMC41MTg4MzEgdiAxLjY4OTgyIGggLTAuMDA3MiBsIC0xLjA1MTA5OSwtMS42ODk4MiB6IG0gMi42MTQzMTEsMCB2IDIuNTE5MjMgaCAxLjA4NjIzOSBjIDAuMTkyODUyLDAgMC4zNjAxNTEsLTAuMDMyMSAwLjUwMTI2MSwtMC4wOTU2IDAuMTQzNDYzLC0wLjA2NTkgMC4yNjE5NzcsLTAuMTU1MzIgMC4zNTYwNTEsLTAuMjY4MiAwLjA5NjQzLC0wLjExMjg4IDAuMTY4NDUzLC0wLjI0NjgyIDAuMjE1NDksLTAuNDAyMDQgMC4wNDcwMywtMC4xNTUyMyAwLjA3MDI4LC0wLjMyNDU0IDAuMDcwMjgsLTAuNTA3OTggMCwtMC4yMDkzMiAtMC4wMjk1NywtMC4zOTE1MiAtMC4wODgzNywtMC41NDY3NCAtMC4wNTY0NSwtMC4xNTUyMSAtMC4xMzYzLC0wLjI4NDYgLTAuMjM5Nzc5LC0wLjM4ODA5IC0wLjEwMTEzLC0wLjEwMzQ4IC0wLjIyMjE3NCwtMC4xODEzMiAtMC4zNjMyODUsLTAuMjMzMDYgLTAuMTM4NzU5LC0wLjA1MTcgLTAuMjg5Mzc1LC0wLjA3NzUgLTAuNDUxNjUyLC0wLjA3NzUgeiBtIDAuNTUzNDU1LDAuNDY1NiBoIDAuMzk1MzI0IGMgMC4xMzY0MDgsMCAwLjI1MDM3NiwwLjAyMDUgMC4zNDIwOTgsMC4wNjA1IDAuMDk0MDcsMC4wMzc2IDAuMTY5MzgyLDAuMDkyNCAwLjIyNTgyNiwwLjE2NTM2IDAuMDU2NDUsMC4wNzI5IDAuMDk2MzcsMC4xNjExIDAuMTE5ODksMC4yNjQ1OCAwLjAyNTg3LDAuMTAxMTMgMC4wMzg3NiwwLjIxNTYyIDAuMDM4NzYsMC4zNDI2MiAwLDAuMTM4NzYgLTAuMDE3NDMsMC4yNTYgLTAuMDUyNzEsMC4zNTI0MyAtMC4wMzUyOCwwLjA5NjQgLTAuMDgyMjgsMC4xNzU1MyAtMC4xNDEwNzcsMC4yMzY2OCAtMC4wNTg3OSwwLjA1ODggLTAuMTI1NzU4LDAuMTAwNzQgLTAuMjAxMDIxLDAuMTI2NjEgLTAuMDc1MjYsMC4wMjU5IC0wLjE1MzA5NywwLjAzOTMgLTAuMjMzMDYxLDAuMDM5MyBsIC0wLjQ5NDAyNiwtNS4yZS00IHogbSAtNC42MjA5MDcsMC4xNTU1NSBoIDAuMDA2NyBsIDAuMzE3ODEsMC45MjM5NyBoIC0wLjY1MjY1NSB6IiAvPgogICAgPHBhdGgKICAgICAgIGlkPSJwYXRoMTQiCiAgICAgICBzdHlsZT0iZmlsbDojMzMzMzMzO2ZpbGwtb3BhY2l0eToxO3N0cm9rZS13aWR0aDowLjE5MTc4OSIKICAgICAgIGQ9Im0gODguMTY0NjQ2LDE5OS41MzAxNiBhIDUsNSAwIDAgMCAtNC45OTk2OTQsNS4wMDAyMSA1LDUgMCAwIDAgNC45OTk2OTQsNC45OTk2OSA1LDUgMCAwIDAgNS4wMDAyMTIsLTQuOTk5NjkgNSw1IDAgMCAwIC01LjAwMDIxMiwtNS4wMDAyMSB6IG0gMCwwLjc1MDM0IGEgNC4yNSw0LjI1IDAgMCAxIDQuMjQ5ODcsNC4yNDk4NyA0LjI1LDQuMjUgMCAwIDEgLTQuMjQ5ODcsNC4yNDk4NyA0LjI1LDQuMjUgMCAwIDEgLTQuMjQ5ODY5LC00LjI0OTg3IDQuMjUsNC4yNSAwIDAgMSA0LjI0OTg2OSwtNC4yNDk4NyB6IG0gLTEuMjczMzA3LDIuOTMyMTIgYyAtMC4xOTI4NTEsMCAtMC4zNjY3MSwwLjAzNDEgLTAuNTIxOTMyLDAuMTAyMzIgLTAuMTUyODcsMC4wNjgyIC0wLjI4MjI1NywwLjE2MjIxIC0wLjM4ODA5LDAuMjgyMTUgLTAuMTA1ODMyLDAuMTE5OTUgLTAuMTg2OTUxLDAuMjYwOTYgLTAuMjQzMzk2LDAuNDIzMjMgLTAuMDU2NDUsMC4xNTk5MyAtMC4wODQ3NSwwLjMzMzc5IC0wLjA4NDc1LDAuNTIxOTMgMCwwLjE4MzQ1IDAuMDI4MywwLjM1NTI5IDAuMDg0NzUsMC41MTUyMiAwLjA1NjQ1LDAuMTU3NTcgMC4xMzc1NjYsMC4yOTUzIDAuMjQzMzk2LDAuNDEyODkgMC4xMDU4MzMsMC4xMTc1OSAwLjIzNTIyLDAuMjEwMzMgMC4zODgwOSwwLjI3ODU0IDAuMTU1MjIyLDAuMDY1OSAwLjMyOTA4MSwwLjA5ODcgMC41MjE5MzIsMC4wOTg3IDAuMTk1MjAzLDAgMC4zNjkwNjIsLTAuMDMyOCAwLjUyMTkzMiwtMC4wOTg3IDAuMTUyODcsLTAuMDY4MiAwLjI4MjI1NywtMC4xNjA5NSAwLjM4ODA5LC0wLjI3ODU0IDAuMTA1ODMzLC0wLjExNzU5IDAuMTg2OTUxLC0wLjI1NTMyIDAuMjQzMzk2LC0wLjQxMjg5IDAuMDU2NDUsLTAuMTU5OTMgMC4wODQ3NSwtMC4zMzE3NyAwLjA4NDc1LC0wLjUxNTIyIDAsLTAuMTg4MTQgLTAuMDI4MywtMC4zNjIgLTAuMDg0NzUsLTAuNTIxOTMgLTAuMDU2NDUsLTAuMTYyMjcgLTAuMTM3NTY1LC0wLjMwMzI4IC0wLjI0MzM5NiwtMC40MjMyMyAtMC4xMDU4MzMsLTAuMTE5OTQgLTAuMjM1MjIsLTAuMjEzOTUgLTAuMzg4MDksLTAuMjgyMTUgLTAuMTUyODcsLTAuMDY4MiAtMC4zMjY3MjksLTAuMTAyMzIgLTAuNTIxOTMyLC0wLjEwMjMyIHogbSAxLjYxNTkyMiwwLjA1OTkgdiAyLjUxODcxIGggMC41NTM0NTUgdiAtMC45ODQ0MyBoIDAuNTUzOTcxIGMgMC4xMzg3NTksMCAwLjIzOTA5MiwwLjAzMDkgMC4zMDAyNCwwLjA5MiAwLjA2MTE1LDAuMDYxMSAwLjEwMTA3MywwLjE1NzY4IDAuMTE5ODg5LDAuMjg5MzkgMC4wMTQxMSwwLjEwMTEzIDAuMDI0NDcsMC4yMDY3NiAwLjAzMTUyLDAuMzE3MjkgMC4wMDcxLDAuMTEwNTQgMC4wMjU3NSwwLjIwNTgxIDAuMDU2MzMsMC4yODU3NyBoIDAuNTUzOTcyIGMgLTAuMDI1ODcsLTAuMDM1MyAtMC4wNDU4NCwtMC4wNzc3IC0wLjA1OTk0LC0wLjEyNzExIC0wLjAxMTc2LC0wLjA1MTcgLTAuMDIxMzcsLTAuMTA1ODIgLTAuMDI4NDIsLTAuMTYyMjcgLTAuMDA0NywtMC4wNTY1IC0wLjAwOCwtMC4xMTE4IC0wLjAxMDM0LC0wLjE2NTg4IC0wLjAwMjMsLTAuMDU0MSAtMC4wMDQ4LC0wLjEwMTA3IC0wLjAwNzIsLTAuMTQxMDggLTAuMDA0NywtMC4wNjM1IC0wLjAxMzgyLC0wLjEyNjY0IC0wLjAyNzkxLC0wLjE5MDE2IC0wLjAxMTc2LC0wLjA2MzUgLTAuMDMxNzIsLTAuMTIxNDEgLTAuMDU5OTQsLTAuMTczMTMgLTAuMDI4MjIsLTAuMDU0MSAtMC4wNjQ4NywtMC4wOTk4IC0wLjEwOTU1NCwtMC4xMzc0NiAtMC4wNDQ2OSwtMC4wNCAtMC4xMDEyOTcsLTAuMDY5NiAtMC4xNjk0OTksLTAuMDg4NCB2IC0wLjAwNyBjIDAuMTQxMTExLC0wLjA1NjUgMC4yNDIxOTMsLTAuMTM4ODUgMC4zMDMzNDEsLTAuMjQ3MDEgMC4wNjM1LC0wLjEwODE4IDAuMDk1NiwtMC4yMzYzMSAwLjA5NTYsLTAuMzg0NDggMCwtMC4wOTY0IC0wLjAxNzk1LC0wLjE4NTg5IC0wLjA1MzIzLC0wLjI2ODIgLTAuMDMyOTMsLTAuMDg0NyAtMC4wODE5NCwtMC4xNTg3MSAtMC4xNDc3OTUsLTAuMjIyMjEgLTAuMDYzNSwtMC4wNjM1IC0wLjE0MTMzOSwtMC4xMTMgLTAuMjMzMDYxLC0wLjE0ODMxIC0wLjA4OTM3LC0wLjAzNzYgLTAuMTkwNDUyLC0wLjA1NjMgLTAuMzAzMzQsLTAuMDU2MyB6IG0gLTEuNjE1OTIyLDAuNDA1NjYgYyAwLjEyNDY0OCwwIDAuMjMwMjc1LDAuMDI0NSAwLjMxNzI5MywwLjA3MzkgMC4wODcwMiwwLjA0NzEgMC4xNTc3ODEsMC4xMTIwMiAwLjIxMTg3NCwwLjE5NDMxIDAuMDU0MDksMC4wNzk5IDAuMDkyNzUsMC4xNzE0MyAwLjExNjI3MiwwLjI3NDkxIDAuMDI1ODcsMC4xMDM0OCAwLjAzODc2LDAuMjEwMzggMC4wMzg3NiwwLjMyMDkxIDAsMC4xMDU4NCAtMC4wMTI4OSwwLjIwOTQ1IC0wLjAzODc2LDAuMzEwNTggLTAuMDIzNTIsMC4wOTg4IC0wLjA2MjE4LDAuMTg4MjMgLTAuMTE2MjcyLDAuMjY4MiAtMC4wNTQwOSwwLjA4IC0wLjEyNDg1NiwwLjE0NDQgLTAuMjExODc0LDAuMTkzNzkgLTAuMDg3MDIsMC4wNDcxIC0wLjE5MjY0NSwwLjA3MDggLTAuMzE3MjkzLDAuMDcwOCAtMC4xMjQ2NDgsMCAtMC4yMzAyNzUsLTAuMDIzNyAtMC4zMTcyOTMsLTAuMDcwOCAtMC4wODcwMiwtMC4wNDk0IC0wLjE1Nzc4MiwtMC4xMTM4NCAtMC4yMTE4NzQsLTAuMTkzNzkgLTAuMDU0MDksLTAuMDggLTAuMDk0MDIsLTAuMTY5NDMgLTAuMTE5ODg5LC0wLjI2ODIgLTAuMDIzNTIsLTAuMTAxMTMgLTAuMDM1MTQsLTAuMjA0NzQgLTAuMDM1MTQsLTAuMzEwNTggMCwtMC4xMTA1MyAwLjAxMTYyLC0wLjIxNzQzIDAuMDM1MTQsLTAuMzIwOTEgMC4wMjU4NywtMC4xMDM0OCAwLjA2NTgsLTAuMTk0OTYgMC4xMTk4ODksLTAuMjc0OTEgMC4wNTQwOSwtMC4wODIzIDAuMTI0ODU3LC0wLjE0NzI3IDAuMjExODc0LC0wLjE5NDMxIDAuMDg3MDIsLTAuMDQ5NCAwLjE5MjY0NSwtMC4wNzM5IDAuMzE3MjkzLC0wLjA3MzkgeiBtIDIuMTY5Mzc3LDAuMDI0OCBoIDAuNjA3MTk4IGMgMC4xMjY5OTksMCAwLjIyMjI3MSwwLjAyODMgMC4yODU3NywwLjA4NDcgMC4wNjM1LDAuMDU0MSAwLjA5NTA4LDAuMTQyMjYgMC4wOTUwOCwwLjI2NDU4IDAsMC4xMjcgLTAuMDMxNTgsMC4yMTg0NyAtMC4wOTUwOCwwLjI3NDkyIC0wLjA2MzUsMC4wNTY1IC0wLjE1ODc3MSwwLjA4NDcgLTAuMjg1NzcsMC4wODQ3IGggLTAuNjA3MTk4IHoiIC8+CiAgICA8cGF0aAogICAgICAgaWQ9InBhdGgxIgogICAgICAgc3R5bGU9ImZpbGw6IzMzMzMzMztmaWxsLW9wYWNpdHk6MTtzdHJva2Utd2lkdGg6MC4wMTYyNDM3IgogICAgICAgZD0ibSA3My44OTU2MSwxOTQuNDMwMDEgYyAtMC4yODI2MjEsMC4wMDQgLTAuNDQ0Nzg4LDAuMjE1NTMgLTAuNDYxMDQyLDAuNTIxMjYgLTAuMDUyNzcsMC45OTI0MyAwLjMwODQ3OSwxLjUwOTg0IDAuMjQ0Njc2LDEuODIwNjcgLTAuMDAyMiwwLjAwOSAtMC4wMDMsMC4wMTgxIC0wLjAwNDQsMC4wMjcyIC0wLjEyNTQyNSwwLjMxMTk4IC0wLjE5MDIyNSwwLjY0MDIgLTAuMTkxNjg5LDAuOTcwOTkgNS40MWUtNCwwLjAxMjcgMC4wMDE1LDAuMDI1NiAwLjAwMywwLjAzODQgMC4wOTAzLDAuMjA2ODYgMC4zMTAzOTQsMC4xMTgzMiAwLjMzNDQyMywtMC4wMDYgLTcuNGUtNCwtMC4wMTA5IC0wLjAwMTUsLTAuMDIxOSAtMC4wMDMsLTAuMDMyOCAwLjAwMTUsLTAuMzE2NzUgMC4wNjgsLTAuNjMwNjggMC4xOTU2MDUsLTAuOTI3MDMgMC4wNTc4OCwtMC4yMTQ1NiAwLjAxLC0wLjQwNzA3IC0wLjA5MTcyLC0wLjY1Njk0IC0wLjEyODEzLC0wLjMxNDc0IC0wLjE0OTgwMSwtMC45NjA0MyAtMC4xNDM0NTksLTEuMTg3ODQgMC4wMDMsLTAuMTE1NDMgMC4wOTk5NywtMC4yNDgwNCAwLjIwODQxNCwtMC4yMDg0MSBsIDEuMTUxNDI0LDAuNDIwNzMgYyAtMC4xNjI1NjUsMC4wNjY5IC0wLjQ4Mjg1NCwwLjMxMjkgLTAuNDk5MjEyLDAuNDA5MjIgLTAuMDE2NywwLjA5ODIgMC4wNzc0MSwwLjI2MTIyIDAuMjAyMTYxLDAuMTY0ODIgMC41NTE3OTQsLTAuNDMyMjQgMS4yNjQ1MzUsLTAuNjcyNzkgMi4wMDQyOTIsLTAuNjc2OTkgdiA0ZS01IGMgMC4wMDMsLTEuMmUtNCAwLjAwNjYsLTJlLTQgMC4wMTAwNSwtMi41ZS00IDAuMDAzLDVlLTUgMC4wMDY2LDEuM2UtNCAwLjAxLDIuNWUtNCB2IC00ZS01IGMgMC43Mzk3NTYsMC4wMDUgMS40NTI0OTgsMC4yNDQ3NSAyLjAwNDI4NSwwLjY3Njk5IDAuMTI0NzUsMC4wOTY0IDAuMjE4ODQ5LC0wLjA2NjYgMC4yMDIxNjgsLTAuMTY0ODIgLTAuMDE2MzMsLTAuMDk2MyAtMC4zMzY2NTQsLTAuMzQyMjggLTAuNDk5MjEzLC0wLjQwOTIyIGwgMS4xNTE0MTgsLTAuNDIwNzMgYyAwLjEwODQ1NCwtMC4wMzk2IDAuMjA1MTk5LDAuMDkzIDAuMjA4NDE0LDAuMjA4NDEgMC4wMDY2LDAuMjI3NDEgLTAuMDE1MywwLjg3MzEgLTAuMTQzNDU5LDEuMTg3ODQgLTAuMTAxNzEyLDAuMjQ5ODcgLTAuMTQ5NjE1LDAuNDQyMzggLTAuMDkxNzEsMC42NTY5NCAwLjEyNzU4MiwwLjI5NjM1IDAuMTkzODI0LDAuNjEwMjggMC4xOTU1OTgsMC45MjcwMyAtNS40ZS00LDAuMDExIC0wLjAwMTUsMC4wMjE5IC0wLjAwMywwLjAzMjggMC4wMjQwMywwLjEyMzg5IDAuMjQ0MTIxLDAuMjEyNDIgMC4zMzQ0MTUsMC4wMDYgNy4zOWUtNCwtMC4wMTI3IDAuMDAxNSwtMC4wMjU2IDAuMDAzLC0wLjAzODQgLTAuMDAxNSwtMC4zMzA3OSAtMC4wNjYyMywtMC42NTkwMSAtMC4xOTE2OCwtMC45NzA5OSAtMC4wMDE1LC0wLjAwOSAtMC4wMDIyLC0wLjAxNzcgLTAuMDA0NCwtMC4wMjcyIC0wLjA2Mzc5LC0wLjMxMDgzIDAuMjk3NDQ0LC0wLjgyODI0IDAuMjQ0Njc2LC0xLjgyMDY3IC0wLjAxNzM3LC0wLjMyNjExIC0wLjIwMDY5OCwtMC41NDUzMyAtMC41MTkxNzYsLTAuNTE5MTkgdiAyZS01IGMgLTAuMTAyNzMzLC0wLjAxIC0xLjIzOTkwOCwwLjQxNDgxIC0xLjY0MDE3MiwwLjYwMDAyIC0wLjM5NzU2NiwtMC4xNDE4MyAtMC44MjIzNDYsLTAuMjE1NiAtMS4yNTE0ODgsLTAuMjE3NzkgdiAtM2UtNSBsIC0wLjAxLC0xLjllLTQgLTAuMDEsMS45ZS00IHYgM2UtNSBjIC0wLjQyOTE0OSwwLjAwMiAtMC44NTM5MzEsMC4wNzYgLTEuMjUxNDg5LDAuMjE3NzkgLTAuNDAwMjY0LC0wLjE4NTIxIC0xLjUzNzQ0NiwtMC42MDk4NyAtMS42NDAxNzgsLTAuNjAwMDIgdiAtMmUtNSBjIC0wLjAxOTg4LC0wLjAwMiAtMC4wMzkzMywtMC4wMDIgLTAuMDU4MSwtMC4wMDIgeiBtIDEuODg3NzgzLDIuMzgxOSBhIDAuMzgxNjgyMTEsMC4zODE2ODIxMSAwIDAgMCAtMC4zODE2OTEsMC4zODE2OCAwLjM4MTY4MjExLDAuMzgxNjgyMTEgMCAwIDAgMC4zODE2OTEsMC4zODE3IDAuMzgxNjgyMTEsMC4zODE2ODIxMSAwIDAgMCAwLjM4MTY2LC0wLjM4MTcgMC4zODE2ODIxMSwwLjM4MTY4MjExIDAgMCAwIC0wLjM4MTY2LC0wLjM4MTY4IHogbSAyLjE0NDA5MSwwIGEgMC4zODE2ODIxMSwwLjM4MTY4MjExIDAgMCAwIC0wLjM4MTY5LDAuMzgxNjggMC4zODE2ODIxMSwwLjM4MTY4MjExIDAgMCAwIDAuMzgxNjksMC4zODE3IDAuMzgxNjgyMTEsMC4zODE2ODIxMSAwIDAgMCAwLjM4MTY1OSwtMC4zODE3IDAuMzgxNjgyMTEsMC4zODE2ODIxMSAwIDAgMCAtMC4zODE2NTksLTAuMzgxNjggeiBtIC01LjAyMDU0MSwxLjE1MTM4IGMgLTAuMDkxNDcsLTQuNWUtNCAtMC4xNzA4OCwwLjA2NzkgLTAuMTgyMzA3LDAuMTYwNTIgLTAuMDEyMiwwLjA5ODggMC4wNTc3MywwLjE4NjggMC4xNTY3MzMsMC4xOTcyNSBsIDEuODM5MzYxLDAuMTk0MDIgYyAwLjA5OTAyLDAuMDEwNCAwLjE4ODU2MiwtMC4wNjA3IDAuMjAwNzU3LC0wLjE1OTU0IDAuMDEyMiwtMC4wOTg4IC0wLjA1NzczLC0wLjE4Njc2IC0wLjE1Njc0MSwtMC4xOTcyIGwgLTEuODM5MzUzLC0wLjE5NDAyIGMgLTAuMDA1OSwtNS41ZS00IC0wLjAxMjM1LC03LjRlLTQgLTAuMDE4NDgsLTcuNGUtNCB6IG0gNy44OTY5NTMsMCBjIC0wLjAwNTksM2UtNSAtMC4wMTIyNywzLjhlLTQgLTAuMDE4NDgsNy40ZS00IGwgLTEuODM5MzU0LDAuMTk0MDEgYyAtMC4wOTkwMiwwLjAxMDQgLTAuMTY4OTM3LDAuMDk4NCAtMC4xNTY3NDgsMC4xOTcyMiAwLjAxMjIsMC4wOTg4IDAuMTAxNzQsMC4xNjk5NyAwLjIwMDc2NCwwLjE1OTUzIGwgMS44MzkzNTQsLTAuMTk0MDMgYyAwLjA5OTAyLC0wLjAxMDQgMC4xNjg5MzUsLTAuMDk4NCAwLjE1Njc0LC0wLjE5NzIyIC0wLjAxMTM5LC0wLjA5MjYgLTAuMDkwODUsLTAuMTYwOTggLTAuMTgyMzE1LC0wLjE2MDUzIHogbSAtMy45NTg1LDAuMTM3NDUgdiAxLjhlLTQgbCAtMC4zNDY0ODMsMC4wMDMgYyAtMC4xMTQzNzQsMC4wMTQzIC0wLjI0MTk0MiwwLjE2ODIyIC0wLjE4NDc0NywwLjMxNjkxIGwgMC4zNDQ4NDMsMC41OTg5NSBjIDAuMDQyNjUsMC4wNTg2IDAuMDk2MTUsMC4xMDM1NiAwLjE4NjM4NywwLjExMTgzIHYgMC4wMDIgYyAwLjAwMzcsLTEuNGUtNCAwLjAwNjYsLTUuNWUtNCAwLjAxLC03LjRlLTQgMC4wMDMsMS43ZS00IDAuMDA2Niw1LjJlLTQgMC4wMSw3LjRlLTQgdiAtMC4wMDIgYyAwLjA5MDI1LC0wLjAwOCAwLjE0Mzc3OCwtMC4wNTMyIDAuMTg2Mzg4LC0wLjExMTgzIGwgMC4zNDQ4NDMsLTAuNTk4OTUgYyAwLjA1NzIxLC0wLjE0ODY5IC0wLjA3MDM2LC0wLjMwMjYgLTAuMTg0NzQ3LC0wLjMxNjkxIGwgLTAuMzQ2NDg0LC0wLjAwMyB2IC0xLjhlLTQgbCAtMC4wMSwxLjNlLTQgeiBtIDAsMC4zMzUgaCAwLjAyMDEgbCAwLjEzNTgwMyw3ZS01IC0wLjE0NTgyNSwwLjI1OTM3IC0wLjE0NTgyNCwtMC4yNTkzNyB6IG0gLTEuMDQ3MzEsMC4xNDQ5MiBjIC0wLjAxMTk4LC01LjJlLTQgLTAuMDI0MDksMS4yZS00IC0wLjAzNjQ0LDAuMDAyIGwgLTMuNzUyMzE4LDAuNTk1MTcgYyAtMC4wOTg1OSwwLjAxNTYgLTAuMTY2MzU3LDAuMTA3NzQgLTAuMTUxOTc0LDAuMjA2NTEgMC4wMTQ0MSwwLjA5ODggMC4xMDUzMjgsMC4xNjU3IDAuMjAzOTEzLDAuMTUwMDcgbCAzLjc1MjI4OSwtMC41OTUxOCBjIDAuMDk4NTgsLTAuMDE1NyAwLjE2NjM5MywtMC4xMDc3MiAwLjE1MjAxLC0wLjIwNjUxIC0wLjAxMjY0LC0wLjA4NjQgLTAuMDgzODIsLTAuMTQ4NDkgLTAuMTY3NDU5LC0wLjE1MjE2IHogbSAyLjExNDY3NSwwIGMgLTAuMDgzNjYsMC4wMDQgLTAuMTU0ODcxLDAuMDY1NyAtMC4xNjc0NTksMC4xNTIxNyAtMC4wMTQzNCwwLjA5ODggMC4wNTMzNiwwLjE5MDg2IDAuMTUyMDExLDAuMjA2NSBsIDMuNzUyMjgsMC41OTUxOCBjIDAuMDk4NTksMC4wMTU3IDAuMTg5NTM2LC0wLjA1MTMgMC4yMDM5MiwtMC4xNTAwNyAwLjAxNDM0LC0wLjA5ODggLTAuMDUzMzYsLTAuMTkwODcgLTAuMTUxOTc0LC0wLjIwNjUxIGwgLTMuNzUyMzI0LC0wLjU5NTE3IGMgLTAuMDEyMzQsLTAuMDAyIC0wLjAyNDQ3LC0wLjAwMyAtMC4wMzY0NCwtMC4wMDIgeiBtIC0yLjgxNTIwNCwwLjgyMDEzIGMgLTAuMDI2OTEsMy40ZS00IC0wLjA1NDMyLDAuMDA3IC0wLjA3OTc4LDAuMDIxNyBsIC0xLjM0MzAzOCwwLjc1OTk3IGMgLTAuMDgxNTksMC4wNDYyIC0wLjExMjIzMSwwLjE1MDE1IC0wLjA2ODc0LDAuMjMzMiAwLjA0MzU0LDAuMDgzIDAuMTQ0MjQxLDAuMTEyNyAwLjIyNTgzNSwwLjA2NjUgbCAxLjM0MzAzOSwtMC43NTk5MyBjIDAuMDgxNTksLTAuMDQ2MiAwLjExMjIzLC0wLjE1MDIgMC4wNjg3NCwtMC4yMzMyMiAtMC4wMjk5NCwtMC4wNTcxIC0wLjA4Njg1LC0wLjA4ODkgLTAuMTQ2MDUzLC0wLjA4ODMgeiBtIDMuNTE1NzI2LDAgYyAtMC4wNTkyMSwtNS4yZS00IC0wLjExNjEyNiwwLjAzMTIgLTAuMTQ2MDUyLDAuMDg4MyAtMC4wNDM1NCwwLjA4MyAtMC4wMTI4NiwwLjE4NzA4IDAuMDY4NzQsMC4yMzMyNCBsIDEuMzQzMDMxLDAuNzU5OTUgYyAwLjA4MTYsMC4wNDYyIDAuMTgyMzE2LDAuMDE2NSAwLjIyNTg0MywtMC4wNjY1IDAuMDQzNTQsLTAuMDgzIDAuMDEyODYsLTAuMTg3MDQgLTAuMDY4NzQsLTAuMjMzMiBsIC0xLjM0MzAzOSwtMC43NTk5NiBjIC0wLjAyNTUsLTAuMDE0NCAtMC4wNTI4NCwtMC4wMjE0IC0wLjA3OTc5LC0wLjAyMTcgeiBtIC0zLjU2NDcwOSwwLjUzMTY1IGMgLTAuMTQ0ODU3LDAuMDA2IC0wLjIwODM0LDAuMjUwNjQgLTAuMDY3NzgsMC4yOTE5OCAwLjU1NDQ0NywwLjMyNjE5IDEuMjA2ODg5LDAuNTAwNzUgMS44NzQ2MzIsMC41MDE1MyAwLjY2Nzc0MiwtNS4yZS00IDEuMzIwMTkxLC0wLjE3NTM0IDEuODc0NjMyLC0wLjUwMTUzIDAuMTYwNjM2LC0wLjA0NzMgMC4wNTQ3NywtMC4zNjEyNCAtMC4xMzQ0NzksLTAuMjc4MTUgLTAuNTA2NjQ4LDAuMzEzMDkgLTEuMTEwNDE4LDAuNDgyNDUgLTEuNzMwMTI0LDAuNDg2MDQgdiAtMi43ZS00IGMgLTAuMDAzLDJlLTQgLTAuMDA2Niw0LjVlLTQgLTAuMDEsNS41ZS00IC0wLjAwMywtMmUtNCAtMC4wMDY2LC00LjVlLTQgLTAuMDEsLTUuNWUtNCB2IDIuN2UtNCBjIC0wLjYxOTcxMywtMC4wMDQgLTEuMjIzNDc1LC0wLjE3Mjk1IC0xLjczMDEyNCwtMC40ODYwNCAtMC4wMjM2NiwtMC4wMTAzIC0wLjA0NjA1LC0wLjAxNDYgLTAuMDY2NjcsLTAuMDEzOCB6IiAvPgogICAgPHBhdGgKICAgICAgIGlkPSJwYXRoMjQiCiAgICAgICBzdHlsZT0iZmlsbDojMzMzMzMzO2ZpbGwtb3BhY2l0eToxO3N0cm9rZS13aWR0aDowLjAyNjg0NDkiCiAgICAgICBkPSJtIDk5LjE1MDA2MywyMDcuOTQ2NzMgYyAtMC42MzgxMTcsOC4zZS00IC0xLjI3NDEwOSwwLjI4ODk4IC0xLjY3ODcwMSwwLjc4NTczIC0wLjUxMzg3NiwwLjU4OSAtMC43Nzg5MjYsMS4zNDAyMSAtMS4wNjQ3MTgsMi4wNTI5MSAtMC4xNDk2OTEsMC4zODI0NSAtMC4zMTg0OTIsMC43NjI0MSAtMC40MDkyODMsMS4xNjQ4NyAtMC4wNjAyNSwwLjMzMjYzIC0wLjA0NTA4LDAuNjc0NzEgLTAuMDA5NiwxLjAwOTI1IDAuMDcwNDIsMC41NzQ4MSAwLjMwNTU2NywxLjE1MzE1IDAuNzU0MzM0LDEuNTM1NCAwLjQ0Nzg5MiwwLjM5MzQ3IDEuMDQyMjAxLDAuNTc1NzggMS42MjczNjgsMC42MjY3NyAwLjUxMzU0MiwwLjA0OCAxLjAzMDY1MSwwLjAzMTggMS41NDUzMSwwLjAxNDkgMC42MjA1MDcsLTAuMDM4NyAxLjI1OTYzNywtMC4yMDA3NSAxLjc0NzM5NywtMC42MDM5MSAwLjQ0NjE5LC0wLjM2Nzc0IDAuNzA2MDksLTAuOTIyODkgMC43ODM3OSwtMS40ODkxIDAuMDUxNywtMC4zNiAwLjA2MjUsLTAuNzI5NjkgMC4wMDIsLTEuMDg5MTEgLTAuMTA1MDcsLTAuNDg2MTQgLTAuMzI4NDMsLTAuOTM0NDkgLTAuNDk5NzEsLTEuMzk4ODIgLTAuMjY5NDcsLTAuNjg3NjggLTAuNTU4ODgsLTEuMzkzNDMgLTEuMDc0ODEsLTEuOTM3MjQgLTAuMzcyMjMsLTAuMzg4ODggLTAuODkwODk3LC0wLjYzNDM5IC0xLjQyOTQzNCwtMC42NjM3MyAtMC4wOTc4NiwtMC4wMDkgLTAuMTk2MjE3LC0wLjAwOSAtMC4yOTQ0MDksLTAuMDA4IHogbSAwLjAwODgsMC40ODMzMSBjIDAuMDg3MzIsLTguNGUtNCAwLjE3NDc4MywyLjFlLTQgMC4yNjE4NDIsMC4wMDcgMC40NTYzMzgsMC4wMjM2IDAuODg2ODU1LDAuMjU2MiAxLjE4MzA2NSwwLjU5OTY2IDAuNDgwNjMsMC41NjUwNCAwLjcyNTcsMS4yNzY0OSAwLjk5NzgzLDEuOTU0NzUgMC4xNDE4OSwwLjM4MzU2IDAuMzI5NTQsMC43NTM1MSAwLjM4ODg4LDEuMTU5NTIgMC4wMzk1LDAuNDgxNSAwLjAwMiwwLjk4Njk1IC0wLjE5OTk3LDEuNDM2OTQgLTAuMTUyMzcsMC4zMjg1NSAtMC40MDQ3MSwwLjU5NTc4IC0wLjcyMzYsMC43NjQzOSAtMC40MjQ4NSwwLjIyOTM4IC0wLjkwNDE2LDAuMjkzNjcgLTEuMzgwNjk3LDAuMzEwMDMgLTAuNDUzNTMzLDAuMDA1IC0wLjkxNTI5MiwwLjAxOSAtMS4zNjMwMDEsLTAuMDMxOSAtMC4zODIsLTAuMDQ0MiAtMC43NTkxMDgsLTAuMTUxMTQgLTEuMDgwOTg0LC0wLjM2MDU4IC0wLjQxNTE5MiwtMC4yNjE2NiAtMC42NjA4NzUsLTAuNzI1OTggLTAuNzQ4Nzc1LC0xLjE5ODc5IC0wLjA1MywtMC4zMjUxNCAtMC4wNzE2NywtMC42NTk3MSAtMC4wMjkzMywtMC45ODA0MiAwLjA2ODkyLC0wLjM0MzgyIDAuMjEwMDQyLC0wLjY2NjkgMC4zMzkxMjYsLTAuOTk0MDQgMC4yNzI2OTIsLTAuNjY3NTkgMC41MDExLC0xLjM3MTA0IDAuOTQ5NjkyLC0xLjk0NzA5IDAuMzE3NTkyLC0wLjQ0NjE5IDAuODU3NTY3LC0wLjcyMzQyIDEuNDA1OTAxLC0wLjcxOTg5IHogbSAtMi41Mjg3NjgsMC41ODU1NiBjIC0yLjcxMzAyNywxLjYyODMgLTIuMzgwNjE5LDIuNzc5MzggLTIuNDA1MTk0LDIuOTA2MzIgMC4xMjQwNDIsMS4zMzg3OCAxLjIzMjg3NiwwLjg1Nzc0IDEuMjMyODc2LDAuODU3NzQgLTAuMTM1NjQyLC0wLjg5MTM2IDAuNDQ1NjY3LC0xLjgxNjY1IDEuMTcyMzE4LC0zLjc2NDA2IHogbSA1LjE4NjIxNSwwIGMgMC43MjY2NSwxLjk0NzQxIDEuMzA3OTUsMi44NzI3IDEuMTcyMzEsMy43NjQwNiAwLDAgMS4xMDg4NCwwLjQ4MTA0IDEuMjMyODcsLTAuODU3NzQgLTAuMDI0NiwtMC4xMjY5NCAwLjMwNzg0LC0xLjI3ODAyIC0yLjQwNTE4LC0yLjkwNjMyIHogbSAtMy43OTIxMTQsMS4zMzg2OCBjIC0wLjIwMjcyNiwwIC0wLjM2NzA2NywwLjE2NDM0IC0wLjM2NzA3NiwwLjM2NzA3IC0xLjZlLTUsMC4yMDI3NSAwLjE2NDMyNSwwLjM2NzEyIDAuMzY3MDc2LDAuMzY3MTIgMC4yMDI3NDEsMCAwLjM2NzA5MSwtMC4xNjQzNyAwLjM2NzA3NSwtMC4zNjcxMiAtMS43ZS01LC0wLjIwMjczIC0wLjE2NDM1OSwtMC4zNjcwNyAtMC4zNjcwNzUsLTAuMzY3MDcgeiBtIDIuMzk4MDA0LDAgYyAtMC4yMDI3MywwIC0wLjM2NzA2LDAuMTY0MzQgLTAuMzY3MDcsMC4zNjcwNyAtMmUtNSwwLjIwMjc1IDAuMTY0MzIsMC4zNjcxMiAwLjM2NzA3LDAuMzY3MTIgMC4yMDI3NCwwIDAuMzY3MDksLTAuMTY0MzcgMC4zNjcwOCwtMC4zNjcxMiAtMWUtNSwtMC4yMDI3MyAtMC4xNjQzNiwtMC4zNjcwNyAtMC4zNjcwOCwtMC4zNjcwNyB6IG0gLTEuMjY5MTU0LDEuNDE0MjQgdiA1ZS01IGMgLTAuNjk5OTMzLDAuMDEzMSAtMC42MjM5OTIsMC41MDQwNyAtMC42MjM5OTIsMC41MDQwNyAwLjAwOTcsMC40NDU2OCAwLjQ3NDc2NywwLjgzMzI0IDAuNDc0NzY3LDAuODMzMjQgLTAuNDc0NzQyLDAuNTUyMjUgLTAuODQ5Njc1LDAuMjM4MjQgLTAuODY5MDUsMC4xODAxIC0wLjExMDYsLTAuMjAzNDYgLTAuMzgyOTU5LC0wLjE4Nzg0IC0wLjM4Mjk1OSwwLjEwMjgyIDAuMTg1MTUsMC43MDcyOCAxLjIwOTc5MywwLjQ3Mjc4IDEuNDcxMzg0LDAuMTE0MyAwLjI2MTU4NywwLjM1ODQ4IDEuMjg2MjM0LDAuNTkyOTggMS40NzEzODQsLTAuMTE0MyAwLC0wLjI5MDY2IC0wLjI3MjM2LC0wLjMwNjI4IC0wLjM4Mjk2LC0wLjEwMjgyIC0wLjAxOTMsMC4wNTgyIC0wLjM5NDMwNywwLjM3MjE1IC0wLjg2OTA0OCwtMC4xODAxIDAsMCAwLjQ2NTA3MSwtMC4zODc1NiAwLjQ3NDc2MSwtMC44MzMyNCAwLDAgMC4wNzU5LC0wLjQ5MTAxIC0wLjYyMzk3OCwtMC41MDQwNyB2IC01ZS01IGMgLTAuMDIyNTgsLTQuMWUtNCAtMC4wNDU5MiwtMy4xZS00IC0wLjA3MDE3LDNlLTQgLTAuMDI0MjUsLTUuNmUtNCAtMC4wNDc1OCwtNS42ZS00IC0wLjA3MDE3LC0zZS00IHoiIC8+CiAgICA8cmVjdAogICAgICAgc3R5bGU9ImZpbGw6IzMzMzMzMztmaWxsLW9wYWNpdHk6MTtzdHJva2Utd2lkdGg6MC4yNjQ1ODMiCiAgICAgICBpZD0icmVjdDE0IgogICAgICAgd2lkdGg9IjEuMDU3NjUwOCIKICAgICAgIGhlaWdodD0iMTAuMjU1MTQyIgogICAgICAgeD0iNTMuMTc5NjExIgogICAgICAgeT0iMTg4LjQyOTUiCiAgICAgICByeT0iMC41Mjg4MjU0IiAvPgogICAgPHBhdGgKICAgICAgIGlkPSJyZWN0MTQtMCIKICAgICAgIHN0eWxlPSJmaWxsOiMzMzMzMzM7ZmlsbC1vcGFjaXR5OjE7c3Ryb2tlLXdpZHRoOjAuMjY0NTgzIgogICAgICAgZD0ibSA4OC4xNjUxNjEsMjE3LjcxMTc4IGMgLTAuMjkyOTY5LDAgLTAuNTI5MTY3LDAuMjM1NjggLTAuNTI5MTY3LDAuNTI4NjUgdiA0LjA5ODQ1IGggMS4wNTc4MTcgdiAtNC4wOTg0NSBjIDAsLTAuMjkyOTcgLTAuMjM1NjgxLC0wLjUyODY1IC0wLjUyODY1LC0wLjUyODY1IHoiIC8+CiAgICA8cmVjdAogICAgICAgc3R5bGU9ImZpbGw6IzMzMzMzMztmaWxsLW9wYWNpdHk6MTtzdHJva2Utd2lkdGg6MC4yNjQ1ODMiCiAgICAgICBpZD0icmVjdDE1IgogICAgICAgd2lkdGg9IjEuMDU3NjUwOCIKICAgICAgIGhlaWdodD0iMTAuMjU1MTQyIgogICAgICAgeD0iLTIwNS4xMjE4NCIKICAgICAgIHk9IjU4Ljc4NjkyMiIKICAgICAgIHJ5PSIwLjUyODgyNTQiCiAgICAgICB0cmFuc2Zvcm09InJvdGF0ZSgtOTAuMTI0MjgyKSIgLz4KICAgIDxyZWN0CiAgICAgICBzdHlsZT0iZmlsbDojZjlmOWY5O2ZpbGwtb3BhY2l0eToxO3N0cm9rZS13aWR0aDowLjUxNzU0OSIKICAgICAgIGlkPSJyZWN0MTciCiAgICAgICB3aWR0aD0iNzUiCiAgICAgICBoZWlnaHQ9IjM0IgogICAgICAgeD0iMzYuNzE4Njg5IgogICAgICAgeT0iMjI0LjM2ODIzIiAvPgogICAgPHJlY3QKICAgICAgIHN0eWxlPSJmaWxsOiNlY2VjZWM7ZmlsbC1vcGFjaXR5OjE7c3Ryb2tlLXdpZHRoOjAuMTQ5MzQ5IgogICAgICAgaWQ9InJlY3QxOCIKICAgICAgIHdpZHRoPSI0IgogICAgICAgaGVpZ2h0PSIzNCIKICAgICAgIHg9IjEwNy43MTg2OSIKICAgICAgIHk9IjIyNC4zNjgyMyIgLz4KICAgIDxwYXRoCiAgICAgICBpZD0icmVjdDE2IgogICAgICAgc3R5bGU9ImZpbGw6Izk5OTk5OTtmaWxsLW9wYWNpdHk6MTtzdHJva2Utd2lkdGg6MS4yNTIwMSIKICAgICAgIGQ9Im0gMzYuNzE4Njg5LDIyNC4zNjgyMiB2IDMzLjk5OTk5IEggMzcuMjE4NCB2IC0zMy41MDAyOCBoIDc0LjQ5OTg1IHYgLTAuNDk5NzEgeiIgLz4KICAgIDxwYXRoCiAgICAgICBpZD0icGF0aDE3IgogICAgICAgc3R5bGU9ImZpbGw6I2ZmZmZmZjtmaWxsLW9wYWNpdHk6MTtzdHJva2Utd2lkdGg6MS4yNTIwMSIKICAgICAgIGQ9Im0gMTExLjcxODI1LDI1OC4zNjgyMSB2IC0zMy45OTk5OSBoIC0wLjQ5OTcxIFYgMjU3Ljg2ODUgSCAzNi43MTg2ODkgdiAwLjQ5OTcxIHoiIC8+CiAgICA8cGF0aAogICAgICAgaWQ9InBhdGgyNSIKICAgICAgIHN0eWxlPSJmb250LXdlaWdodDpib2xkO2ZvbnQtc2l6ZTo0LjkzODg5cHg7Zm9udC1mYW1pbHk6J0NvdXJpZXIgTmV3JzstaW5rc2NhcGUtZm9udC1zcGVjaWZpY2F0aW9uOidDb3VyaWVyIE5ldywgQm9sZCc7ZmlsbDojMzMzMzMzO3N0cm9rZS13aWR0aDowLjM0OTE0OSIKICAgICAgIGQ9Im0gODAuMjIzNTQ1LDIzMy43MjgzOSBjIC0wLjA5NzU4LDAgLTAuMTc3MjkzLDAuMDM0MiAtMC4yMzg4MjQsMC4xMDIyMiAtMC4wNTk0MSwwLjA2NTggLTAuMDg5NTUsMC4xNzcxNCAtMC4wODk1NSwwLjMzNDEzIHYgMC41ODg0NSBoIC0wLjIzNDgwNiBjIC0wLjE1Njk5OSwwIC0wLjI2OTY3NiwwLjAzMDggLTAuMzM3NTY3LDAuMDkyNSAtMC4wNjU3NywwLjA1OTQgLTAuMDk4MTcsMC4xMzcwNCAtMC4wOTgxNywwLjIzMjUyIDAsMC4wOTc3IDAuMDMyNCwwLjE3Njc1IDAuMDk4MTcsMC4yMzgyNSAwLjA2NzksMC4wNTk0IDAuMTgwNTcyLDAuMDg5IDAuMzM3NTY3LDAuMDg5IGggMC4yMzQ4MDYgdiAxLjQzNTI0IGMgMCwwLjI1NDU4IDAuMTAxNTc0LDAuNDY5NzggMC4zMDMxMjEsMC42NDU4NiAwLjIwMzY3MSwwLjE3Mzk2IDAuNTA3NTkzLDAuMjYxMjIgMC45MTI4MTEsMC4yNjEyMiAwLjIxMDAzMywwIDAuNDY3Nzk5LC0wLjA0MTIgMC43NzMzMDUsLTAuMTI0MDIgMC4zMDc2MjgsLTAuMDg0OSAwLjUxMzE5NywtMC4xNzc1NSAwLjYxNzE1MywtMC4yNzcyOCAwLjA2NzkxLC0wLjA2MTUgMC4xMDIxOTMsLTAuMTM0NDIgMC4xMDIxOTMsLTAuMjE5MzIgMCwtMC4wOTEyIC0wLjAzMTY0LC0wLjE2ODggLTAuMDk1MywtMC4yMzI1IC0wLjA2MTU0LC0wLjA2MzcgLTAuMTM0NDQzLC0wLjA5NTMgLTAuMjE5MzA1LC0wLjA5NTMgLTAuMDYxNTEsMCAtMC4xNDcyNzMsMC4wMjgxIC0wLjI1NTQ3MSwwLjA4MzMgLTAuMjgyMTcsMC4xNDIxMyAtMC41ODk0ODcsMC4yMTI0MSAtMC45MjI1NzEsMC4yMTI0MSAtMC4yMjkxMjksMCAtMC4zODc5NjYsLTAuMDM0NSAtMC40NzcwNzMsLTAuMTA0NDggLTAuMDU3MjgsLTAuMDQ0NiAtMC4wODYxMSwtMC4xMzcyNyAtMC4wODYxMSwtMC4yNzcyOCB2IC0xLjMwNzggaCAxLjIwNjE3NSBjIDAuMTU2OTk0LDAgMC4yNjgzNTMsLTAuMDI5MSAwLjMzNDEyMywtMC4wODg0IDAuMDY3ODksLTAuMDYxNSAwLjEwMTYxNSwtMC4xMzk5MiAwLjEwMTYxNSwtMC4yMzUzOSAwLC0wLjA5NzcgLTAuMDMzNzMsLTAuMTc2NTcgLTAuMTAxNjE1LC0wLjIzNTk2IC0wLjA2NTc3LC0wLjA2MTUgLTAuMTc3MTI5LC0wLjA5MjUgLTAuMzM0MTIzLC0wLjA5MjUgSCA4MC41NDc5MiB2IC0wLjU4ODUgYyAwLC0wLjE1Njk3IC0wLjAzMDMyLC0wLjI2ODMzIC0wLjA5MTg2LC0wLjMzNDEzIC0wLjA1OTQyLC0wLjA2NzkgLTAuMTM3MDM5LC0wLjEwMjIyIC0wLjIzMjUxLC0wLjEwMjIyIHogbSAtMzQuODk4MDg1LDAuOTI5NDYgYyAtMC40NDM0MDcsMCAtMC44MTQ2MDMsMC4xNDkwNSAtMS4xMTM3NDMsMC40NDYwOCAtMC4yOTkxNDEsMC4yOTQ4OSAtMC40NDgzNjgsMC42NjA2MiAtMC40NDgzNjgsMS4wOTc2NiAwLDAuNDM0OTMgMC4xNDkyMjcsMC44MDA2NSAwLjQ0ODM2OCwxLjA5NzY3IDAuMjk5MTQsMC4yOTQ5IDAuNjcwMzM2LDAuNDQyMDUgMS4xMTM3NDMsMC40NDIwNSAwLjE1Njk5NCwwIDAuMzA5NjE3LC0wLjAyMjcgMC40NTgxMjgsLTAuMDY5NCAwLjE1MDYzMiwtMC4wNDY3IDAuMjk4MzYyLC0wLjExNjc2IDAuNDQyNjI4LC0wLjIxMDEyIHYgMC4zMTgwNCBjIDAsMC4xNjU0OCAtMC4wNTUwMSwwLjMwMjI4IC0wLjE2NTM0MSwwLjQxMDQ4IC0wLjExMDMxNSwwLjEwODEgLTAuMjY1MDE1LDAuMTYyNDggLTAuNDY0NDQyLDAuMTYyNDggaCAtMC43MTk5MTQgYyAtMC4xNTY5OTgsMCAtMC4yNjg1MywwLjAyOTggLTAuMzM2NDIsMC4wODkgLTAuMDY1NzcsMC4wNjE1IC0wLjA5OTMyLDAuMTQxMjMgLTAuMDk5MzIsMC4yMzg4MiAwLDAuMDk1NSAwLjAzMzUzLDAuMTczMTMgMC4wOTkzMiwwLjIzMjUxIDAuMDY3OTEsMC4wNjE1IDAuMTc5NDIyLDAuMDkxOSAwLjMzNjQyLDAuMDkxOSBoIDAuNzM4ODU5IGMgMC4yNTAzNDMsMCAwLjQ3NTEzNSwtMC4wNjE4IDAuNjc0NTYxLC0wLjE4NDg2IDAuMTk5NDI4LC0wLjEyMyAwLjM0NzE1OCwtMC4yNjk2NCAwLjQ0MjYyOCwtMC40NDE0OSAwLjA5NzU4LC0wLjE2OTcxIDAuMTQ2Mzk1LC0wLjM2OTY1IDAuMTQ2Mzk1LC0wLjU5ODc4IFYgMjM1LjQwNiBoIDAuMTExMzc0IGMgMC4xNTY5OTYsMCAwLjI2ODM1MywtMC4wMzAxIDAuMzM0MTIzLC0wLjA4OTYgMC4wNjc4OSwtMC4wNjE2IDAuMTAxNjE2LC0wLjEzOTkxIDAuMTAxNjE2LC0wLjIzNTM4IDAsLTAuMDk3NyAtMC4wMzM3MSwtMC4xNzU0MyAtMC4xMDE2MTYsLTAuMjM0ODEgLTAuMDY1NzcsLTAuMDYxNSAtMC4xNzcxMjYsLTAuMDkzIC0wLjMzNDEyMywtMC4wOTMgaCAtMC43NjQxMiB2IDAuMTk0MDMgYyAtMC4xMzU3ODEsLTAuMDk3NSAtMC4yNzg3OTIsLTAuMTY5MTUgLTAuNDI5NDI0LC0wLjIxNTg0IC0wLjE0ODUwOCwtMC4wNDg4IC0wLjMwNTg0OSwtMC4wNzM1IC0wLjQ3MTMzMiwtMC4wNzM1IHogbSAxMS43MzMzNTQsMCBjIC0wLjQ0MzQwOCwwIC0wLjgxNDYwMiwwLjE0OTA1IC0xLjExMzc0NSwwLjQ0NjA4IC0wLjI5OTE0LDAuMjk0ODkgLTAuNDQ4MzY5LDAuNjYwNjIgLTAuNDQ4MzY5LDEuMDk3NjYgMCwwLjQzNDkzIDAuMTQ5MjI5LDAuODAwNjUgMC40NDgzNjksMS4wOTc2NyAwLjI5OTE0MywwLjI5NDkgMC42NzAzMzcsMC40NDIwNSAxLjExMzc0NSwwLjQ0MjA1IDAuMTU2OTkyLDAgMC4zMDk2MTgsLTAuMDIyNyAwLjQ1ODEyNywtMC4wNjk0IDAuMTUwNjMxLC0wLjA0NjcgMC4yOTgzNjEsLTAuMTE2NzYgMC40NDI2MjgsLTAuMjEwMTIgdiAwLjMxODA0IGMgMCwwLjE2NTQ4IC0wLjA1NTAxLDAuMzAyMjggLTAuMTY1MzQsMC40MTA0OCAtMC4xMTAzMTcsMC4xMDgxIC0wLjI2NTAxNSwwLjE2MjQ4IC0wLjQ2NDQ0MywwLjE2MjQ4IGggLTAuNzE5OTE1IGMgLTAuMTU2OTk2LDAgLTAuMjY4NTI4LDAuMDI5OCAtMC4zMzY0MiwwLjA4OSAtMC4wNjU3NywwLjA2MTUgLTAuMDk5MzIsMC4xNDEyMyAtMC4wOTkzMiwwLjIzODgyIDAsMC4wOTU1IDAuMDMzNTQsMC4xNzMxMyAwLjA5OTMyLDAuMjMyNTEgMC4wNjc5MSwwLjA2MTUgMC4xNzk0MjQsMC4wOTE5IDAuMzM2NDIsMC4wOTE5IGggMC43Mzg4NTkgYyAwLjI1MDM0NSwwIDAuNDc1MTM3LC0wLjA2MTggMC42NzQ1NjMsLTAuMTg0ODYgMC4xOTk0MjYsLTAuMTIzIDAuMzQ3MTU2LC0wLjI2OTY0IDAuNDQyNjI2LC0wLjQ0MTQ5IDAuMDk3NTgsLTAuMTY5NzEgMC4xNDYzOTUsLTAuMzY5NjUgMC4xNDYzOTUsLTAuNTk4NzggViAyMzUuNDA2IGggMC4xMTEzNzQgYyAwLjE1Njk5NywwIDAuMjY4MzU1LC0wLjAzMDEgMC4zMzQxMjQsLTAuMDg5NiAwLjA2NzksLTAuMDYxNiAwLjEwMTYxNiwtMC4xMzk5MSAwLjEwMTYxNiwtMC4yMzUzOCAwLC0wLjA5NzcgLTAuMDMzNzEsLTAuMTc1NDMgLTAuMTAxNjE2LC0wLjIzNDgxIC0wLjA2NTc3LC0wLjA2MTUgLTAuMTc3MTI2LC0wLjA5MyAtMC4zMzQxMjQsLTAuMDkzIGggLTAuNzY0MTE5IHYgMC4xOTQwMyBjIC0wLjEzNTc4MywtMC4wOTc1IC0wLjI3ODc5MywtMC4xNjkxNSAtMC40Mjk0MjQsLTAuMjE1ODQgLTAuMTQ4NTA5LC0wLjA0ODggLTAuMzA1ODUxLC0wLjA3MzUgLTAuNDcxMzMxLC0wLjA3MzUgeiBtIDM1LjU4MTgzMSwwLjAxIGMgLTAuMTY3NjA0LDAgLTAuMzIzNjIyLDAuMDI2NiAtMC40Njc4ODcsMC4wNzc0IC0wLjE0MjE0NSwwLjA1MDkgLTAuMjcyNzI3LDAuMTI3MjggLTAuMzkxNTM0LDAuMjI5MDUgdiAtMC4yMTk4NyBsIC0wLjYyMDU5NywtNS44ZS00IGMgLTAuMTU2OTk1LDAgLTAuMjY4NTMsMC4wMzE2IC0wLjMzNjQxOSwwLjA5MyAtMC4wNjU3NywwLjA1OTQgLTAuMDk5MzIsMC4xMzU4OSAtMC4wOTkzMiwwLjIzMTM3IDAsMC4wOTU1IDAuMDMzNTUsMC4xNzQ0NCAwLjA5OTMyLDAuMjM1OTQgMC4wNjU3NywwLjA2MTUgMC4xNjc1MTcsMC4wOTI1IDAuMzA1NDE5LDAuMDkyNSB2IDEuNTg0NTEgYyAtMC4xNjc2MDIsMCAtMC4yNzc0NjIsMC4wMTYzIC0wLjMyODM4MiwwLjA0ODMgLTAuMTAxODMzLDAuMDY1OCAtMC4xNTI3MTEsMC4xNTc5IC0wLjE1MjcxMSwwLjI3NjcxIDAsMC4wOTc3IDAuMDMzNTQsMC4xNzczMyAwLjA5OTMyLDAuMjM4ODIgMC4wNjc5LDAuMDU5NCAwLjE3OTQyNCwwLjA4OSAwLjMzNjQxOCwwLjA4OSBoIDAuNzQyMzA1IGMgMC4xNTY5OTUsMCAwLjI2ODM1MiwtMC4wMjk1IDAuMzM0MTIzLC0wLjA4OSAwLjA2NzksLTAuMDYxNSAwLjEwMTYxNiwtMC4xMzk5IDAuMTAxNjE2LC0wLjIzNTM3IDAsLTAuMTIyOTkgLTAuMDUyMTksLTAuMjE2NDcgLTAuMTU2MTUzLC0wLjI4MDE2IC0wLjA0ODgsLTAuMDMxOCAtMC4xNTczMzMsLTAuMDQ4MyAtMC4zMjQ5MzksLTAuMDQ4MyB2IC0xLjIxMjUgYyAwLjE3Mzk2OCwtMC4xODg4MiAwLjMxNzU1NCwtMC4zMTEyOCAwLjQyOTk5NywtMC4zNjg1NyAwLjExNDU3MiwtMC4wNTkzIDAuMjQ3MjE5LC0wLjA4OTYgMC4zOTc4NSwtMC4wODk2IDAuMTk5NDI0LDAgMC4zNDkyMjksMC4wNDI2IDAuNDQ4OTQxLDAuMTI3NDYgMC4wNzYzNywwLjA2NTcgMC4xMTQ4MTgsMC4xNjk1OSAwLjExNDgxOCwwLjMxMTcyIHYgMS4yMzE0NCBjIC0wLjEzNzkwMiwwIC0wLjI0MDIyMSwwLjAzMDggLTAuMzA1OTkyLDAuMDkyNCAtMC4wNjU3NywwLjA1OTQgLTAuMDk4NzUsMC4xMzcwNCAtMC4wOTg3NSwwLjIzMjUxIDAsMC4wOTc3IDAuMDMyOTcsMC4xNzY3NiAwLjA5ODc1LDAuMjM4MjUgMC4wNjc5LDAuMDU5NCAwLjE3OTk5OSwwLjA4OTYgMC4zMzY5OTMsMC4wODk2IGggMC41ODk1OTYgYyAwLjE1Njk5NiwwIDAuMjY4MzUzLC0wLjAzMDEgMC4zMzQxMjMsLTAuMDg5NiAwLjA2NzkxLC0wLjA2MTUgMC4xMDE2MTYsLTAuMTM5MzMgMC4xMDE2MTYsLTAuMjM0ODEgMCwtMC4wOTc3IC0wLjAzMzU0LC0wLjE3NjU2IC0wLjA5OTMyLC0wLjIzNTk1IC0wLjA2NTc3LC0wLjA2MTUgLTAuMTY3NTE1LC0wLjA5MjQgLTAuMzA1NDE4LC0wLjA5MjQgdiAtMS4yMTI1IGMgMCwtMC4zMDk3NSAtMC4wODg3NSwtMC41NTk5NSAtMC4yNjY5NTMsLTAuNzUwOTEgLTAuMjI0ODg4LC0wLjIzOTczIC0wLjUzMDcwNSwtMC4zNTk5NSAtMC45MTY4MywtMC4zNTk5NSB6IG0gLTUxLjA4Mjk3MSw1LjZlLTQgYyAtMC4xMzU3NzgsMCAtMC4yODcwNzgsMC4wMTQzIC0wLjQ1NDY4MiwwLjA0MTkgLTAuMTY3NjAyLDAuMDI1NSAtMC4zMzI0ODYsMC4wNjA3IC0wLjQ5MzcyMywwLjEwNTA2IC0wLjEyMDkyNywwLjAzMzggLTAuMjAwNjMyLDAuMDYzNCAtMC4yMzg4MjMsMC4wODkgLTAuMDM4MTcsMC4wMjM0IC0wLjA2NzE5LDAuMDU1MSAtMC4wODg0MSwwLjA5NTMgLTAuMDIxMjEsMC4wNDA0IC0wLjAzMjE1LDAuMDg4NCAtMC4wMzIxNSwwLjE0MzUxIDAsMC4wOTc2IDAuMDMwMTQsMC4xNzc0NCAwLjA4OTU1LDAuMjQxMTMgMC4wNjE1NCwwLjA2MTUgMC4xMzUxOTUsMC4wOTI5IDAuMjIyMTc2LDAuMDkyOSAwLjA2MzY1LDAgMC4xNTIzODgsLTAuMDEzOSAwLjI2Njk1NCwtMC4wNDE0IDAuMzA3NjI1LC0wLjA3NjQgMC41NTg0MjcsLTAuMTE0ODMgMC43NTE0OSwtMC4xMTQ4MyAwLjIzNTQ5NSwwIDAuMzk0OTA3LDAuMDMwMyAwLjQ3NzY0OCwwLjA5MTkgMC4wODQ4NiwwLjA2MTUgMC4xMjY4NzUsMC4xNDEyMyAwLjEyNjg3NSwwLjIzODgxIHYgMC4xNTYxNSBjIC0wLjI1ODgzMSwtMC4wNDIyIC0wLjQ4NzAxOCwtMC4wNjMxIC0wLjY4NDMyMiwtMC4wNjMxIC0wLjQ5MjIwMywwIC0wLjg3ODQ3OCwwLjExNzU4IC0xLjE1ODUyNCwwLjM1MzA3IC0wLjI3NzkyNCwwLjIzMzM2IC0wLjQxNjIxOSwwLjQ4NjQgLTAuNDE2MjE5LDAuNzYwMSAwLDAuMjI0ODkgMC4xMDkyOTQsMC40MzA0NiAwLjMyNzgwOSwwLjYxNzE0IDAuMjE4NTIsMC4xODQ1OSAwLjUwMjQ3MywwLjI3NzMgMC44NTI1MzEsMC4yNzczIDAuMTYxMjM4LDAgMC4zNDA2MjMsLTAuMDIyNiAwLjUzNzkyOCwtMC4wNjcyIDAuMTk3MzA1LC0wLjA0MjIgMC4zNzc0MzYsLTAuMTA2NDQgMC41NDA3OTcsLTAuMTkzNDYgdiAwLjE1MjcxIGwgMC43NjM1NDUsLTUuOGUtNCBjIDAuMTU2OTk0LDAgMC4yNjgzNTQsLTAuMDI5NSAwLjMzNDEyMywtMC4wODkgMC4wNjc5LC0wLjA2MTUgMC4xMDIxOTQsLTAuMTQwNDcgMC4xMDIxOTQsLTAuMjM1OTYgMCwtMC4wOTc3IC0wLjAzNDMxLC0wLjE3NTQxIC0wLjEwMjE5NCwtMC4yMzQ3OSAtMC4wNjU3NywtMC4wNjE1IC0wLjE3NzEyNiwtMC4wOTI1IC0wLjMzNDEyMywtMC4wOTI1IGggLTAuMTEwNzk5IHYgLTEuMzQyOCBjIDAsLTAuMzAzMzkgLTAuMTEyNjgyLC0wLjU0MTkzIC0wLjMzNzU2OSwtMC43MTU5IC0wLjIyMjc2NCwtMC4xNzYxMSAtMC41MzY4NywtMC4yNjQ2NiAtMC45NDIwODksLTAuMjY0NjYgeiBtIDcuNzkzOTE1LDAgYyAtMC40NDEyODcsMCAtMC44MzIyOCwwLjE0NDkgLTEuMTcxNzI5LDAuNDMzNDYgLTAuMzM3MzI4LDAuMjg2MzkgLTAuNTA1Nzc3LDAuNjU4MzcgLTAuNTA1Nzc3LDEuMTE2NjEgMCwwLjQzMDY4IDAuMTU2MDE2LDAuNzkzNTggMC40Njc4ODcsMS4wODg0NyAwLjMxMzk5MSwwLjI5NDkgMC43MzE5MTksMC40NDI2MyAxLjI1MzgyMywwLjQ0MjYzIDAuMzAzMzgyLDAgMC42MjAxMzgsLTAuMDM1MSAwLjk0ODk3OSwtMC4xMDUwNSAwLjMyODg0NiwtMC4wNzIyIDAuNTM1NzM3LC0wLjE0Nzc0IDAuNjIwNTk3LC0wLjIyNjIxIDAuMDYzNjUsLTAuMDU5NCAwLjA5NTMsLTAuMTMxNTYgMC4wOTUzLC0wLjIxNjQzIDAsLTAuMDkzNCAtMC4wMzAxNSwtMC4xNzEwMiAtMC4wODk1NSwtMC4yMzI1MSAtMC4wNTk0MiwtMC4wNjE1IC0wLjEzMjMyMiwtMC4wOTE4IC0wLjIxOTMwNCwtMC4wOTE4IC0wLjA2MzY1LDAgLTAuMTc4NDAzLDAuMDIwNiAtMC4zNDM4ODQsMC4wNjMxIC0wLjQwMDk3NSwwLjEwMzk4IC0wLjcyMjYxOSwwLjE1NjE2IC0wLjk2NDQ3OCwwLjE1NjE2IC0wLjI5NDg5NywwIC0wLjUyODcyNCwtMC4wNTIyIC0wLjcwMjY5MywtMC4xNTYxNiAtMC4xNzE4NDYsLTAuMTAzOTggLTAuMjkyMDY5LC0wLjI0MDc1IC0wLjM1OTk1NywtMC40MTA0OCBoIDIuNjc2NDMgdiAtMC4yNzY3MiBjIDAsLTAuMjEyMTcgLTAuMDMzNzIsLTAuMzk4NSAtMC4xMDE2MTYsLTAuNTU5NzUgLTAuMDk5NzIsLTAuMjMxMjUgLTAuMjI2NzI1LC0wLjQyNTcgLTAuMzc5NDc2LC0wLjU4MjcgLTAuMTA4MjA2LC0wLjEwODIgLTAuMjczMjU1LC0wLjIwODYxIC0wLjQ5NjAyLC0wLjMwMTk3IC0wLjIyMDY0LC0wLjA5MzMgLTAuNDYzMzMsLTAuMTQwNjYgLTAuNzI4NTI0LC0wLjE0MDY2IHogbSAxMi43NTc1MzcsMCBjIC0wLjEzNzkwMywwIC0wLjI4NTgwNCwwLjAzMzUgLTAuNDQ0OTI0LDAuMDk5MyAtMC4xNTY5OTUsMC4wNjU4IC0wLjM3MjE3NCwwLjE5NzA4IC0wLjY0NTg1NiwwLjM5NDQxIHYgLTAuNDA3NjEgbCAtMC44ODgxMjUsNS43ZS00IGMgLTAuMTU2OTk1LDAgLTAuMjY5Njc5LDAuMDMwOCAtMC4zMzc1NjgsMC4wOTI1IC0wLjA2NTc3LDAuMDU5NCAtMC4wOTg3NSwwLjEzNzA0IC0wLjA5ODc1LDAuMjMyNTIgMCwwLjA5NzcgMC4wMzI5NywwLjE3Njc1IDAuMDk4NzUsMC4yMzgyNCAwLjA2NzksMC4wNTk0IDAuMTgwNTczLDAuMDg5MSAwLjMzNzU2OCwwLjA4OTEgSCA2MC4zNjU2IHYgMS41ODQ1IGggLTAuMzg4MDg5IGMgLTAuMTU2OTk1LDAgLTAuMjY5Njc5LDAuMDMwOCAtMC4zMzc1NjYsMC4wOTI1IC0wLjA2NTc3LDAuMDU5NCAtMC4wOTg3NSwwLjEzNzA0IC0wLjA5ODc1LDAuMjMyNTEgMCwwLjA5NzcgMC4wMzI5OCwwLjE3NzMzIDAuMDk4NzUsMC4yMzg4MSAwLjA2Nzg5LDAuMDU5NCAwLjE4MDU3MSwwLjA4OTEgMC4zMzc1NjYsMC4wODkxIGggMS45NjkxNDcgYyAwLjE1Njk5MiwwIDAuMjY4OTI3LC0wLjAyOTUgMC4zMzQ2OTgsLTAuMDg5MSAwLjA2NzksLTAuMDYxNSAwLjEwMjE5MiwtMC4xMzk5IDAuMTAyMTkyLC0wLjIzNTM3IDAsLTAuMDk3NyAtMC4wMzQzMSwtMC4xNzY1NiAtMC4xMDIxOTIsLTAuMjM1OTUgLTAuMDY1NzcsLTAuMDYxNSAtMC4xNzc3MDEsLTAuMDkyNSAtMC4zMzQ2OTgsLTAuMDkyNSBoIC0wLjkyODMxMiB2IC0wLjk4Mjg1IGMgMC4yNzE1NjEsLTAuMjI5MTIgMC40OTcwOTgsLTAuNDAwOTggMC42Nzc0MzIsLTAuNTE1NTQgMC4xODI0NTMsLTAuMTE0NDggMC4zMTkyNTEsLTAuMTcyMjMgMC40MTA0NzgsLTAuMTcyMjMgMC4wNzAwMiwwIDAuMTQ5NzE5LDAuMDM5OSAwLjIzODgyMywwLjEyMDU1IDAuMDg5MTEsMC4wODA2IDAuMTczNzAzLDAuMTIxNzIgMC4yNTQzMjQsMC4xMjE3MiAwLjA5MTIyLDAgMC4xNjg4NjEsLTAuMDMxOCAwLjIzMjUwOSwtMC4wOTU0IDAuMDY1NzcsLTAuMDY1OCAwLjA5ODE3LC0wLjE0NTQ3IDAuMDk4MTcsLTAuMjM4ODEgMCwtMC4xMTAzMiAtMC4wNjc0NiwtMC4yMTgzIC0wLjIwMzIyOSwtMC4zMjQzNiAtMC4xOTk0MjgsLTAuMTU3MDEgLTAuNDA1NTY5LC0wLjIzNTk2IC0wLjYxNzcyNywtMC4yMzU5NiB6IG0gMi45NTk0NiwwIGMgLTAuMjk0ODk1LDAgLTAuNTc4MSwwLjA3MjcgLTAuODQ5NjYxLDAuMjE3MDIgLTAuMjY5NDM3LDAuMTQ0MjcgLTAuNDc2MzMxLDAuMzQyMyAtMC42MjA1OTYsMC41OTQ3NSAtMC4xNDQyNjcsMC4yNTAzNSAtMC4yMTU4NTksMC41MDYwMyAtMC4yMTU4NTksMC43NjcgMCwwLjI1NjY5IDAuMDcxNDIsMC41MDMzNiAwLjIxMzU2MywwLjczODg2IDAuMTQyMTQ1LDAuMjM1NSAwLjM0OTAzNCwwLjQyMTg0IDAuNjIwNTk1LDAuNTU5NzQgMC4yNzE1NTksMC4xMzU3OSAwLjU1NDk0LDAuMjAzOCAwLjg1MTk1OCwwLjIwMzggMC4yOTkxNCwwIDAuNTg1NzM5LC0wLjA2OTQgMC44NTk0MiwtMC4yMDcyNSAwLjI3NTgwNCwtMC4xNDAwMSAwLjQ4MjY5NSwtMC4zMjYzNyAwLjYyMDU5NywtMC41NTk3NCAwLjE0MDAyMiwtMC4yMzU0OCAwLjIxMDExOSwtMC40Nzg3NyAwLjIxMDExOSwtMC43MjkxIDAsLTAuMjYzMDkgLTAuMDcwMTEsLTAuNTE4MTkgLTAuMjEwMTE5LC0wLjc2NjQyIC0wLjE0MDAyNSwtMC4yNTAzMiAtMC4zNDc2NjMsLTAuNDQ4OTYgLTAuNjIzNDY3LC0wLjU5NTMzIC0wLjI3MzY4MSwtMC4xNDg1MyAtMC41NTk1MzEsLTAuMjIzMzMgLTAuODU2NTUsLTAuMjIzMzMgeiBtIDcuOTg1MDg2LDAgYyAtMC4xNzE4NDYsMCAtMC4zMzk1NDUsMC4wMjU1IC0wLjUwMjkwNywwLjA3NjQgLTAuMTYzMzU4LDAuMDUwOSAtMC4zMjE0NDksMC4xMjc5NyAtMC40NzQyMDIsMC4yMzE5NCB2IC0wLjIyMjE3IGggLTAuNzY0MTIxIGMgLTAuMTU2OTk2LDAgLTAuMjY5MTA1LDAuMDMwMyAtMC4zMzY5OTMsMC4wOTE4IC0wLjA2NTc3LDAuMDU5NCAtMC4wOTg3NSwwLjEzNzAzIC0wLjA5ODc1LDAuMjMyNTIgMCwwLjA5NzcgMC4wMzI5OCwwLjE3NzMyIDAuMDk4NzUsMC4yMzg4IDAuMDY3ODksMC4wNTk0IDAuMTc5OTk3LDAuMDg5MSAwLjMzNjk5MywwLjA4OTEgaCAwLjExMTk0OSB2IDIuOTQ2ODMgaCAtMC4xMTE5NDkgYyAtMC4xNTQ4NzYsMCAtMC4yNjYyMzIsMC4wMjk4IC0wLjMzNDEyMywwLjA4OSAtMC4wNjc5LDAuMDYxNSAtMC4xMDE2MTUsMC4xNDEyMiAtMC4xMDE2MTUsMC4yMzg4MSAwLDAuMDk1NSAwLjAzMjk4LDAuMTczMTIgMC4wOTg3NSwwLjIzMjUxIDAuMDY3ODksMC4wNjE1IDAuMTc5OTk5LDAuMDkxOSAwLjMzNjk5MiwwLjA5MTkgaCAxLjE1NTA4IGMgMC4xNTY5OTUsMCAwLjI2ODM1MywtMC4wMzAzIDAuMzM0MTIzLC0wLjA5MTkgMC4wNjc4OSwtMC4wNTk0IDAuMTAyNzYxLC0wLjEzNzAzIDAuMTAyNzYxLC0wLjIzMjUxIDAsLTAuMDk3NyAtMC4wMzQ4OCwtMC4xNzczMyAtMC4xMDI3NjEsLTAuMjM4ODEgLTAuMDY1NzcsLTAuMDU5NCAtMC4xNzcxMjYsLTAuMDg5IC0wLjMzNDEyMywtMC4wODkgaCAtMC4zOTA5NTkgdiAtMS4wNjg5NiBjIDAuMTYxMjM3LDAuMDk3NSAwLjMyMzQ3MiwwLjE3MDQ3IDAuNDg2ODM0LDAuMjE5MjkgMC4xNjMzNTgsMC4wNDg5IDAuMzI4NDEyLDAuMDczNSAwLjQ5NjAxNywwLjA3MzUgMC4zODgyNDgsMCAwLjczNzk3NCwtMC4xMTY5MiAxLjA0NzcyMywtMC4zNTAyIDAuMzcxMjc0LC0wLjI4MDA0IDAuNTU2Mjk5LC0wLjYzNiAwLjU1NjI5OSwtMS4wNjY2NiAwLC0wLjM5MDM4IC0wLjE1NjE5NCwtMC43MzU1NyAtMC40NzAxODQsLTEuMDM2ODIgLTAuMzEzOTkyLC0wLjMwMzQgLTAuNjk0MDUxLC0wLjQ1NTI2IC0xLjEzOTU4LC0wLjQ1NTI2IHogbSAxNS40MDg3MDksMCBjIC0wLjQ0MTI4NSwwIC0wLjgzMTEyOSwwLjE0NDMxIC0xLjE3MDU3OSwwLjQzMjg3IC0wLjMzNzMyOSwwLjI4NjQxIC0wLjUwNjM1MiwwLjY1ODM2IC0wLjUwNjM1MiwxLjExNjYyIDAsMC40MzA2NyAwLjE1NjAxOCwwLjc5MzYxIDAuNDY3ODg4LDEuMDg4NDggMC4zMTM5OSwwLjI5NDg5IDAuNzMxMzQzLDAuNDQyNjIgMS4yNTMyNSwwLjQ0MjYyIDAuMzAzMzgyLDAgMC42MjAxMzYsLTAuMDM1MSAwLjk0ODk3OCwtMC4xMDUwNiAwLjMyODg0NSwtMC4wNzIyIDAuNTM1NzM1LC0wLjE0NzcxIDAuNjIwNTk2LC0wLjIyNjE3IDAuMDYzNjUsLTAuMDU5NCAwLjA5NTMsLTAuMTMxNTkgMC4wOTUzLC0wLjIxNjQ0IDAsLTAuMDkzNCAtMC4wMzAxNSwtMC4xNzEwMSAtMC4wODk1NiwtMC4yMzI1MiAtMC4wNTk0MiwtMC4wNjE2IC0wLjEzMjMyMywtMC4wOTE4IC0wLjIxOTMwMywtMC4wOTE4IC0wLjA2MzY1LDAgLTAuMTc4NDAxLDAuMDIxMiAtMC4zNDM4ODQsMC4wNjM4IC0wLjQwMDk3NCwwLjEwMzk4IC0wLjcyMjA0NiwwLjE1NTU4IC0wLjk2MzkwNiwwLjE1NTU4IC0wLjI5NDg5NywwIC0wLjUyOTI5NywtMC4wNTE3IC0wLjcwMzI2NCwtMC4xNTU1OCAtMC4xNzE4NDgsLTAuMTAzOTggLTAuMjkxNDk2LC0wLjI0MDc0IC0wLjM1OTM4NSwtMC40MTA0OSBoIDIuNjc1ODU3IHYgLTAuMjc2NzIgYyAwLC0wLjIxMjE2IC0wLjAzMzczLC0wLjM5OTA3IC0wLjEwMTYxNSwtMC41NjAzIC0wLjA5OTcxLC0wLjIzMTI1IC0wLjIyNTU3NSwtMC40MjU3MSAtMC4zNzgzMjgsLTAuNTgyNzEgLTAuMTA4MTk1LC0wLjEwODIxIC0wLjI3MzgyOSwtMC4yMDg2MSAtMC40OTY1OTMsLTAuMzAxOTggLTAuMjIwNjQsLTAuMDkzMyAtMC40NjM5MDMsLTAuMTQwMDcgLTAuNzI5MSwtMC4xNDAwNyB6IG0gLTIwLjkxMTQwOCwwLjA4NjIgYyAtMC4xNTY5OTYsMCAtMC4yNjkxMDQsMC4wMzAzIC0wLjMzNjk5MywwLjA5MTggLTAuMDY1NzcsMC4wNTk0IC0wLjA5ODc1LDAuMTM2NDcgLTAuMDk4NzUsMC4yMzE5NSAwLDAuMDk3NyAwLjAzMjk3LDAuMTc3MzIgMC4wOTg3NSwwLjIzODgyIDAuMDY3OSwwLjA1OTQgMC4xNzk5OTcsMC4wODk2IDAuMzM2OTkzLDAuMDg5NiBoIDAuMTExOTQ4IHYgMS40MDMwOSBjIDAsMC4xNzE4NCAwLjAzMjQsMC4zMTU0NCAwLjA5ODE3LDAuNDMgMC4wOTEyMiwwLjE1OTEyIDAuMjE1NTkxLDAuMjg0MjMgMC4zNzI1ODcsMC4zNzU0NiAwLjE1Njk5NCwwLjA4OTEgMC4zNDI1OTEsMC4xMzM3NiAwLjU1Njg3MiwwLjEzMzc2IDAuMTUyNzUyLDAgMC4zMTM2NjIsLTAuMDIxOSAwLjQ4MzM4NywtMC4wNjQzIDAuMTY5NzI1LC0wLjA0MjQgMC4zNDc3ODQsLTAuMTA1NzMgMC41MzQ0ODMsLTAuMTkwNTggdiAwLjE0OTgyIGggMC42MjA1OTcgYyAwLjE1Njk5NiwwIDAuMjY4MzU0LC0wLjAzMDEgMC4zMzQxMjMsLTAuMDg5NiAwLjA2NzksLTAuMDYxNSAwLjEwMjc2MSwtMC4xMzk5MSAwLjEwMjc2MSwtMC4yMzUzOCAwLC0wLjA5NTQgLTAuMDMzNTUsLTAuMTc0NDYgLTAuMDk5MzEsLTAuMjM1OTYgLTAuMDY1NzcsLTAuMDYxNSAtMC4xNjc1MTcsLTAuMDkxOCAtMC4zMDU0MTksLTAuMDkxOCB2IC0yLjIzNjY3IGggLTAuODg3NTUgYyAtMC4xNTY5OTYsMCAtMC4yNjk2NzksMC4wMzAzIC0wLjMzNzU2OCwwLjA5MTggLTAuMDY1NzcsMC4wNTk0IC0wLjA5ODE3LDAuMTM3MDMgLTAuMDk4MTcsMC4yMzI1MiAwLDAuMDk3NyAwLjAzMjM5LDAuMTc3MyAwLjA5ODE3LDAuMjM4ODEgMC4wNjc5LDAuMDU5MyAwLjE4MDU3MiwwLjA4OSAwLjMzNzU2OCwwLjA4OSBoIDAuMjM0ODA0IHYgMS4zMzAxNyBjIC0wLjIyMjc2NCwwLjEzNTc4IC0wLjQxMDQzMiwwLjIzMDAxIC0wLjU2MzE4NywwLjI4MzAzIC0wLjE1MDYzLDAuMDUwOSAtMC4yOTA5OTgsMC4wNzY0IC0wLjQyMjUzNCwwLjA3NjQgLTAuMTM3OTAzLDAgLTAuMjQwOTcyLC0wLjAzMTcgLTAuMzA4ODYzLC0wLjA5NTQgLTAuMDY1NzcsLTAuMDY1OCAtMC4wOTkzMiwtMC4xNjc1MiAtMC4wOTkzMiwtMC4zMDU0MiB2IC0xLjk0MTAyIHogbSAxNS41MzY3MzEsMCBjIC0wLjE1Njk5NiwwIC0wLjI2OTY3OCwwLjAzMDMgLTAuMzM3NTY3LDAuMDkxOCAtMC4wNjU3NywwLjA1OTQgLTAuMDk4MTcsMC4xMzY0NyAtMC4wOTgxNywwLjIzMTk1IDAsMC4wOTEzIDAuMDI5MDEsMC4xNjc1NiAwLjA4ODQxLDAuMjI5MDUgMC4wNjE1MSwwLjA1OTYgMC4xNTIxNjgsMC4wOTMyIDAuMjcwOTczLDAuMDk5MyBsIDAuNTQ3MTEyLDIuMjM3MjUgaCAwLjYxNDI4MiBsIDAuNDUxODEyLC0xLjIwMjczIDAuNDc3NjQ2LDEuMjAyNzMgaCAwLjYwNDUyMyBsIDAuNTM0NDgzLC0yLjIzNzI1IGMgMC4xMTQ1NywtMC4wMDkgMC4yMDA0ODcsLTAuMDQyMyAwLjI1Nzc2OCwtMC4xMDE2MSAwLjA1OTQxLC0wLjA2MTUgMC4wODg5OCwtMC4xMzYzMiAwLjA4ODk4LC0wLjIyMzMyIDAsLTAuMDk3NyAtMC4wMzM3MiwtMC4xNzU0MiAtMC4xMDE2MTYsLTAuMjM0OCAtMC4wNjU3NywtMC4wNjE1IC0wLjE3NzEyOCwtMC4wOTI1IC0wLjMzNDEyMywtMC4wOTI1IEggODUuNTM3OTQgYyAtMC4xNTY5OTMsMCAtMC4yNjkxMDIsMC4wMzA4IC0wLjMzNjk5MywwLjA5MjUgLTAuMDY1NzcsMC4wNTk0IC0wLjA5ODc1LDAuMTM1ODkgLTAuMDk4NzUsMC4yMzEzNiAwLDAuMTIxMDUgMC4wNTA4NywwLjIxNTA0IDAuMTUyNzEsMC4yODA3NCAwLjA1MDkxLDAuMDMxOCAwLjE1NjgwOCwwLjA0NzcgMC4zMTgwNDcsMC4wNDc3IGwgLTAuMjU0ODk3LDEuMDM0NTIgLTAuNDA3MDM0LC0xLjA1OTc5IEggODQuMzMxNzYgbCAtMC40MDQxNjIsMS4wNTk3OSAtMC4yNDgwMDksLTEuMDM0NTIgYyAwLjE2NzYwOCwwIDAuMjgwMjg4LC0wLjAyNTUgMC4zMzc1NjgsLTAuMDc2NCAwLjA3NjM3LC0wLjA2NzggMC4xMTQyNDUsLTAuMTUxIDAuMTE0MjQ1LC0wLjI0ODYgMCwtMC4wOTc3IC0wLjAzNDMxLC0wLjE3NTQxIC0wLjEwMjE4MywtMC4yMzQ3OSAtMC4wNjU3NywtMC4wNjE1IC0wLjE3NzEyOCwtMC4wOTI1IC0wLjMzNDEyNSwtMC4wOTI1IHogbSAtNy42Nzk2NjcsMC4wOTE4IGMgLTAuMTU2OTk4LDAgLTAuMjY4NTMsMC4wMzA4IC0wLjMzNjQyLDAuMDkyNSAtMC4wNjU3NywwLjA1OTQgLTAuMDk5MzIsMC4xMzcwNCAtMC4wOTkzMiwwLjIzMjUxIDAsMC4wOTc3IDAuMDMzNTQsMC4xNzczMiAwLjA5OTMyLDAuMjM4ODIgMC4wNjc5LDAuMDU5NCAwLjE3OTQyMiwwLjA4OSAwLjMzNjQyLDAuMDg5IGggMi43ODc4MDQgYyAwLjE1Njk5NSwwIDAuMjY4MzU1LC0wLjAyOTUgMC4zMzQxMjMsLTAuMDg5IDAuMDY3OSwtMC4wNjE1IDAuMTAyMTk0LC0wLjEzOTkyIDAuMTAyMTk0LC0wLjIzNTM3IDAsLTAuMDk3NyAtMC4wMzQzMSwtMC4xNzY1OCAtMC4xMDIxOTQsLTAuMjM1OTYgLTAuMDY1NzcsLTAuMDYxNSAtMC4xNzcxMjYsLTAuMDkyNSAtMC4zMzQxMjMsLTAuMDkyNSB6IE0gNDUuMzE5MTQ1LDIzNS4zMTIgYyAwLjI0ODIyMywwIDAuNDYwNTgyLDAuMDg3MiAwLjYzNjY3MiwwLjI2MzUxIDAuMTc4MjEyLDAuMTc2MDggMC4yNjY5NTMsMC4zODQzIDAuMjY2OTUzLDAuNjI0MDQgMCwwLjI0MTg2IC0wLjA4ODc1LDAuNDUwODIgLTAuMjY2OTUzLDAuNjI2OTIgLTAuMTc2MDksMC4xNzM5NiAtMC4zODg0NDksMC4yNjEyMSAtMC42MzY2NzIsMC4yNjEyMSAtMC4yNDgyMjMsMCAtMC40NjEzMzIsLTAuMDg3MiAtMC42Mzk1NDIsLTAuMjYxMjEgLTAuMTc2MDksLTAuMTc2MSAtMC4yNjM1MDgsLTAuMzg1MDYgLTAuMjYzNTA4LC0wLjYyNjkyIDAsLTAuMjM5NzQgMC4wODc0MiwtMC40NDc5NiAwLjI2MzUwOCwtMC42MjQwNCAwLjE3ODIxLC0wLjE3NjExIDAuMzkxMzE5LC0wLjI2MzUxIDAuNjM5NTQyLC0wLjI2MzUxIHogbSAxMS43MzMzNTMsMCBjIDAuMjQ4MjIyLDAgMC40NjA1ODIsMC4wODcyIDAuNjM2NjcxLDAuMjYzNTEgMC4xNzgyMTMsMC4xNzYwOCAwLjI2Njk1NCwwLjM4NDMgMC4yNjY5NTQsMC42MjQwNCAwLDAuMjQxODYgLTAuMDg4NzUsMC40NTA4MiAtMC4yNjY5NTQsMC42MjY5MiAtMC4xNzYwODksMC4xNzM5NiAtMC4zODg0NDksMC4yNjEyMSAtMC42MzY2NzEsMC4yNjEyMSAtMC4yNDgyMjMsMCAtMC40NjEzMywtMC4wODcyIC0wLjYzOTU0MiwtMC4yNjEyMSAtMC4xNzYwOSwtMC4xNzYxIC0wLjI2NDA4MywtMC4zODUwNiAtMC4yNjQwODMsLTAuNjI2OTIgMCwtMC4yMzk3NCAwLjA4OCwtMC40NDc5NiAwLjI2NDA4MywtMC42MjQwNCAwLjE3ODIxMiwtMC4xNzYxMSAwLjM5MTMxOSwtMC4yNjM1MSAwLjYzOTU0MiwtMC4yNjM1MSB6IG0gOC4wMTYwODgsMC4wMSBjIDAuMzM1MjA2LDAgMC42MDU5NzcsMC4xMTg4NCAwLjgxMTc2OSwwLjM1NjUxIDAuMTUwNjMyLDAuMTc2MDggMC4yMjYxOTQsMC4zNjkyMyAwLjIyNjE5NCwwLjU3OTI2IDAsMC4yMDU4IC0wLjA5OTY3LDAuMzk3NjIgLTAuMjk5MTAzLDAuNTc1ODIgLTAuMTk5NDI2LDAuMTc2MSAtMC40NDYwODQsMC4yNjQwOCAtMC43Mzg4NiwwLjI2NDA4IC0wLjI5MDY1NCwwIC0wLjUzNTQxNCwtMC4wODgxIC0wLjczNDg0MiwtMC4yNjQwOCAtMC4xOTk0MjcsLTAuMTc4MiAtMC4yOTg1MjksLTAuMzY4NyAtMC4yOTg1MjksLTAuNTcyMzcgMCwtMC4yNDgyMyAwLjA5ODM2LC0wLjQ2NjgxIDAuMjk1NjU5LC0wLjY1NTYyIDAuMTk3MzA1LC0wLjE4ODgzIDAuNDQyODE3LC0wLjI4MzYgMC43Mzc3MTIsLTAuMjgzNiB6IG0gNy45NzUzMjcsMCBjIDAuMjAxNTQ5LDAgMC4zNzY3ODksMC4wNDc2IDAuNTI1Mjk3LDAuMTQyOTQgMC4xNTA2MzUsMC4wOTMzIDAuMjYxOTkyLDAuMjExNTEgMC4zMzQxMjQsMC4zNTM2NSAwLjA3MjEzLDAuMTQwMDIgMC4xMDg1MDMsMC4yNTU1MiAwLjEwODUwMywwLjM0Njc2IDAsMC4xODAzMiAtMC4wOTI3MSwwLjM1MjE1IC0wLjI3NzI4OCwwLjUxNTUzIC0wLjE4NDU3NCwwLjE2MzM0IC0wLjQxNDgzMSwwLjI0NTE0IC0wLjY5MDYzNiwwLjI0NTE0IC0wLjI3MzY4LDAgLTAuNTAzOTM3LC0wLjA4MTggLTAuNjkwNjM2LC0wLjI0NTE0IC0wLjE4NDU3NiwtMC4xNjU1IC0wLjI3NjcxNCwtMC4zMzUyNCAtMC4yNzY3MTQsLTAuNTA5MjMgMCwtMC4xNTQ4NiAwLjA2NDY0LC0wLjMxNTc4IDAuMTk0MDQ1LC0wLjQ4MzM3IDAuMTkwOTQyLC0wLjI0Mzk4IDAuNDQ4NzA4LC0wLjM2NjI4IDAuNzczMzA1LC0wLjM2NjI4IHogbSAxNS40MzQ1NDMsMCBjIDAuMjIyNzY0LDAgMC40MTQ1NzgsMC4wNDcyIDAuNTc1ODE4LDAuMTQwNjUgMC4xNjEyMzgsMC4wOTEyIDAuMjkxODE2LDAuMjI5NTIgMC4zOTE1MzIsMC40MTYyMSBoIC0xLjkzNDcwMSBjIDAuMTAxODMzLC0wLjE4NjY5IDAuMjMzMTY2LC0wLjMyNDk5IDAuMzk0NDA0LC0wLjQxNjIxIDAuMTYxMjM5LC0wLjA5MzMgMC4zNTIzMDQsLTAuMTQwNjUgMC41NzI5NDcsLTAuMTQwNjUgeiBtIC0zOS4xMTEzNjgsNS43ZS00IGMgMC4yMjI3NjUsMCAwLjQxNTE1MiwwLjA0NjcgMC41NzYzOTIsMC4xNDAwOCAwLjE2MTIzOCwwLjA5MTIgMC4yOTE4MiwwLjIzMDY1IDAuMzkxNTM0LDAuNDE3MzYgaCAtMS45MzUyNzUgYyAwLjEwMTgzMiwtMC4xODY3MSAwLjIzMzczOCwtMC4zMjYxNCAwLjM5NDk3NywtMC40MTczNiAwLjE2MTIzOSwtMC4wOTMzIDAuMzUxNzI5LC0wLjE0MDA4IDAuNTcyMzcyLC0wLjE0MDA4IHogbSAyNi4wNDA5NDksMC43NTM3OSBjIC0wLjE1Njk5OCwwIC0wLjI2ODUzLDAuMDMxIC0wLjMzNjQyLDAuMDkyNSAtMC4wNjU3NywwLjA1OTQgLTAuMDk5MzIsMC4xMzc3OCAtMC4wOTkzMiwwLjIzNTM4IDAsMC4wOTc3IDAuMDMzNTQsMC4xNzU5OCAwLjA5OTMyLDAuMjM1MzcgMC4wNjc5LDAuMDU5NCAwLjE3OTQyMiwwLjA4OTYgMC4zMzY0MiwwLjA4OTYgaCAyLjc4NzgwNCBjIDAuMTU2OTk1LDAgMC4yNjgzNTUsLTAuMDMwMSAwLjMzNDEyMywtMC4wODk2IDAuMDY3OSwtMC4wNTk0IDAuMTAyMTk0LC0wLjEzNzc5IDAuMTAyMTk0LC0wLjIzNTM3IDAsLTAuMDk3NyAtMC4wMzQzMSwtMC4xNzYgLTAuMTAyMTk0LC0wLjIzNTM4IC0wLjA2NTc3LC0wLjA2MTUgLTAuMTc3MTI2LC0wLjA5MjUgLTAuMzM0MTIzLC0wLjA5MjUgeiBtIC0zMy45NDU2NjMsMC4zMjQ5NCBjIDAuMjIwNjQzLDAgMC40NjEyNjEsMC4wMjU1IDAuNzIyMjEzLDAuMDc2NCB2IDAuMjgwMTYgYyAtMC4xNTQ4NzUsMC4xMDYwOSAtMC4zMzE2MTIsMC4xODk5NiAtMC41MzEwMzgsMC4yNTE0NSAtMC4xOTczMDcsMC4wNjE1IC0wLjM3NDYxNSwwLjA5MjUgLTAuNTMxNjEyLDAuMDkyNSAtMC4xODQ1NzYsMCAtMC4zMzAyMzUsLTAuMDM1MSAtMC40MzYzMTMsLTAuMTA1MDYgLTAuMDU3MjksLTAuMDM4MiAtMC4wODYxMSwtMC4wODgzIC0wLjA4NjExLC0wLjE0OTgyIDAsLTAuMDg0OSAwLjA2MDMxLC0wLjE2ODExIDAuMTc5MTE3LC0wLjI1MDg5IDAuMTkwOTQxLC0wLjEyOTQ3IDAuNDE4NTUyLC0wLjE5NDYxIDAuNjgzNzQ3LC0wLjE5NDYxIHogbSAxMC4wOTE0NDIsMi41NDg5OCBjIC0wLjE1Njk5MiwwIC0wLjI2ODM1MywwLjAzMDIgLTAuMzM0MTIzLDAuMDg5NiAtMC4wNjc5LDAuMDYxNSAtMC4xMDE2MTUsMC4xNDEyMyAtMC4xMDE2MTUsMC4yMzg4MiAwLDAuMDk3NyAwLjAzMzczLDAuMTc1OTggMC4xMDE2MTUsMC4yMzUzOCAwLjA2NTc3LDAuMDU5NCAwLjE3NzEzLDAuMDg5IDAuMzM0MTIzLDAuMDg5IGggMy41ODM1IGMgMC4xNTY5OTcsMCAwLjI2ODM1NSwtMC4wMzA5IDAuMzM0MTI1LC0wLjA5MjUgMC4wNjU3NywtMC4wNTk0IDAuMDk4MTcsLTAuMTM2NDcgMC4wOTgxNywtMC4yMzE5MyAwLC0wLjA5NzcgLTAuMDMzNzIsLTAuMTc3MzMgLTAuMTAxNjE2LC0wLjIzODgyIC0wLjA2NTc3LC0wLjA1OTQgLTAuMTc1ODA2LC0wLjA4OTYgLTAuMzMwNjgsLTAuMDg5NiB6IG0gMzcuMzA5ODU4LDIuNjE5MDEgLTEuNDAzNjYzLDAuMzYyODMgYyAtMC4xNDIxNDgsMC4wMzgxIC0wLjIzNTYwNywwLjA4MjggLTAuMjgwMTU3LDAuMTMzNzggLTAuMDQ0NTUsMC4wNDg5IC0wLjA2NzE3LDAuMTE1NzQgLTAuMDY3MTcsMC4yMDI2NSAwLDAuMDk1MyAwLjAzMDE1LDAuMTc2NDcgMC4wODk1NiwwLjI0MjI3IDAuMDYxNTEsMC4wNjU5IDAuMTMzNjkzLDAuMDk4NyAwLjIxNjQzMywwLjA5ODcgMC4wNDY2NywwIDAuMTE2MTg3LC0wLjAxMjkgMC4yMDk1NDUsLTAuMDM3OSBsIDAuNTgyNzA2LC0wLjE1MjcxIHYgMi43MjA2NCBoIC0wLjY1OTA1NCBjIC0wLjE1Njk5NiwwIC0wLjI2ODUzLDAuMDMwOCAtMC4zMzY0MiwwLjA5MjUgLTAuMDY1NzcsMC4wNTk0IC0wLjA5OTMyLDAuMTM3MDMgLTAuMDk5MzIsMC4yMzI1MSAwLDAuMDk3NyAwLjAzMzU1LDAuMTc3MzIgMC4wOTkzMiwwLjIzODgyIDAuMDY3OSwwLjA1OTQgMC4xNzk0MjQsMC4wODg0IDAuMzM2NDIsMC4wODg0IGggMS45NzAyOTQgYyAwLjE1Njk5MywwIDAuMjY4MzUzLC0wLjAyOSAwLjMzNDEyMywtMC4wODg0IDAuMDY3OSwtMC4wNjE1IDAuMTAxNjE1LC0wLjE0MDQ5IDAuMTAxNjE1LC0wLjIzNTk2IDAsLTAuMDk3NyAtMC4wMzM3MiwtMC4xNzYgLTAuMTAxNjE1LC0wLjIzNTM3IC0wLjA2NTc3LC0wLjA2MTUgLTAuMTc3MTI4LC0wLjA5MjUgLTAuMzM0MTIzLC0wLjA5MjUgSCA4OC44NjM2OCBaIG0gLTMwLjcyMjY5MywwLjAzODUgdiA1LjhlLTQgYyAtMC4wODA2MiwwIC0wLjE1MzUzNCwwLjAyODQgLTAuMjE5MzA0LDAuMDg1NSAtMC4wNjU3NywwLjA1NTEgLTAuMTY4MDkxLDAuMjA1NyAtMC4zMDU5OTIsMC40NTE4MSAtMC4xOTA5NDEsMC4zNDM2OCAtMC4zMzE4ODEsMC42NTUxNSAtMC40MjMxMDgsMC45MzUyMSAtMC4xMjMwNTUsMC4zNzk3NSAtMC4xODQyODUsMC43NTU2NyAtMC4xODQyODUsMS4xMjY5NCAwLDAuMzU4NTUgMC4wNTc4NCwwLjcyNDI3IDAuMTc0NTI2LDEuMDk3NjcgMC4wNzQyNiwwLjI0Mzk3IDAuMjEyMzcyLDAuNTUzOTMgMC40MTM5MjIsMC45Mjk0NiAwLjE0MDAyNSwwLjI1ODg1IDAuMjUyNzA2LDAuNDI1OCAwLjMzNzU2NywwLjUwMDAzIDAuMDU5NDEsMC4wNTA5IDAuMTI4MTcsMC4wNzY0IDAuMjA2Njc0LDAuMDc2NCAwLjA5MzM1LDAgMC4xNzE3MzEsLTAuMDMyIDAuMjM1MzgxLC0wLjA5NTkgMC4wNjM2NSwtMC4wNjM2IDAuMDk1MywtMC4xMzk5NCAwLjA5NTMsLTAuMjI5MDcgMCwtMC4wNjM3IC0wLjAyNTQyLC0wLjEzNzE4IC0wLjA3NjM1LC0wLjIxOTg3IC0wLjIyOTEzLC0wLjM3NTUxIC0wLjM5NjI1NSwtMC43MjgwOCAtMC41MDIzMzMsLTEuMDU2OTIgLTAuMTAzOTYzLC0wLjMyODg0IC0wLjE1NjE1NSwtMC42NjI5MSAtMC4xNTYxNTUsLTEuMDAyMzcgMCwtMC4zMzczMiAwLjA1MjIsLTAuNjcwMDggMC4xNTYxNTUsLTAuOTk4OTIgMC4xMDYwODQsLTAuMzI4ODUgMC4yNzMyMDMsLTAuNjgwODIgMC41MDIzMzMsLTEuMDU2MzMgMC4wNTA5MywtMC4wODQ5IDAuMDc2MzUsLTAuMTU3ODEgMC4wNzYzNSwtMC4yMTkzMSAwLC0wLjA4OSAtMC4wMzE2NCwtMC4xNjU5MyAtMC4wOTUzLC0wLjIyOTYzIC0wLjA2MzY1LC0wLjA2MzcgLTAuMTQyMDMzLC0wLjA5NTQgLTAuMjM1MzgxLC0wLjA5NTQgeiBtIDEuNTc1MzE4LDAuMDU3NSBjIC0wLjE1Njk5NSwwIC0wLjI2OTY3OSwwLjAzMDggLTAuMzM3NTY5LDAuMDkyNSAtMC4wNjU3NywwLjA1OTQgLTAuMDk4MTcsMC4xMzcwNCAtMC4wOTgxNywwLjIzMjUxIDAsMC4wOTc3IDAuMDMyNCwwLjE3NzMyIDAuMDk4MTcsMC4yMzg4MyAwLjA2NzksMC4wNTk0IDAuMTgwNTc0LDAuMDg4NCAwLjMzNzU2OSwwLjA4ODQgaCAwLjExMTM3NCB2IDIuODIzNCBjIC0wLjE2NTQ4MiwtMC4wMDIgLTAuMjc0MDE3LDAuMDEzNiAtMC4zMjQ5MzksMC4wNDc3IC0wLjEwMzk2MSwwLjA2NTggLTAuMTU1NTc4LDAuMTU3ODkgLTAuMTU1NTc4LDAuMjc2NzEgMCwwLjA5NzcgMC4wMzI0LDAuMTc3MzUgMC4wOTgxNywwLjIzODgzIDAuMDY3OSwwLjA1OTQgMC4xODA1NzEsMC4wODg0IDAuMzM3NTY3LDAuMDg4NCBoIDAuNzQxNzMxIGMgMC4xNTY5OTUsMCAwLjI2ODM1NSwtMC4wMjkgMC4zMzQxMjQsLTAuMDg4NCAwLjA2NzksLTAuMDYxNSAwLjEwMjE5MywtMC4xNDA0OCAwLjEwMjE5MywtMC4yMzU5NSAwLC0wLjEyMDk0IC0wLjA1MjE5LC0wLjIxMzc4IC0wLjE1NjE1NCwtMC4yNzk1OSAtMC4wNDg4LC0wLjAzMTggLTAuMTU3MzM0LC0wLjA0NzcgLTAuMzI0OTM4LC0wLjA0NzcgdiAtMS4yMjIyNSBjIDAuMTg4ODIxLC0wLjE4NjY5IDAuMzM4NjIzLC0wLjMwNzY3IDAuNDQ4OTQzLC0wLjM2MjgzIDAuMTEyNDM5LC0wLjA1NzMgMC4yNDA5NSwtMC4wODU1IDAuMzg1MjE3LC0wLjA4NTUgMC4xOTUxODQsMCAwLjM0MjM0MSwwLjA0NDkgMC40NDIwNTMsMC4xMzYwNiAwLjA3NjM3LDAuMDY3OCAwLjExNDI0NSwwLjE4NTQ1IDAuMTE0MjQ1LDAuMzUzMDYgdiAxLjE4MTUgYyAtMC4xNjMzNjEsLTAuMDAyIC0wLjI3MTMyNSwwLjAxMzYgLTAuMzI0MzYzLDAuMDQ3NyAtMC4xMDE4MzIsMC4wNjU4IC0wLjE1MjcxMSwwLjE1Nzg4IC0wLjE1MjcxMSwwLjI3NjcyIDAsMC4wOTc3IDAuMDMyOTgsMC4xNzczNCAwLjA5ODc1LDAuMjM4ODIgMC4wNjc4OSwwLjA1OTQgMC4xNzkyNSwwLjA4ODQgMC4zMzQxMjMsMC4wODg0IGggMC43NDQ2MDEgYyAwLjE1Njk5NiwwIDAuMjY4MzU1LC0wLjAyOTEgMC4zMzQxMjQsLTAuMDg4NCAwLjA2NTc3LC0wLjA2MTUgMC4wOTkzMiwtMC4xNDA0OCAwLjA5OTMyLC0wLjIzNTk0IDAsLTAuMTIwODIgLTAuMDUwODcsLTAuMjEzNzggLTAuMTUyNzA4LC0wLjI3OTYgLTAuMDUwOTMsLTAuMDMxOCAtMC4xNTk0NTUsLTAuMDQ3NyAtMC4zMjQ5MzgsLTAuMDQ3NyB2IC0xLjIyNTcgYyAwLC0wLjI1MDMzIC0wLjA1ODQxLC0wLjQ1NzIzIC0wLjE3NTA5OSwtMC42MjA1OCAtMC4xMTQ1NzIsLTAuMTY1NTEgLTAuMjU5NjQ5LC0wLjI4NjQ5IC0wLjQzNTczOCwtMC4zNjI4NCAtMC4xNzYwOTEsLTAuMDc2NCAtMC4zNzY3NjcsLTAuMTE0MjYgLTAuNjAxNjUyLC0wLjExNDI2IC0wLjE0MjE0NiwwIC0wLjI4MzY1NiwwLjAyMDEgLTAuNDIzNjgyLDAuMDYwMyAtMC4xMzc4OTksMC4wMzgyIC0wLjI3NDY5OCwwLjA5NzQgLTAuNDEwNDc4LDAuMTc3OTYgdiAtMS4zOTA0NCB6IG0gLTEzLjU5MTY5OSwwLjI2NTggYyAtMC4xNTY5OTQsMCAtMC4yNjk2NzYsMC4wMzA4IC0wLjMzNzU2OCwwLjA5MjQgLTAuMDY1NzcsMC4wNTk0IC0wLjA5ODc1LDAuMTM4MzcgLTAuMDk4NzUsMC4yMzU5NiAwLDAuMDk3NyAwLjAzMjk4LDAuMTc2NzYgMC4wOTg3NSwwLjIzODI0IDAuMDY3OTEsMC4wNTk0IDAuMTgwNTc0LDAuMDg5MSAwLjMzNzU2OCwwLjA4OTEgaCAwLjIzNTM3OSB2IDEuOTYzOTggbCAtMS42NjcxNzEsLTIuNjE2MTYgLTAuNzU0MzYxLC0wLjAwMiBjIC0wLjE1Njk5OCwwIC0wLjI2OTY3OSwwLjAzMDggLTAuMzM3NTY5LDAuMDkyNSAtMC4wNjU3NywwLjA1OTQgLTAuMDk4NzUsMC4xMzc3OSAtMC4wOTg3NSwwLjIzNTM5IDAsMC4wOTc3IDAuMDMyOTcsMC4xNzY3NSAwLjA5ODc1LDAuMjM4MjQgMC4wNjc5MSwwLjA1OTQgMC4xODA1NzEsMC4wODk2IDAuMzM3NTY5LDAuMDg5NiBoIDAuMTAxNjE2IHYgMi41NTI0MiBjIC0wLjEzNzksMCAtMC4yMzk2NSwwLjAzMDggLTAuMzA1NDE5LDAuMDkyNSAtMC4wMjksMC4wMjcgLTAuMDQ5MjMsMC4wNTgzIC0wLjA2NTQ1LDAuMDkxOCAtMC4wMjQyNCwtMC4wNTA3IC0wLjA1OTg5LC0wLjA5NjEgLTAuMTEyNTI0LC0wLjEzMzc1IC0wLjA0ODgsLTAuMDMzOSAtMC4xNTAzNjgsLTAuMDUxMSAtMC4zMDMxMjEsLTAuMDUxMSBsIC0xLjI5ODAyOCwtMy4yMDQ2IC0xLjQwOTQwNCwtMC4wMDIgYyAtMC4xNTY5OTgsMCAtMC4yNjk2NzgsMC4wMzAzIC0wLjMzNzU2NywwLjA5MTggLTAuMDY1NzcsMC4wNTk0IC0wLjA5ODE3LDAuMTM3NzkgLTAuMDk4MTcsMC4yMzUzNyAwLDAuMDk3NyAwLjAzMjQsMC4xNzczMyAwLjA5ODE3LDAuMjM4ODIgMC4wNjc5LDAuMDU5NCAwLjE4MDU3MSwwLjA4OSAwLjMzNzU2NywwLjA4OSBoIDAuNDI1OTc4IGwgLTEuMDI0MTg0LDIuNTUyNDMgYyAtMC4xNjEyNCwtMC4wMDMgLTAuMjc3MzE3LDAuMDI0NSAtMC4zNDczMjcsMC4wODYyIC0wLjA3MDAxLDAuMDYxNiAtMC4xMDUwNiwwLjE0MDY1IC0wLjEwNTA2LDAuMjM4MjYgMCwwLjA5NzcgMC4wMzM3MSwwLjE3NzM0IDAuMTAxNjE2LDAuMjM4ODIgMC4wNjU3NywwLjA1OTQgMC4xNzcxMjcsMC4wODkgMC4zMzQxMjMsMC4wODkgaCAwLjg3ODM2NSBjIDAuMTU2OTk1LDAgMC4yNjgzNTMsLTAuMDI5NSAwLjMzNDEyMywtMC4wODkgMC4wNjc5LC0wLjA2MTUgMC4xMDIxODMsLTAuMTQwNDggMC4xMDIxODMsLTAuMjM1OTUgMCwtMC4wOTc3IC0wLjAzNDMxLC0wLjE3NiAtMC4xMDIxODMsLTAuMjM1MzggLTAuMDY1NzcsLTAuMDYxNSAtMC4xNzcxMjcsLTAuMDkxOSAtMC4zMzQxMjMsLTAuMDkxOSBoIC0wLjE1OTAyNSBsIDAuMTU5MDI1LC0wLjM5ODQxIGggMS41ODUwNzYgbCAwLjE1NjE1NCwwLjM5Nzg0IGggLTAuMTU5MDI0IGMgLTAuMTU2OTk3LDAgLTAuMjY5Njc3LDAuMDMwMyAtMC4zMzc1NjksMC4wOTE5IC0wLjA2NTc3LDAuMDU5NCAtMC4wOTg3NSwwLjEzNzAzIC0wLjA5ODc1LDAuMjMyNSAwLDAuMDk3NyAwLjAzMjk4LDAuMTc3MzMgMC4wOTg3NSwwLjIzODgzIDAuMDY3OTEsMC4wNTk0IDAuMTgwNTczLDAuMDg5NiAwLjMzNzU2OSwwLjA4OTYgaCAwLjg3ODM2NSBjIDAuMTU2OTk2LDAgMC4yNjgzNTQsLTAuMDMwMiAwLjMzNDEyMywtMC4wODk2IDAuMDI5LC0wLjAyNzIgMC4wNDg2NywtMC4wNTkyIDAuMDY0ODgsLTAuMDkzIDAuMDE2MjEsMC4wMzQxIDAuMDM2NTMsMC4wNjY0IDAuMDY1NDUsMC4wOTM1IDAuMDY3OTEsMC4wNTk0IDAuMTgwNTcyLDAuMDg5IDAuMzM3NTY4LDAuMDg5IGggMC44NTU5NzUgYyAwLjE1Njk5NCwwIDAuMjY4MzU0LC0wLjAyOTUgMC4zMzQxMjQsLTAuMDg5IDAuMDY3OSwtMC4wNjE1IDAuMTAxNjE3LC0wLjE0MDQ3IDAuMTAxNjE3LC0wLjIzNTk1IDAsLTAuMDk3NyAtMC4wMzM3MywtMC4xNzYwMSAtMC4xMDE2MTcsLTAuMjM1MzkgLTAuMDY1NzcsLTAuMDYxNSAtMC4xNzcxMjcsLTAuMDkxOSAtMC4zMzQxMjQsLTAuMDkxOSBoIC0wLjIzNTM4IHYgLTEuOTczNzUgbCAxLjY3NjkzMSwyLjYyNDc3IEggNDcuMDE1NiB2IC0zLjIwNDAzIGMgMC4xMzU3NzcsMCAwLjIzNjc3OCwtMC4wMzE2IDAuMzAyNTQ3LC0wLjA5MyAwLjA2NTc3LC0wLjA2MTUgMC4wOTgxNywtMC4xMzk5MiAwLjA5ODE3LC0wLjIzNTM4IDAsLTAuMDk3NyAtMC4wMzM3MiwtMC4xNzU5OSAtMC4xMDE2MTcsLTAuMjM1MzcgLTAuMDY1NzcsLTAuMDU5NCAtMC4xNzcxMjgsLTAuMDg5MSAtMC4zMzQxMjQsLTAuMDg5MSB6IG0gMS44NjgxMDYsOS42ZS00IGMgLTAuMTU2OTk2LDAgLTAuMjY5Njc5LDAuMDMwMyAtMC4zMzc1NjgsMC4wOTE5IC0wLjA2NTc3LDAuMDU5NCAtMC4wOTgxNywwLjEzNzc4IC0wLjA5ODE3LDAuMjM1MzggMCwwLjA5NTQgMC4wMzI0LDAuMTc0NDYgMC4wOTgxNywwLjIzNTk2IDAuMDY1NzcsMC4wNTk3IDAuMTY3NTE3LDAuMDg5OSAwLjMwNTQxOSwwLjA5MTggdiAyLjU1MTg2IGMgLTAuMTM1NzgxLC0wLjAwMiAtMC4yMzc1MywwLjAyODEgLTAuMzA1NDE5LDAuMDg5NiAtMC4wNjU3NywwLjA2MTUgLTAuMDk4MTcsMC4xMzk5IC0wLjA5ODE3LDAuMjM1MzggMCwwLjA5NzcgMC4wMzI0LDAuMTc2NzYgMC4wOTgxNywwLjIzODI1IDAuMDY3OSwwLjA1OTQgMC4xODA1NzIsMC4wODk2IDAuMzM3NTY4LDAuMDg5NiBoIDEuMzExMjMyIGMgMC4zMzczMjgsMCAwLjYxMTY3MSwtMC4wNTAxIDAuODIzODI3LC0wLjE0OTg0IDAuMTMzNjU5LC0wLjA2MzYgMC4yNzU5MjIsLTAuMTYyNTcgMC40MjY1NTMsLTAuMjk2MjQgMC4xNTI3NTQsLTAuMTM1NzUgMC4yNzU3OTQsLTAuMzA5MTEgMC4zNjkxNDIsLTAuNTIxMjcgMC4wOTMzNSwtMC4yMTQyNyAwLjE0MDA4LC0wLjQ1OTYxIDAuMTQwMDgsLTAuNzM1NDEgdiAtMC4zMTE3NSBjIDAsLTAuMjI2OTkgLTAuMDI1NDMsLTAuNDE4ODQgLTAuMDc2MzUsLTAuNTc1ODEgLTAuMDUwOTEsLTAuMTU3MDEgLTAuMTI3Nzk5LC0wLjMxNTEgLTAuMjI5NjM3LC0wLjQ3NDIgLTAuMDk5NzIsLTAuMTU5MTIgLTAuMTk1NDIzLC0wLjI4NDI0IC0wLjI4ODc3LC0wLjM3NTQ2IC0wLjEyMzA1NSwtMC4xMjEwNyAtMC4yODY2MDgsLTAuMjIxMjIgLTAuNDkwMjc3LC0wLjI5OTY4IC0wLjIwMTU0OSwtMC4wNzg1IC0wLjQwODQ0LC0wLjExNzExIC0wLjYyMDU5NywtMC4xMTcxMSB6IG0gMjMuNDY2NzA2LDAgYyAtMC4xNTY5OTcsMCAtMC4yNjk2OCwwLjAzMDMgLTAuMzM3NTY5LDAuMDkxOSAtMC4wNjU3NywwLjA1OTQgLTAuMDk4MTcsMC4xMzc3OCAtMC4wOTgxNywwLjIzNTM4IDAsMC4wOTU0IDAuMDMyMzksMC4xNzQ0NiAwLjA5ODE3LDAuMjM1OTYgMC4wNjU3NywwLjA1OTcgMC4xNjc1MTYsMC4wODk5IDAuMzA1NDE4LDAuMDkxOCB2IDIuNTUxODYgYyAtMC4xMzU3NzgsLTAuMDAyIC0wLjIzNzUyOSwwLjAyODEgLTAuMzA1NDE4LDAuMDg5NiAtMC4wNjU3NywwLjA2MTUgLTAuMDk4MTcsMC4xMzk5IC0wLjA5ODE3LDAuMjM1MzggMCwwLjA5NzcgMC4wMzIzOSwwLjE3Njc2IDAuMDk4MTcsMC4yMzgyNSAwLjA2NzksMC4wNTk0IDAuMTgwNTcyLDAuMDg5NiAwLjMzNzU2OSwwLjA4OTYgaCAxLjMxMTIzMyBjIDAuMzM3MzI2LDAgMC42MTE2NjgsLTAuMDUwMSAwLjgyMzgyNSwtMC4xNDk4NCAwLjEzMzY1NywtMC4wNjM2IDAuMjc1OTIyLC0wLjE2MjU3IDAuNDI2NTUyLC0wLjI5NjI0IDAuMTUyNzU0LC0wLjEzNTc1IDAuMjc1Nzk0LC0wLjMwOTExIDAuMzY5MTQzLC0wLjUyMTI3IDAuMDkzMzUsLTAuMjE0MjcgMC4xMzk1MDUsLTAuNDU5NjEgMC4xMzk1MDUsLTAuNzM1NDEgdiAtMC4zMTE3NSBjIDAsLTAuMjI2OTkgLTAuMDI1NDMsLTAuNDE4ODQgLTAuMDc2MzUsLTAuNTc1ODEgLTAuMDUwOTIsLTAuMTU3MDEgLTAuMTI3MjI2LC0wLjMxNTEgLTAuMjI5MDY0LC0wLjQ3NDIgLTAuMDk5NzEsLTAuMTU5MTIgLTAuMTk1NDIzLC0wLjI4NDI0IC0wLjI4ODc3MiwtMC4zNzU0NiAtMC4xMjMwNTQsLTAuMTIxMDcgLTAuMjg2NjA4LC0wLjIyMTIyIC0wLjQ5MDI3NSwtMC4yOTk2OCAtMC4yMDE1NDksLTAuMDc4NSAtMC40MDg0NDIsLTAuMTE3MTEgLTAuNjIwNTk4LC0wLjExNzExIHogbSAtMjIuODQ2MTEsMC42NTUwNCBoIDAuNjg3MTkyIGMgMC4yMzEyNSwwIDAuNDIzNjM5LDAuMDQ1OSAwLjU3NjM5MSwwLjEzNzIyIDAuMTU0ODc1LDAuMDg5IDAuMjkzMTY4LDAuMjU0NzMgMC40MTYyMTgsMC40OTY1OCAwLjA3ODUxLDAuMTU0ODcgMC4xMTgyNjQsMC4zMzQ0NSAwLjExODI2NCwwLjU0MDI0IHYgMC4zMDk0MyBjIDAsMC4yMzk3NCAtMC4wNDM5MSwwLjQzNDM2IC0wLjEzMDg5NCwwLjU4NDk5IC0wLjA4Njk4LDAuMTUwNjQgLTAuMjE2MjQxLDAuMjc0NDMgLTAuMzg4MDg3LDAuMzcyMDIgLTAuMTMxNTQsMC4wNzQyIC0wLjMyNjc0NiwwLjExMTk2IC0wLjU4NTU3NywwLjExMTk2IGggLTAuNjkzNTA3IHogbSAyMy40NjY3MDUsMCBIIDcyLjc2NzIgYyAwLjIzMTI0OSwwIDAuNDIzNjM3LDAuMDQ1OSAwLjU3NjM5MSwwLjEzNzIyIDAuMTU0ODczLDAuMDg5IDAuMjkzMTY3LDAuMjU0NzMgMC40MTYyMTgsMC40OTY1OCAwLjA3ODUxLDAuMTU0ODcgMC4xMTgyNjQsMC4zMzQ0NSAwLjExODI2NCwwLjU0MDI0IHYgMC4zMDk0MyBjIDAsMC4yMzk3NCAtMC4wNDM5MiwwLjQzNDM2IC0wLjEzMDg5NCwwLjU4NDk5IC0wLjA4Njk5LDAuMTUwNjQgLTAuMjE2MjQyLDAuMjc0NDMgLTAuMzg4MDg4LDAuMzcyMDIgLTAuMTMxNTQsMC4wNzQyIC0wLjMyNjc0NiwwLjExMTk2IC0wLjU4NTU3NywwLjExMTk2IGggLTAuNjkzNTA3IHogbSAtMzAuNDgwNDIzLDAuMjEwMTMgMC41MjQ3MjIsMS4yOTIyOSBoIC0xLjA1MzQ2NCB6IG0gMzguOTI1OTM1LDAuMDEgYyAtMC40NDM0MDcsMCAtMC44MTQ2MDUsMC4xNDkwNCAtMS4xMTM3NDUsMC40NDYwNyAtMC4yOTkxNCwwLjI5NDkgLTAuNDQ4MzY4LDAuNjYxMjEgLTAuNDQ4MzY4LDEuMDk4MjQgMCwwLjQzNDkyIDAuMTQ5MjI4LDAuODAwNjUgMC40NDgzNjgsMS4wOTc2NiAwLjI5OTE0LDAuMjk0OTEgMC42NzAzMzgsMC40NDIwNyAxLjExMzc0NSwwLjQ0MjA3IDAuMTU2OTk2LDAgMC4zMDk2MTksLTAuMDIyNyAwLjQ1ODEyNywtMC4wNjk1IDAuMTUwNjMyLC0wLjA0NjcgMC4yOTgzNjEsLTAuMTE2NzUgMC40NDI2MjcsLTAuMjEwMTEgdiAwLjMxNzQ4IGMgMCwwLjE2NTQ4IC0wLjA1NTU5LDAuMzAyMjggLTAuMTY1OTEzLDAuNDEwNDcgLTAuMTEwMzE3LDAuMTA4MjEgLTAuMjY0NDQxLDAuMTYyNDcgLTAuNDYzODY4LDAuMTYyNDcgaCAtMC43MTk5MTcgYyAtMC4xNTY5OTUsMCAtMC4yNjg1MjgsMC4wMzAyIC0wLjMzNjQxOSwwLjA4OTYgLTAuMDY1NzcsMC4wNjE1IC0wLjA5OTMyLDAuMTQxMjQgLTAuMDk5MzIsMC4yMzg4NCAwLDAuMDk1NiAwLjAzMzU1LDAuMTczMTEgMC4wOTkzMiwwLjIzMjUxIDAuMDY3ODksMC4wNjE1IDAuMTc5NDI0LDAuMDkxOCAwLjMzNjQxOSwwLjA5MTggaCAwLjczODg2MiBjIDAuMjUwMzQ0LDAgMC40NzUxMzUsLTAuMDYxOCAwLjY3NDU2MSwtMC4xODQ4NiAwLjE5OTQyOCwtMC4xMjI5OSAwLjM0NjU4NCwtMC4yNzA3NyAwLjQ0MjA1NCwtMC40NDI2MyAwLjA5NzU4LC0wLjE2OTcxIDAuMTQ2OTY3LC0wLjM2ODUyIDAuMTQ2OTY3LC0wLjU5NzY0IHYgLTIuMzczODggaCAwLjExMDgwMiBjIDAuMTU2OTkyLDAgMC4yNjgzNTMsLTAuMDMwMSAwLjMzNDEyMywtMC4wODk2IDAuMDY3OSwtMC4wNjE1IDAuMTAxNjE2LC0wLjEzOTkgMC4xMDE2MTYsLTAuMjM1MzcgMCwtMC4wOTc3IC0wLjAzMzcyLC0wLjE3NjU3IC0wLjEwMTYxNiwtMC4yMzU5NiAtMC4wNjU3NywtMC4wNjE1IC0wLjE3NzEyOCwtMC4wOTE5IC0wLjMzNDEyMywtMC4wOTE5IGggLTAuNzYzNTQ4IHYgMC4xOTQwNSBjIC0wLjEzNTc3OSwtMC4wOTc3IC0wLjI3ODc5MywtMC4xNjkyNCAtMC40Mjk0MjIsLTAuMjE1ODUgLTAuMTQ4NTExLC0wLjA0ODkgLTAuMzA1ODUyLC0wLjA3NCAtMC40NzEzMzIsLTAuMDc0IHogbSAtMTUuNTAxMTM4LDAuMDExNCBjIC0wLjEzNTc4MiwwIC0wLjI4NzA4LDAuMDEzOSAtMC40NTQ2ODQsMC4wNDE0IC0wLjE2NzYwMiwwLjAyNTUgLTAuMzMyNDgyLDAuMDYwNyAtMC40OTM3MjEsMC4xMDUwNSAtMC4xMjA5MjksMC4wMzM5IC0wLjIwMDYzNCwwLjA2MyAtMC4yMzg4MjQsMC4wODg0IC0wLjAzODE5LDAuMDIzMyAtMC4wNjcxOSwwLjA1NiAtMC4wODg0MSwwLjA5NjQgLTAuMDIxMjIsMC4wNDAzIC0wLjAzMjE2LDAuMDg3OSAtMC4wMzIxNiwwLjE0Mjk2IDAsMC4wOTc2IDAuMDI5NTksMC4xNzc5OSAwLjA4ODk5LDAuMjQxNjggMC4wNjE1MywwLjA2MTUgMC4xMzU3NjcsMC4wOTI1IDAuMjIyNzQ3LDAuMDkyNSAwLjA2MzY1LDAgMC4xNTIzOSwtMC4wMTM5IDAuMjY2OTU2LC0wLjA0MTQgMC4zMDc2MjYsLTAuMDc2NCAwLjU1ODQyOCwtMC4xMTQ4MyAwLjc1MTQ4OSwtMC4xMTQ4MyAwLjIzNTQ5NSwwIDAuMzk0OTA2LDAuMDMwOCAwLjQ3NzY0NywwLjA5MjQgMC4wODQ4NiwwLjA2MTYgMC4xMjY4NzUsMC4xNDEyNiAwLjEyNjg3NSwwLjIzODgzIHYgMC4xNTYxNiBjIC0wLjI1ODgzMSwtMC4wNDIzIC0wLjQ4NzAxNSwtMC4wNjQyIC0wLjY4NDMyMSwtMC4wNjQyIC0wLjQ5MjIwMSwwIC0wLjg3ODQ3NiwwLjExNzYgLTEuMTU4NTIzLDAuMzUzMDcgLTAuMjc3OTI0LDAuMjMzMzYgLTAuNDE2NzkzLDAuNDg3NTQgLTAuNDE2NzkzLDAuNzYxMjQgMCwwLjIyNDg3IDAuMTA5ODY2LDAuNDMwNDUgMC4zMjgzODIsMC42MTcxNiAwLjIxODUyLDAuMTg0NTkgMC41MDI0NzIsMC4yNzY3IDAuODUyNTMxLDAuMjc2NyAwLjE2MTIzOCwwIDAuMzQwNjIsLTAuMDIyMSAwLjUzNzkyNywtMC4wNjY3IDAuMTk3MzA2LC0wLjA0MjQgMC4zNzc0MzYsLTAuMTA3NTggMC41NDA3OTcsLTAuMTk0NjIgdiAwLjE1MjcgaCAwLjc2MzU0NiBjIDAuMTU2OTk2LDAgMC4yNjgzNTUsLTAuMDI5MSAwLjMzNDEyNCwtMC4wODg0IDAuMDY3OSwtMC4wNjE1IDAuMTAyMTg0LC0wLjE0MDQ4IDAuMTAyMTg0LC0wLjIzNTk1IDAsLTAuMDk3NyAtMC4wMzQzMSwtMC4xNzU5OSAtMC4xMDIxODQsLTAuMjM1MzggLTAuMDY1NzcsLTAuMDYxNSAtMC4xNzcxMjYsLTAuMDkyNSAtMC4zMzQxMjQsLTAuMDkyNSBoIC0wLjExMDggdiAtMS4zNDMzOCBjIDAsLTAuMzAzMzggLTAuMTEyNjgyLC0wLjU0MTk0IC0wLjMzNzU2NywtMC43MTU5MSAtMC4yMjI3NjYsLTAuMTc2MDkgLTAuNTM2ODczLC0wLjI2MzUgLTAuOTQyMDksLTAuMjYzNSB6IG0gMy45NDkxOTksMCBjIC0wLjQzMjc5OCwwIC0wLjc4MjcwMiwwLjEwNTkxIC0xLjA1MDAyMSwwLjMxODA1IC0wLjE5NzMwMywwLjE1NDg4IC0wLjI5NjIzMiwwLjM0OTM0IC0wLjI5NjIzMiwwLjU4MjcgMCwwLjIyNzAxIDAuMDg4NTYsMC40MTgwOCAwLjI2NDY1OCwwLjU3Mjk1IDAuMTc2MDg5LDAuMTU2OTkgMC41MjU5OTMsMC4yNjIzMiAxLjA1MDAyLDAuMzE3NDggMC4zNTIxNzgsMC4wMzgxIDAuNTg0NTA3LDAuMDg1NiAwLjY5Njk1MSwwLjE0MDY1IDAuMTEyNDM4LDAuMDU1MSAwLjE2ODc4NCwwLjEyNTE3IDAuMTY4Nzg0LDAuMjEwMTIgMCwwLjA1MDggLTAuMDM5NzYsMC4wOTkgLTAuMTE4MjYzLDAuMTQ1ODEgLTAuMTY1NDgxLDAuMDkzMyAtMC4zOTc4MTEsMC4xNDA2NiAtMC42OTY5NTEsMC4xNDA2NiAtMC4xODI0NTUsMCAtMC4zNDMzNjQsLTAuMDIxOCAtMC40ODMzODksLTAuMDY0MyAtMC4xNDAwMjEsLTAuMDQ0NSAtMC4yNTk2NzEsLTAuMTA5MTIgLTAuMzU5MzgzLC0wLjE5NDAyIC0wLjAyOTcxLC0wLjEwNjEgLTAuMDcwOTgsLTAuMTgwMzYgLTAuMTI0MDA2LC0wLjIyMjc2IC0wLjA1MzA0LC0wLjA0NDYgLTAuMTE5NTc1LC0wLjA2NjUgLTAuMTk4MDYxLC0wLjA2NjUgLTAuMDk3NTgsMCAtMC4xNzY3MjIsMC4wMzMyIC0wLjIzODI1LDAuMTAwOTkgLTAuMDU5NCwwLjA2NTggLTAuMDg4OTgsMC4xNzc3IC0wLjA4ODk4LDAuMzM0NjkgdiAwLjIxOTMxIGMgMCwwLjE1Njk2IDAuMDI5NTgsMC4yNjk2NSAwLjA4ODk4LDAuMzM3NTYgMC4wNjE1MSwwLjA2NTkgMC4xNDMzMDMsMC4wOTg3IDAuMjQ1MTM5LDAuMDk4NyAwLjAzODE4LDAgMC4wNzUzMSwtMC4wMDkgMC4xMTEzNzMsLTAuMDIyNCAwLjAzNjA2LC0wLjAxNDggMC4wNjk3OCwtMC4wMzYzIDAuMTAxNjE2LC0wLjA2MzggMC4xMzM2NjEsMC4wNjM2IDAuMjgwMDY1LDAuMTExNjMgMC40MzkxODMsMC4xNDM1MSAwLjE2MTI0LDAuMDMzOCAwLjMzNTkwNSwwLjA1MDYgMC41MjQ3MjMsMC4wNTA2IDAuNDcwOTg2LDAgMC44NTQ0NCwtMC4xMTM1NSAxLjE0OTMzOCwtMC4zNDA0NCAwLjIwNTc5LC0wLjE1NzAxIDAuMzA4ODYzLC0wLjM1MjIxIDAuMzA4ODYzLC0wLjU4NTU4IDAsLTAuMTcxODYgLTAuMDYwNDksLTAuMzM0ODMgLTAuMTgxNDE0LC0wLjQ4OTcgLTAuMTIwOTI5LC0wLjE1NDkgLTAuMjkyNzcyLC0wLjI3MjI5IC0wLjUxNTUzNywtMC4zNTA3NiAtMC4xNjk3MjcsLTAuMDU5MyAtMC40NzE0MDEsLTAuMTE4NjIgLTAuOTA0MiwtMC4xNzc5NyAtMC4yMzU0OTMsLTAuMDMxOCAtMC4zODY3OTEsLTAuMDY0OCAtMC40NTQ2ODMsLTAuMDk4NyAtMC4wODkxMiwtMC4wNDY2IC0wLjEzMzc2NCwtMC4wOTQyIC0wLjEzMzc2NCwtMC4xNDI5NSAwLC0wLjA0MjMgMC4wMzI5OCwtMC4wODEgMC4wOTg3NSwtMC4xMTcxMSAwLjE0ODUwOSwtMC4wODI3IDAuMzQ5MTg1LC0wLjEyNDU4IDAuNjAxNjUxLC0wLjEyNDU4IDAuMTI3MjksMCAwLjI0OTAxMiwwLjAxNjUgMC4zNjU2OTgsMC4wNTA2IDAuMTE2Njc3LDAuMDMxOCAwLjIyODA0NCwwLjA4MTEgMC4zMzQxMjQsMC4xNDY5NyAwLjAxNjk4LDAuMDgwNiAwLjA1NDgzLDAuMTQ1MjMgMC4xMTQyNDQsMC4xOTQwNSAwLjA1OTQyLDAuMDQ4OSAwLjEyODc0OSwwLjA3MyAwLjIwNzI0OCwwLjA3MyAwLjExNjY3OSwwIDAuMjA5Mzk4LC0wLjA0ODIgMC4yNzcyODgsLTAuMTQ1ODIgMC4wMzM5NSwtMC4wNTA5IDAuMDQ5OTUsLTAuMTQ3NzcgMC4wNDk5NSwtMC4yODk5MiB2IC0wLjE1OTU5IGMgMCwtMC4xNTY5NiAtMC4wMjkwMSwtMC4yNjc3NiAtMC4wODg0MiwtMC4zMzM1NSAtMC4wNTk0MSwtMC4wNjc5IC0wLjEzMzY0MywtMC4xMDIyMyAtMC4yMjI3NDgsLTAuMTAyMjMgLTAuMDI5NywwIC0wLjA2MzI0LDAuMDA3IC0wLjA5OTMxLDAuMDIyNCAtMC4wMzM5NiwwLjAxNDcgLTAuMDcwNSwwLjAzNzMgLTAuMTEwOCwwLjA2NzIgLTAuMTI3MjksLTAuMDU5NCAtMC4yNjEyNjksLTAuMTAzMyAtMC40MDEyOTIsLTAuMTMwODkgLTAuMTM3OSwtMC4wMjk4IC0wLjI4MjIzNiwtMC4wNDQzIC0wLjQzMjg2OCwtMC4wNDQzIHogbSA3LjgyODM1OSwwIGMgLTAuMjk0ODk3LDAgLTAuNTc4MTAxLDAuMDcxNiAtMC44NDk2NjEsMC4yMTU4NSAtMC4yNjk0MzcsMC4xNDQyNyAtMC40NzYzMzEsMC4zNDI4OCAtMC42MjA1OTcsMC41OTUzNiAtMC4xNDQyNjUsMC4yNTAzNCAtMC4yMTU4NTksMC41MDYwMyAtMC4yMTU4NTksMC43NjY5NyAwLDAuMjU2NzIgMC4wNzE0MiwwLjUwMjc5IDAuMjEzNTYyLDAuNzM4MjkgMC4xNDIxNDcsMC4yMzU0NyAwLjM0OTAzNywwLjQyMjQyIDAuNjIwNTk3LDAuNTYwMzEgMC4yNzE1NTgsMC4xMzU3NyAwLjU1NDkzOSwwLjIwMzI1IDAuODUxOTU4LDAuMjAzMjUgMC4yOTkxNCwwIDAuNTg1NzM5LC0wLjA2ODggMC44NTk0MiwtMC4yMDY2OSAwLjI3NTgwNSwtMC4xNDAwMSAwLjQ4MjY5NSwtMC4zMjYzNSAwLjYyMDU5NywtMC41NTk3NCAwLjE0MDAyMiwtMC4yMzU1IDAuMjEwMTE5LC0wLjQ3ODc0IDAuMjEwMTE5LC0wLjcyOTA5IDAsLTAuMjYzMDcgLTAuMDcwMTEsLTAuNTE4NzggLTAuMjEwMTE5LC0wLjc2Njk5IC0wLjE0MDAyNCwtMC4yNTAzNCAtMC4zNDc2NjMsLTAuNDQ4MzkgLTAuNjIzNDY4LC0wLjU5NDc4IC0wLjI3MzY4MSwtMC4xNDg1IC0wLjU1OTUzMiwtMC4yMjI3NCAtMC44NTY1NDksLTAuMjIyNzQgeiBtIDYuNDI4NzE2LDAuMTc3OTggYyAtMC4xNTY5OTYsMCAtMC4yNjk2NzgsMC4wMzAzIC0wLjMzNzU2OSwwLjA5MTggLTAuMDY1NzcsMC4wNTkzIC0wLjA5ODE3LDAuMTM3MDMgLTAuMDk4MTcsMC4yMzI1MSAwLDAuMDk3NyAwLjAzMjQsMC4xNzczMSAwLjA5ODE3LDAuMjM4ODEgMC4wNjc4OSwwLjA1OTQgMC4xODA1NzQsMC4wODg0IDAuMzM3NTY5LDAuMDg4NCBoIDIuNzg3ODA0IGMgMC4xNTY5OTMsMCAwLjI2ODM1NCwtMC4wMjkxIDAuMzM0MTI0LC0wLjA4ODQgMC4wNjc4OSwtMC4wNjE1IDAuMTAxNjE1LC0wLjE0MDQ4IDAuMTAxNjE1LC0wLjIzNTk1IDAsLTAuMDk3NyAtMC4wMzM3MywtMC4xNzU5OSAtMC4xMDE2MTUsLTAuMjM1MzcgLTAuMDY1NzcsLTAuMDYxNiAtMC4xNzcxMjksLTAuMDkxOCAtMC4zMzQxMjQsLTAuMDkxOCB6IG0gLTIuNzExNDUxLDAuNDY0NDMgYyAwLjI0ODIyLDAgMC40NjA1OCwwLjA4NzQgMC42MzY2NzEsMC4yNjM1IDAuMTc4MjEsMC4xNzYxMSAwLjI2Njk1NSwwLjM4NDMxIDAuMjY2OTU1LDAuNjI0MDYgMCwwLjI0MTg1IC0wLjA4ODc1LDAuNDUwODIgLTAuMjY2OTU1LDAuNjI2OSAtMC4xNzYwOTEsMC4xNzM5NyAtMC4zODg0NTEsMC4yNjEyMSAtMC42MzY2NzEsMC4yNjEyMSAtMC4yNDgyMjUsMCAtMC40NjEzMzIsLTAuMDg3MiAtMC42Mzk1NDIsLTAuMjYxMjEgLTAuMTc2MDksLTAuMTc2MDggLTAuMjY0MDg0LC0wLjM4NTA1IC0wLjI2NDA4NCwtMC42MjY5IDAsLTAuMjM5NzUgMC4wODgsLTAuNDQ3OTUgMC4yNjQwODQsLTAuNjI0MDYgMC4xNzgyMSwtMC4xNzYwOSAwLjM5MTMxNywtMC4yNjM1IDAuNjM5NTQyLC0wLjI2MzUgeiBtIC0zLjcxNzI2NSwwLjAxIGMgMC4zMzUyMDYsMCAwLjYwNTk3OSwwLjExODg0IDAuODExNzcsMC4zNTY1IDAuMTUwNjMzLDAuMTc2MDkgMC4yMjYxOTQsMC4zNjkyMiAwLjIyNjE5NCwwLjU3OTI3IDAsMC4yMDU3NyAtMC4wOTk2OCwwLjM5NzYyIC0wLjI5OTEwNCwwLjU3NTgxIC0wLjE5OTQyNywwLjE3NjA5IC0wLjQ0NjA4NiwwLjI2NDA4IC0wLjczODg2LDAuMjY0MDggLTAuMjkwNjU1LDAgLTAuNTM1NDEyLC0wLjA4ODIgLTAuNzM0ODQxLC0wLjI2NDA4IC0wLjE5OTQyOCwtMC4xNzgxOSAtMC4yOTg1MywtMC4zNjg2OCAtMC4yOTg1MywtMC41NzIzNiAwLC0wLjI0ODIzIDAuMDk4MzYsLTAuNDY3MzYgMC4yOTU2NTksLTAuNjU2MiAwLjE5NzMwNSwtMC4xODg4MSAwLjQ0MjgxNSwtMC4yODMwMiAwLjczNzcxMiwtMC4yODMwMiB6IG0gNi40Mjg3MTYsMC43NTQzNSBjIC0wLjE1Njk5NiwwIC0wLjI2OTY3OCwwLjAzMDMgLTAuMzM3NTY5LDAuMDkxOSAtMC4wNjU3NywwLjA1OTQgLTAuMDk4MTcsMC4xMzgzNyAtMC4wOTgxNywwLjIzNTk1IDAsMC4wOTc3IDAuMDMyNCwwLjE3NiAwLjA5ODE3LDAuMjM1MzggMC4wNjc4OSwwLjA1OTQgMC4xODA1NzQsMC4wODk2IDAuMzM3NTY5LDAuMDg5NiBoIDIuNzg3ODA0IGMgMC4xNTY5OTMsMCAwLjI2ODM1NCwtMC4wMzAxIDAuMzM0MTI0LC0wLjA4OTYgMC4wNjc4OSwtMC4wNTk0IDAuMTAxNjE1LC0wLjEzNzc5IDAuMTAxNjE1LC0wLjIzNTM4IDAsLTAuMDk3NyAtMC4wMzM3MywtMC4xNzY1OSAtMC4xMDE2MTUsLTAuMjM1OTUgLTAuMDY1NzcsLTAuMDYxNSAtMC4xNzcxMjksLTAuMDkxOSAtMC4zMzQxMjQsLTAuMDkxOSB6IG0gLTE4LjMwMTU3NCwwLjMyNDk0IGMgMC4yMjA2NDEsMCAwLjQ2MTI1OSwwLjAyNTUgMC43MjIyMTEsMC4wNzY0IHYgMC4yNzk1OSBjIC0wLjE1NDg3NCwwLjEwNjA5IC0wLjMzMjE4NiwwLjE5MDUyIC0wLjUzMTYxMiwwLjI1MjAyIC0wLjE5NzMwNiwwLjA2MTUgLTAuMzc0MDQyLDAuMDkxOSAtMC41MzEwMzksMC4wOTE5IC0wLjE4NDU3MywwIC0wLjMzMDIzMywtMC4wMzUgLTAuNDM2MzExLC0wLjEwNTA2IC0wLjA1NzI4LC0wLjAzODIgLTAuMDg2MTEsLTAuMDg3OSAtMC4wODYxMSwtMC4xNDkyNiAwLC0wLjA4NDkgMC4wNTk3NCwtMC4xNjg2OSAwLjE3ODU0NCwtMC4yNTE0NSAwLjE5MDk0LC0wLjEyOTQ3IDAuNDE5MTI0LC0wLjE5NDA2IDAuNjg0MzIxLC0wLjE5NDA2IHogbSAzNS42Njc5MzksNS4xNjggLTEuNDAzNjU3LDAuMzYyODMgYyAtMC4xNDIxNDksMC4wMzgxIC0wLjIzNTYwNywwLjA4MjggLTAuMjgwMTYsMC4xMzM3NyAtMC4wNDQ1OCwwLjA0ODkgLTAuMDY3MTYsMC4xMTY4MyAtMC4wNjcxNiwwLjIwMzc5IDAsMC4wOTUzIDAuMDMwMTQsMC4xNzUzMyAwLjA4OTU1LDAuMjQxMTQgMC4wNjE1NCwwLjA2NTkgMC4xMzM2OTgsMC4wOTg3IDAuMjE2NDM2LDAuMDk4NyAwLjA0NjcxLDAgMC4xMTYxOTUsLTAuMDEyOSAwLjIwOTU0NiwtMC4wMzc5IGwgMC41ODI2OTcsLTAuMTUyNyB2IDIuNzIwNjQgaCAtMC42NTkwNDkgYyAtMC4xNTY5OTcsMCAtMC4yNjg1MjksMC4wMzE2IC0wLjMzNjQyLDAuMDkzIC0wLjA2NTgxLDAuMDU5MyAtMC4wOTkzMiwwLjEzNjQ4IC0wLjA5OTMyLDAuMjMxOTMgMCwwLjA5NzcgMC4wMzM1MywwLjE3NzMyIDAuMDk5MzIsMC4yMzg4MiAwLjA2Nzk0LDAuMDU5NCAwLjE3OTQyMywwLjA4OTEgMC4zMzY0MiwwLjA4OTEgaCAxLjk3MDI4NyBjIDAuMTU2OTksMCAwLjI2ODM1LC0wLjAyOTUgMC4zMzQxMiwtMC4wODkxIDAuMDY3OCwtMC4wNjE2IDAuMTAxNjEsLTAuMTM5OSAwLjEwMTYxLC0wLjIzNTM4IDAsLTAuMDk3NyAtMC4wMzM3LC0wLjE3NTk5IC0wLjEwMTYxLC0wLjIzNTM3IC0wLjA2NTgsLTAuMDYxNSAtMC4xNzcxMywtMC4wOTMgLTAuMzM0MTIsLTAuMDkzIGggLTAuNjU4NDkgeiBtIDIuNzI0MDgsMC4wMzc5IGMgLTAuMDkzMywwIC0wLjE3MjMsMC4wMzIgLTAuMjM1OTUsMC4wOTU5IC0wLjA2MzcsMC4wNjM2IC0wLjA5NTMsMC4xMzk5NyAtMC4wOTUzLDAuMjI5MDYgMCwwLjA2MTUgMC4wMjU0LDAuMTM0NDEgMC4wNzY0LDAuMjE5MyAwLjIyOTEzLDAuMzc1NTEgMC4zOTU1MSwwLjcyNzUzIDAuNDk5NDYsMS4wNTYzNSAwLjEwNjA4LDAuMzI4ODUgMC4xNTkwMiwwLjY2Mjc1IDAuMTU5MDIsMS4wMDAwNyAwLDAuMzM5NDYgLTAuMDUyOSwwLjY3MzU0IC0wLjE1OTAyLDEuMDAyMzcgLTAuMTAzOTUsMC4zMjg4NSAtMC4yNzAzMywwLjY4MDgyIC0wLjQ5OTQ2LDEuMDU2MzMgLTAuMDUxLDAuMDgyNyAtMC4wNzY0LDAuMTU1NTkgLTAuMDc2NCwwLjIxOTMxIDAsMC4wODkgMC4wMzE3LDAuMTY1MzYgMC4wOTUzLDAuMjI5MDUgMC4wNjM3LDAuMDYzNyAwLjE0MjYxLDAuMDk2IDAuMjM1OTUsMC4wOTYgMC4wODA1LDAgMC4xNTQxMSwtMC4wMjg5IDAuMjE5ODksLTAuMDg2MiAwLjA2NTgsLTAuMDU3MyAwLjE2NzUsLTAuMjA4NTcgMC4zMDU0LC0wLjQ1NDY5IDAuMTkwOTUsLTAuMzQxNTYgMC4zMzEzMiwtMC42NTIyOSAwLjQyMjU0LC0wLjkzMjMyIDAuMTIzMDUsLTAuMzgxODggMC4xODQ4NiwtMC43NTg1NCAwLjE4NDg2LC0xLjEyOTgyIDAsLTAuMzU2NDIgLTAuMDU4MywtMC43MjIxNSAtMC4xNzUxLC0xLjA5NzY3IC0wLjA3NDIsLTAuMjQxODUgLTAuMjExNzksLTAuNTUwNDggLTAuNDEzMzQsLTAuOTI2MDEgLTAuMTQwMDQsLTAuMjYwOTYgLTAuMjUyNzIsLTAuNDI3ODkgLTAuMzM3NTcsLTAuNTAwMDQgLTAuMDU5NCwtMC4wNTA5IC0wLjEyODE3LC0wLjA3NjQgLTAuMjA2NjgsLTAuMDc2NCB6IG0gLTMxLjg3MTQ0OSwwLjA1NzQgYyAtMC4xNTY5OTUsMCAtMC4yNjk2OCwwLjAzMSAtMC4zMzc1NjgsMC4wOTI1IC0wLjA2NTc3LDAuMDU5MyAtMC4wOTgxNywwLjEzNjQ4IC0wLjA5ODE3LDAuMjMxOTMgMCwwLjA5NzcgMC4wMzIzOSwwLjE3NzMzIDAuMDk4MTcsMC4yMzg4MyAwLjA2NzksMC4wNTk0IDAuMTgwNTczLDAuMDg5NiAwLjMzNzU2OCwwLjA4OTYgaCAwLjExMTM3NSB2IDIuODIyMjUgYyAtMC4xNjU0ODIsLTAuMDAyIC0wLjI3NDAxNywwLjAxMzcgLTAuMzI0OTM3LDAuMDQ3NyAtMC4xMDM5NjMsMC4wNjU4IC0wLjE1NTU4MSwwLjE1ODUxIC0wLjE1NTU4MSwwLjI3NzI5IDAsMC4wOTc3IDAuMDMyNCwwLjE3Njc1IDAuMDk4MTcsMC4yMzgyNSAwLjA2NzksMC4wNTk0IDAuMTgwNTcxLDAuMDg5NiAwLjMzNzU2NywwLjA4OTYgaCAwLjc0MTczIGMgMC4xNTY5OTYsMCAwLjI2ODM1NCwtMC4wMzAxIDAuMzM0MTI1LC0wLjA4OTYgMC4wNjc5LC0wLjA2MTUgMC4xMDIxOTMsLTAuMTM5MzMgMC4xMDIxOTMsLTAuMjM0ODEgMCwtMC4xMjA5MyAtMC4wNTIyLC0wLjIxNDkzIC0wLjE1NjE1MywtMC4yODA3MyAtMC4wNDg4LC0wLjAzMTggLTAuMTU3MzM1LC0wLjA0NzcgLTAuMzI0OTM4LC0wLjA0NzcgdiAtMS4yMjE2OSBjIDAuMTg4ODE5LC0wLjE4NjY4IDAuMzM4NjIsLTAuMzA3NjYgMC40NDg5NDIsLTAuMzYyODIgMC4xMTI0NCwtMC4wNTczIDAuMjQwOTUsLTAuMDg2MiAwLjM4NTIxOCwtMC4wODYyIDAuMTk1MTgyLDAgMC4zNDIzNDEsMC4wNDU5IDAuNDQyMDUzLDAuMTM3MiAwLjA3NjM3LDAuMDY3OSAwLjExNDI0NSwwLjE4NTQ4IDAuMTE0MjQ1LDAuMzUzMDcgdiAxLjE4MDM1IGMgLTAuMTYzMzYsLTAuMDAyIC0wLjI3MTMyNSwwLjAxNDMgLTAuMzI0MzY0LDAuMDQ4MiAtMC4xMDE4MzIsMC4wNjU4IC0wLjE1MjcxLDAuMTU3OTEgLTAuMTUyNzEsMC4yNzY3IDAsMC4wOTc3IDAuMDMyOTcsMC4xNzczMiAwLjA5ODc1LDAuMjM4ODIgMC4wNjc5LDAuMDU5NCAwLjE3OTI0OCwwLjA4OSAwLjMzNDEyMywwLjA4OSBoIDAuNzQ0NjAxIGMgMC4xNTY5OTUsMCAwLjI2ODM1MywtMC4wMjk1IDAuMzM0MTIzLC0wLjA4OSAwLjA2NTc3LC0wLjA2MTUgMC4wOTkzMiwtMC4xMzk5MSAwLjA5OTMyLC0wLjIzNTM3IDAsLTAuMTIwOTUgLTAuMDUxNDQsLTAuMjE0MzYgLTAuMTUzMjgzLC0wLjI4MDE1IC0wLjA1MDkzLC0wLjAzMTggLTAuMTU4ODgzLC0wLjA0ODIgLTAuMzI0MzY0LC0wLjA0ODIgdiAtMS4yMjQ1NCBjIDAsLTAuMjUwMzUgLTAuMDU4NDEsLTAuNDU3MjMgLTAuMTc1MDk5LC0wLjYyMDYxIC0wLjExNDU3MSwtMC4xNjU0OSAtMC4yNTk2NDgsLTAuMjg2NDYgLTAuNDM1NzM3LC0wLjM2MjgzIC0wLjE3NjA5MSwtMC4wNzY0IC0wLjM3Njc2NywtMC4xMTQ4MSAtMC42MDE2NTIsLTAuMTE0ODEgLTAuMTQyMTQ1LDAgLTAuMjgzNjU4LDAuMDIgLTAuNDIzNjgyLDAuMDYwMyAtMC4xMzc5MDIsMC4wMzgyIC0wLjI3NDY5NywwLjA5OCAtMC40MTA0NzgsMC4xNzg1MyB2IC0xLjM5MTAzIHogbSAtMTAuMjk1MjQ1LDAuMTcxNjcgYyAtMC40MzQ5MTksMCAtMC44MjY4MzcsMC4xNjA3NiAtMS4xNzY4OTUsMC40ODEwOSAtMC40MzI3OTksMC4zOTg4NiAtMC42NDkzMDEsMC45MTQzOCAtMC42NDkzMDEsMS41NDY2MSAwLDAuNjMyMjMgMC4yMTY1MDIsMS4xNDY0MyAwLjY0OTMwMSwxLjU0MzE2IDAuMzUwMDU4LDAuMzIwMzQgMC43NDE5NzYsMC40ODA1MiAxLjE3Njg5NSwwLjQ4MDUyIDAuNDgzNzE4LDAgMC45MDk3NTUsLTAuMTkyMzkgMS4yNzY3ODgsLTAuNTc2MzkgMC4zNjkxNTIsLTAuMzg2MTMgMC41NTM0MjgsLTAuODY4MSAwLjU1MzQyOCwtMS40NDcyOSAwLC0wLjU4MTMxIC0wLjE4NDI3NiwtMS4wNjM4NSAtMC41NTM0MjgsLTEuNDQ3ODcgLTAuMzY3MDMzLC0wLjM4NjEyIC0wLjc5MzA3LC0wLjU3OTgzIC0xLjI3Njc4OCwtMC41Nzk4MyB6IG0gMjMuNDk4ODU2LDAgYyAtMC4zMTM5OTIsMCAtMC42MTE1MjUsMC4wNzk3IC0wLjg5MTU3LDAuMjM4ODIgLTAuMjgwMDQ3LDAuMTU5MSAtMC40OTkzNjgsMC4zODY1NSAtMC42NTg0ODcsMC42ODE0NSAtMC4xNTY5OTYsMC4yOTI3OCAtMC4yMzUzNzksMC42MDg5NyAtMC4yMzUzNzksMC45NDg0MiB2IDAuNDQyMDQgYyAwLDAuMzI0NTggMC4wODgsMC42MjQ5MyAwLjI2NDA4MywwLjkwMDc2IDAuMTc2MDkyLDAuMjczNjcgMC4zODkxOTcsMC40NzM3OCAwLjYzOTU0NCwwLjYwMTA2IDAuMzA5NzQ1LDAuMTU5MTMgMC42NTgxNTIsMC4yMzg4MyAxLjA0NDI3OCwwLjIzODgzIDAuMzMwOTY0LDAgMC42MzI4MTQsLTAuMDU3MSAwLjkwNjQ5NSwtMC4xNzE2NSAwLjIwMzY3MSwtMC4wODQ5IDAuMzcwNjIsLTAuMjAxNzIgMC41MDAwMzcsLTAuMzUwMjEgMC4wODkxMiwtMC4xMDIwMSAwLjEzMzc2MywtMC4xOTY3OCAwLjEzMzc2MywtMC4yODU4OCAwLC0wLjA4OSAtMC4wMzI5OCwtMC4xNjcyNyAtMC4wOTg3NSwtMC4yMzMwOSAtMC4wNjU3NywtMC4wNjU5IC0wLjE0MjA4NSwtMC4wOTg3IC0wLjIyOTA2NCwtMC4wOTg3IC0wLjA0ODc5LDAgLTAuMDkyMTMsMC4wMTEyIC0wLjEzMDMyLDAuMDMyMiAtMC4wMzgxOSwwLjAxOTEgLTAuMDkxNzEsMC4wNjIzIC0wLjE1OTU5OSwwLjEzMDMyIC0wLjExMDMxNiwwLjExMjQyIC0wLjIxNDE0MywwLjE4ODAxIC0wLjMxMTczMywwLjIyNjIxIC0wLjE2NzYwNiwwLjA2NTkgLTAuMzcyNDIzLDAuMDk4MiAtMC42MTQyODIsMC4wOTgyIC0wLjQwNTIxNywwIC0wLjcyMjE0NywtMC4xMDQ2NSAtMC45NTEyNzQsLTAuMzE0NiAtMC4yMjcwMDcsLTAuMjEwMDUgLTAuMzQwNDM5LC0wLjQ3MTk1IC0wLjM0MDQzOSwtMC43ODU5MyB2IC0wLjQyMzcgYyAwLC0wLjI2MzA2IDAuMDYyNTYsLTAuNDg5OTIgMC4xODc3MjgsLTAuNjgwODYgMC4xMjUxNjYsLTAuMTkwOTEgMC4yNjk1MDgsLTAuMzI4NDcgMC40MzI4NjksLTAuNDEzMzYgMC4xNjMzNiwtMC4wODQ5IDAuMzQyMTY4LC0wLjEyNzQ0IDAuNTM3MzUyLC0wLjEyNzQ0IDAuMTU2OTk3LDAgMC4zMTMwMTQsMC4wMjg5IDAuNDY3ODg4LDAuMDg2MiAwLjE1Njk5OSwwLjA1NzMgMC4yNzkyOTMsMC4xMzM1OSAwLjM2NjI3MywwLjIyOTA2IDAuMDQ0NTUsMC4wNDg4IDAuMDc0MTMsMC4xMTc1NyAwLjA4ODk4LDAuMjA2NjkgMC4wMjU0NSwwLjEzMzYxIDAuMDY0NjUsMC4yMjUgMC4xMTc2OTEsMC4yNzM4MiAwLjA1MzA1LDAuMDQ4OSAwLjEyMjU1MiwwLjA3MyAwLjIwOTU0NCwwLjA3MyAwLjA5NTQ3LDAgMC4xNzMxMDcsLTAuMDMzMSAwLjIzMjUwOSwtMC4wOTg3IDAuMDYxNTMsLTAuMDY3OSAwLjA5MjQyLC0wLjE4IDAuMDkyNDIsLTAuMzM2OTkgdiAtMC41NTM0MyBjIDAsLTAuMTU2OTcgLTAuMDMwOTEsLTAuMjY4MzIgLTAuMDkyNDIsLTAuMzM0MTQgLTAuMDU5NDIsLTAuMDY1NyAtMC4xMzcwMzcsLTAuMDk5MyAtMC4yMzI1MDksLTAuMDk5MyAtMC4wNTUxNSwwIC0wLjEwNjIxLDAuMDE0MyAtMC4xNTUwMDcsMC4wNDE5IC0wLjA0NjY3LDAuMDI3NSAtMC4wOTExNCwwLjA2ODkgLTAuMTMxNDY2LDAuMTI0MDIgLTAuMTQyMTQ0LC0wLjA4OSAtMC4yOTU1MTQsLTAuMTU1NjggLTAuNDYwOTk4LC0wLjE5ODA3IC0wLjE2MzM2LC0wLjA0NDUgLTAuMzM5MzQ4LC0wLjA2NjUgLTAuNTI4MTY4LC0wLjA2NjUgeiBtIDcuMzAzNjM1LDAuMDQxOSBjIC0wLjA5NzU4LDAgLTAuMTc3Mjk1LDAuMDM0MyAtMC4yMzg4MjMsMC4xMDIyMyAtMC4wNTk0MSwwLjA2NTggLTAuMDg5NTUsMC4xNzcxMiAtMC4wODk1NSwwLjMzNDEyIHYgMC41ODg0NiBoIC0wLjIzNDgwNSBjIC0wLjE1Njk5NywwIC0wLjI2OTY3NywwLjAzMDMgLTAuMzM3NTY3LDAuMDkxOCAtMC4wNjU3NywwLjA1OTQgLTAuMDk4MTcsMC4xMzcwNCAtMC4wOTgxNywwLjIzMjUxIDAsMC4wOTc3IDAuMDMyNCwwLjE3NzMyIDAuMDk4MTcsMC4yMzg4MyAwLjA2NzksMC4wNTk0IDAuMTgwNTcxLDAuMDg5NiAwLjMzNzU2NywwLjA4OTYgaCAwLjIzNDgwNSB2IDEuNDM0NjYgYyAwLDAuMjU0NTggMC4xMDE1ODQsMC40NzAzNSAwLjMwMzEyMiwwLjY0NjQ0IDAuMjAzNjcsMC4xNzM5NyAwLjUwNzU5MywwLjI2MDYzIDAuOTEyODExLDAuMjYwNjMgMC4yMTAwMzUsMCAwLjQ2NzgsLTAuMDQxMiAwLjc3MzMwNSwtMC4xMjQgMC4zMDc2MjYsLTAuMDg0OSAwLjUxMzE5OSwtMC4xNzc2IDAuNjE3MTUzLC0wLjI3NzI5IDAuMDY3OTEsLTAuMDYxNSAwLjEwMjE4MywtMC4xMzQzOCAwLjEwMjE4MywtMC4yMTkzIDAsLTAuMDkxMyAtMC4wMzE2NCwtMC4xNjg4OSAtMC4wOTUzLC0wLjIzMjUxIC0wLjA2MTUzLC0wLjA2MzcgLTAuMTM0NDQ0LC0wLjA5NTQgLTAuMjE5MzA0LC0wLjA5NTQgLTAuMDYxNTEsMCAtMC4xNDcyNzIsMC4wMjgxIC0wLjI1NTQ3MywwLjA4MzMgLTAuMjgyMTY4LDAuMTQyMTQgLTAuNTg5NDg0LDAuMjEyNDEgLTAuOTIyNTcsMC4yMTI0MSAtMC4yMjkxMjksMCAtMC4zODc5NjcsLTAuMDM1MSAtMC40NzcwNzMsLTAuMTA1MDYgLTAuMDU3MjgsLTAuMDQ0NiAtMC4wODYxMSwtMC4xMzY3MSAtMC4wODYxMSwtMC4yNzY3MiB2IC0xLjMwNzc4IGwgMS4yMDYxNzMsNS43ZS00IGMgMC4xNTY5OTMsMCAwLjI2ODM1NCwtMC4wMzAyIDAuMzM0MTIzLC0wLjA4OTYgMC4wNjc5LC0wLjA2MTYgMC4xMDE2MTcsLTAuMTM5MzMgMC4xMDE2MTcsLTAuMjM0ODIgMCwtMC4wOTc3IC0wLjAzMzcyLC0wLjE3NjU4IC0wLjEwMTYxNywtMC4yMzU5NSAtMC4wNjU3NywtMC4wNjE1IC0wLjE3NzEyOCwtMC4wOTI1IC0wLjMzNDEyMywtMC4wOTI1IGggLTEuMjA2MTczIHYgLTAuNTg4NDUgYyAwLC0wLjE1Njk2IC0wLjAzMDMzLC0wLjI2ODMgLTAuMDkxODYsLTAuMzM0MTMgLTAuMDU5NDEsLTAuMDY3OSAtMC4xMzcwMzgsLTAuMTAyMjIgLTAuMjMyNTA4LC0wLjEwMjIyIHogbSAtMjguMzIwMTA0LDAuMDUzNCBjIC0wLjE1Njk5NywwIC0wLjI2OTEwNCwwLjAzMTYgLTAuMzM2OTkzLDAuMDkzIC0wLjA2NTc3LDAuMDU5NCAtMC4wOTg3NSwwLjEzNzc2IC0wLjA5ODc1LDAuMjM1MzggMCwwLjA5NzcgMC4wMzI5NywwLjE3NzMzIDAuMDk4NzUsMC4yMzg4MSAwLjA2Nzg5LDAuMDU5NCAwLjE3OTk5NywwLjA4OTEgMC4zMzY5OTMsMC4wODkxIGggMC4xMDIxOTMgdiAyLjU1MTg2IGggLTAuMTAyMTkzIGMgLTAuMTU0ODc1LDAgLTAuMjY2MjM0LDAuMDMxNiAtMC4zMzQxMjMsMC4wOTMgLTAuMDY3OSwwLjA1OTQgLTAuMTAxNjE2LDAuMTM2NDcgLTAuMTAxNjE2LDAuMjMxOTMgMCwwLjA5NzcgMC4wMzI5NywwLjE3Njc1IDAuMDk4NzUsMC4yMzgyNSAwLjA2Nzg5LDAuMDU5NCAwLjE3OTk5OCwwLjA4OTYgMC4zMzY5OTMsMC4wODk2IGggMC45OTAzMTUgYyAwLjE1Njk5MywwIDAuMjY4MzUyLC0wLjAzMDEgMC4zMzQxMjEsLTAuMDg5NiAwLjA2Nzg5LC0wLjA2MTUgMC4xMDE2MTYsLTAuMTM5MzQgMC4xMDE2MTYsLTAuMjM0ODEgMCwtMC4wOTc3IC0wLjAzMzcyLC0wLjE3NTk4IC0wLjEwMTYxNiwtMC4yMzUzNyAtMC4wNjU3NywtMC4wNjE1IC0wLjE3NzEyNywtMC4wOTMgLTAuMzM0MTIxLC0wLjA5MyBoIC0wLjIzNTk1MyB2IC0wLjgyMDk2IGggMC42NDY0MyBjIDAuMzQ3OTM4LDAuMTY1NDggMC43ODU4MzQsMC42NTYzMSAxLjMxNDEwNCwxLjQ3MzExIGggMC4zNzIwMTMgYyAwLjE1Njk5NCwwIDAuMjY4MzU0LC0wLjAyOTUgMC4zMzQxMjMsLTAuMDg5IDAuMDY1NzcsLTAuMDYxNSAwLjA5OTMxLC0wLjE0MDQ4IDAuMDk5MzEsLTAuMjM1OTQgMCwtMC4xMTg3NiAtMC4wNDgwNCwtMC4yMTA5MSAtMC4xNDM1MjQsLTAuMjc2NzIgLTAuMDUzMDQsLTAuMDMzOCAtMC4xNjIzMjcsLTAuMDUwNSAtMC4zMjc4MDgsLTAuMDUwNSAtMC4xNjU0ODMsLTAuMjU2NzIgLTAuMjk3Mzg1LC0wLjQ0NTcxIC0wLjM5NDk3NywtMC41NjY2NCAtMC4xNTY5OTcsLTAuMTg4ODEgLTAuMzA0MTUxLC0wLjM0MzUyIC0wLjQ0MjA1MywtMC40NjQ0NCAwLjIzOTczNywtMC4xMjk0NiAwLjQxODU0NSwtMC4yNzcxNSAwLjUzNzM1MywtMC40NDI2MiAwLjExODgwOSwtMC4xNjc2MiAwLjE3OTExNywtMC4zNTMyMSAwLjE3OTExNywtMC41NTY4OCAwLC0wLjMyNjcyIC0wLjEyNzc1NSwtMC42MDM3IC0wLjM4MjM0NiwtMC44MzA3MSAtMC4yNTI0NjYsLTAuMjI5MTMgLTAuNjA4NTg3LC0wLjM0Mzg5IC0xLjA2ODk2NSwtMC4zNDM4OSB6IG0gLTIuNDgyMzg3LDAuNTU3NDUgYyAwLjMwNTUwNSwwIDAuNTc4OTIzLDAuMTMwNjIgMC44MTg2NiwwLjM5MTU0IDAuMjM5NzM4LDAuMjU4ODIgMC4zNTkzODMsMC41ODY2OCAwLjM1OTM4MywwLjk4MzQzIDAsMC4zOTY3MyAtMC4xMTk2NDMsMC43MjQwMiAtMC4zNTkzODMsMC45ODI4NSAtMC4yMzk3MzcsMC4yNTg4MyAtMC41MTMxNTUsMC4zODgwOCAtMC44MTg2NiwwLjM4ODA4IC0wLjMwMzM4NCwwIC0wLjU3NDMzLC0wLjEyOTI1IC0wLjgxNDA2NywtMC4zODgwOCAtMC4yMzk3MzgsLTAuMjYwOTUgLTAuMzU5OTU2LC0wLjU4ODI0IC0wLjM1OTk1NiwtMC45ODI4NSAwLC0wLjM5NDYzIDAuMTIwMjE1LC0wLjcyMjQ3IDAuMzU5OTU2LC0wLjk4MzQzIDAuMjM5NzM3LC0wLjI2MDk0IDAuNTEwNjgzLC0wLjM5MTU0IDAuODE0MDY3LC0wLjM5MTU0IHogbSAzLjIzNjc0OCwwLjA5ODcgaCAwLjc0ODA0NSBjIDAuMjUyNDY2LDAgMC40NDQyODEsMC4wNTI5IDAuNTc1ODE4LDAuMTU5MDMgMC4xMzE1MzksMC4xMDM5OCAwLjE5NzQ4OCwwLjIxNzM4IDAuMTk3NDg4LDAuMzQwNDQgMCwwLjA4MjcgLTAuMDM1MDcsMC4xNjY1NiAtMC4xMDUwNTksMC4yNTE0NCAtMC4wNjc5LDAuMDg0OSAtMC4yMDE4NjUsMC4xNjU5IC0wLjQwMTI5MiwwLjI0MjI2IC0wLjE0ODUxMSwwLjA1NzMgLTAuMzE2OTYyLDAuMDg1NSAtMC41MDU3NzgsMC4wODU1IGggLTAuNTA5MjIyIHogbSAxNi4zMTU3NzksMC4yMjYyIHYgMC4wMDIgYyAtMC40MzI3OTgsMCAtMC43ODI3MDIsMC4xMDY0OSAtMS4wNTAwMiwwLjMxODYzIC0wLjE5NzMwNSwwLjE1NDg4IC0wLjI5NjIzMywwLjM0ODc4IC0wLjI5NjIzMywwLjU4MjEzIDAsMC4yMjcwMSAwLjA4ODU2LDAuNDE4MDYgMC4yNjQ2NTgsMC41NzI5NSAwLjE3NjA4OCwwLjE1Njk3IDAuNTI1OTkyLDAuMjYzNDUgMS4wNTAwMiwwLjMxODYyIDAuMzUyMTc4LDAuMDM4MSAwLjU4NDUwOCwwLjA4NDMgMC42OTY5NSwwLjEzOTUgMC4xMTI0MzksMC4wNTUxIDAuMTY4Nzg1LDAuMTI1MiAwLjE2ODc4NSwwLjIxMDExIDAsMC4wNTA5IC0wLjAzOTc3LDAuMDk5NiAtMC4xMTgyNjMsMC4xNDY0MSAtMC4xNjU0ODMsMC4wOTMzIC0wLjM5NzgxMSwwLjE0MDA4IC0wLjY5Njk1MiwwLjE0MDA4IC0wLjE4MjQ1NSwwIC0wLjM0MzM2NiwtMC4wMjExIC0wLjQ4MzM4OSwtMC4wNjM4IC0wLjE0MDAyMiwtMC4wNDQ1IC0wLjI1OTY2OCwtMC4xMDkyNCAtMC4zNTkzODMsLTAuMTk0MDYgLTAuMDI5NywtMC4xMDYwOSAtMC4wNzA5NywtMC4xNzk3NiAtMC4xMjQwMDQsLTAuMjIyMTYgLTAuMDUzMDUsLTAuMDQ0NSAtMC4xMTk1NjQsLTAuMDY3MiAtMC4xOTgwNjMsLTAuMDY3MiAtMC4wOTc1OCwwIC0wLjE3NjcyLDAuMDMzNyAtMC4yMzgyNDksMC4xMDE2MSAtMC4wNTk0MSwwLjA2NTggLTAuMDg4OTksMC4xNzcxNCAtMC4wODg5OSwwLjMzNDEyIHYgMC4yMTk4OSBjIDAsMC4xNTY5NiAwLjAyOTU4LDAuMjY5NjMgMC4wODg5OSwwLjMzNzU1IDAuMDYxNTEsMC4wNjU5IDAuMTQzMzAzLDAuMDk4MiAwLjI0NTEzOSwwLjA5ODIgMC4wMzgxOSwwIDAuMDc1MzEsLTAuMDA1IDAuMTExMzczLC0wLjAyMTkgMC4wMzYwNiwtMC4wMTQ3IDAuMDY5ODEsLTAuMDM2NiAwLjEwMTYxNiwtMC4wNjQzIDAuMTMzNjYsMC4wNjM2IDAuMjgwMDY1LDAuMTExNjQgMC40MzkxODEsMC4xNDM1MyAwLjE2MTI0LDAuMDMzOCAwLjMzNTkwNSwwLjA1MTEgMC41MjQ3MjQsMC4wNTExIDAuNDcwOTg3LDAgMC44NTQ0NDEsLTAuMTEzNDIgMS4xNDkzMzgsLTAuMzQwNDMgMC4yMDU3OTIsLTAuMTU3MDEgMC4zMDg4NjMsLTAuMzUyMjEgMC4zMDg4NjMsLTAuNTg1NTggMCwtMC4xNzE4NSAtMC4wNjA0OSwtMC4zMzU0MSAtMC4xODE0MTQsLTAuNDkwMjggLTAuMTIwOTI4LC0wLjE1NDkgLTAuMjkyNzczLC0wLjI3MTczIC0wLjUxNTUzOCwtMC4zNTAyMSAtMC4xNjk3MjUsLTAuMDU5NCAtMC40NzE0MDEsLTAuMTE4NTggLTAuOTA0MTk4LC0wLjE3Nzk2IC0wLjIzNTQ5NSwtMC4wMzE4IC0wLjM4Njc5MywtMC4wNjQ3IC0wLjQ1NDY4NSwtMC4wOTg3IC0wLjA4OTExLC0wLjA0NjYgLTAuMTMzNzYzLC0wLjA5NDggLTAuMTMzNzYzLC0wLjE0MzUyIDAsLTAuMDQyNSAwLjAzMjk4LC0wLjA4MTcgMC4wOTg3NSwtMC4xMTc2OCAwLjE0ODUxMiwtMC4wODI3IDAuMzQ5MTg2LC0wLjEyNCAwLjYwMTY1MywtMC4xMjQgMC4xMjcyOSwwIDAuMjQ4NDM4LDAuMDE3MiAwLjM2NTEyMywwLjA1MTEgMC4xMTY2NzgsMC4wMzE4IDAuMjI4NjIxLDAuMDgwNSAwLjMzNDY5OCwwLjE0NjM5IDAuMDE2OTgsMC4wODA2IDAuMDU0ODQsMC4xNDQ2NCAwLjExNDI0NSwwLjE5MzQ3IDAuMDU5NDIsMC4wNDg4IDAuMTI4NzQ5LDAuMDc0IDAuMjA3MjQ4LDAuMDc0IDAuMTE2Njc4LDAgMC4yMDg4MjMsLTAuMDQ5MyAwLjI3NjcxNCwtMC4xNDY5OCAwLjAzMzk0LC0wLjA1MDkgMC4wNTA1MiwtMC4xNDc3NiAwLjA1MDUyLC0wLjI4OTkxIHYgLTAuMTYwNzUgYyAwLC0wLjE1Njk2IC0wLjAyOTAxLC0wLjI2ODMxIC0wLjA4ODQxLC0wLjMzNDEyIC0wLjA1OTQyLC0wLjA2NzkgLTAuMTMzNjQ0LC0wLjEwMTYgLTAuMjIyNzQ4LC0wLjEwMTYgLTAuMDI5NzEsMCAtMC4wNjMyNSwwLjAwNSAtMC4wOTkzMiwwLjAyMTkgLTAuMDMzOTUsMC4wMTQ3IC0wLjA3MDUsMC4wMzY5IC0wLjExMDgwMSwwLjA2NjUgLTAuMTI3MjkxLC0wLjA1OTMgLTAuMjYxMjY4LC0wLjEwMjc0IC0wLjQwMTI5MiwtMC4xMzAzMiAtMC4xMzc5MDEsLTAuMDI5OCAtMC4yODIyMzcsLTAuMDQ0OCAtMC40MzI4NjgsLTAuMDQ0OCB6IG0gLTMuOTQ5MTk5LDAuMDAzIGMgLTAuMTM1Nzg0LDAgLTAuMjg3MDgsMC4wMTQ0IC0wLjQ1NDY4NCwwLjA0MTkgLTAuMTY3NjAyLDAuMDI1NSAtMC4zMzI0ODMsMC4wNiAtMC40OTM3MjEsMC4xMDQ1IC0wLjEyMDkzLDAuMDMzOCAtMC4yMDA2MzQsMC4wNjM2IC0wLjIzODgyNCwwLjA4OSAtMC4wMzgxOSwwLjAyMzQgLTAuMDY3MTksMC4wNTUxIC0wLjA4ODQxLDAuMDk1MyAtMC4wMjEyMSwwLjA0MDMgLTAuMDMyMTYsMC4wODc4IC0wLjAzMjE2LDAuMTQyOTQgMCwwLjA5NzcgMC4wMjk1OCwwLjE3ODY3IDAuMDg4OTgsMC4yNDIyOCAwLjA2MTU0LDAuMDYxNSAwLjEzNTc2OSwwLjA5MTggMC4yMjI3NSwwLjA5MTggMC4wNjM2NSwwIDAuMTUyMzg4LC0wLjAxMzkgMC4yNjY5NTMsLTAuMDQxNCAwLjMwNzYyNSwtMC4wNzY0IDAuNTU4NDI2LC0wLjExNDgzIDAuNzUxNDkxLC0wLjExNDgzIDAuMjM1NDkyLDAgMC4zOTQ5MDcsMC4wMzE2IDAuNDc3NjQ4LDAuMDkzIDAuMDg0ODYsMC4wNjE1IDAuMTI2ODczLDAuMTQxMjYgMC4xMjY4NzMsMC4yMzg4MiB2IDAuMTU1NTggYyAtMC4yNTg4MzEsLTAuMDQyNSAtMC40ODcwMTQsLTAuMDYzOCAtMC42ODQzMjEsLTAuMDYzOCAtMC40OTIyMDEsMCAtMC44Nzg0NzYsMC4xMTc1OCAtMS4xNTg1MjMsMC4zNTMwNyAtMC4yNzc5MjUsMC4yMzMzOCAtMC40MTY3OTMsMC40ODY5OCAtMC40MTY3OTMsMC43NjA2OCAwLDAuMjI0ODcgMC4xMDk4NjgsMC40MzEwMyAwLjMyODM4MiwwLjYxNzcyIDAuMjE4NTIzLDAuMTg0NTcgMC41MDI0NzMsMC4yNzY3MiAwLjg1MjUzMSwwLjI3NjcyIDAuMTYxMjM4LDAgMC4zNDA2MjEsLTAuMDIyMiAwLjUzNzkyNiwtMC4wNjY3IDAuMTk3MzA2LC0wLjA0MjMgMC4zNzc0MzgsLTAuMTA3NjkgMC41NDA3OTgsLTAuMTk0NjIgdiAwLjE1MzI5IGggMC43NjM1NDggYyAwLjE1Njk5NCwwIDAuMjY4MzUyLC0wLjAzMDEgMC4zMzQxMjIsLTAuMDg5NiAwLjA2NzkxLC0wLjA2MTYgMC4xMDIxOTQsLTAuMTM5OTIgMC4xMDIxOTQsLTAuMjM1MzkgMCwtMC4wOTc3IC0wLjAzNDMxLC0wLjE3NTk5IC0wLjEwMjE5NCwtMC4yMzUzNyAtMC4wNjU3NywtMC4wNjE1IC0wLjE3NzEyNiwtMC4wOTI1IC0wLjMzNDEyMiwtMC4wOTI1IEggNzguMDM3MzggdiAtMS4zNDI4MSBjIDAsLTAuMzAzMzggLTAuMTEyNjgyLC0wLjU0MTkyIC0wLjMzNzU2OCwtMC43MTU5IC0wLjIyMjc2MywtMC4xNzYxIC0wLjUzNjg3MiwtMC4yNjQwOSAtMC45NDIwODksLTAuMjY0MDkgeiBtIDExLjczMzM1MiwwIGMgLTAuMTM1NzgsMCAtMC4yODcwNzksMC4wMTQ0IC0wLjQ1NDY4MywwLjA0MTkgLTAuMTY3NjAzLDAuMDI1NSAtMC4zMzI0ODMsMC4wNiAtMC40OTM3MjIsMC4xMDQ1IC0wLjEyMDkyOSwwLjAzMzggLTAuMjAwNjMyLDAuMDYzNiAtMC4yMzg4MjMsMC4wODkgLTAuMDM4MTksMC4wMjM0IC0wLjA2NzE5LDAuMDU1MSAtMC4wODg0MiwwLjA5NTMgLTAuMDIxMjEsMC4wNDAzIC0wLjAzMjE1LDAuMDg3OCAtMC4wMzIxNSwwLjE0Mjk0IDAsMC4wOTc3IDAuMDI5NTgsMC4xNzg2NyAwLjA4ODk4LDAuMjQyMjggMC4wNjE1MywwLjA2MTUgMC4xMzU3NjgsMC4wOTE4IDAuMjIyNzQ5LDAuMDkxOCAwLjA2MzY1LDAgMC4xNTIzOTEsLTAuMDEzOSAwLjI2Njk1NCwtMC4wNDE0IDAuMzA3NjI2LC0wLjA3NjQgMC41NTg0MjcsLTAuMTE0ODMgMC43NTE0OTEsLTAuMTE0ODMgMC4yMzU0OTMsMCAwLjM5NDkwOCwwLjAzMTYgMC40Nzc2NDcsMC4wOTMgMC4wODQ4NiwwLjA2MTUgMC4xMjY4NzUsMC4xNDEyNiAwLjEyNjg3NSwwLjIzODgyIHYgMC4xNTU1OCBjIC0wLjI1ODgzLC0wLjA0MjUgLTAuNDg3MDE3LC0wLjA2MzggLTAuNjg0MzIxLC0wLjA2MzggLTAuNDkyMjA0LDAgLTAuODc4NDc4LDAuMTE3NTggLTEuMTU4NTI0LDAuMzUzMDcgLTAuMjc3OTI2LDAuMjMzMzggLTAuNDE2NzkzLDAuNDg2OTggLTAuNDE2NzkzLDAuNzYwNjggMCwwLjIyNDg3IDAuMTA5ODY4LDAuNDMxMDMgMC4zMjgzODIsMC42MTc3MiAwLjIxODUyMiwwLjE4NDU3IDAuNTAyNDc0LDAuMjc2NzIgMC44NTI1MywwLjI3NjcyIDAuMTYxMjM5LDAgMC4zNDA2MjQsLTAuMDIyMiAwLjUzNzkyOCwtMC4wNjY3IDAuMTk3MzA1LC0wLjA0MjMgMC4zNzc0MzcsLTAuMTA3NjkgMC41NDA3OTgsLTAuMTk0NjIgdiAwLjE1MzI5IGggMC43NjM1NDUgYyAwLjE1Njk5NiwwIDAuMjY4MzU0LC0wLjAzMDEgMC4zMzQxMjQsLTAuMDg5NiAwLjA2NzksLTAuMDYxNiAwLjEwMjE4MywtMC4xMzk5MiAwLjEwMjE4MywtMC4yMzUzOSAwLC0wLjA5NzcgLTAuMDM0MzEsLTAuMTc1OTkgLTAuMTAyMTgzLC0wLjIzNTM3IC0wLjA2NTc3LC0wLjA2MTUgLTAuMTc3MTI2LC0wLjA5MjUgLTAuMzM0MTI0LC0wLjA5MjUgaCAtMC4xMTEzNzQgdiAtMS4zNDI4MSBjIDAsLTAuMzAzMzggLTAuMTEyNjg0LC0wLjU0MTkyIC0wLjMzNzU2OCwtMC43MTU5IC0wLjIyMjc2NCwtMC4xNzYxIC0wLjUzNjI5NywtMC4yNjQwOSAtMC45NDE1MTYsLTAuMjY0MDkgeiBtIDYuNDcyOTIyLDAuMTc3OTcgYyAtMC4xNTY5OTUsMCAtMC4yNjk2OCwwLjAzMDggLTAuMzM3NTY5LDAuMDkyNSAtMC4wNjU3NywwLjA1OTQgLTAuMDk4MTcsMC4xMzcwNCAtMC4wOTgxNywwLjIzMjUxIDAsMC4wOTc3IDAuMDMyMzksMC4xNzY3NiAwLjA5ODE3LDAuMjM4MjQgMC4wNjc5LDAuMDU5NCAwLjE4MDU3NCwwLjA4OTYgMC4zMzc1NjksMC4wODk2IGggMi43ODc4MDQgYyAwLjE1Njk5NSwwIDAuMjY4MzU0LC0wLjAzMDEgMC4zMzQxMjMsLTAuMDg5NiAwLjA2NzksLTAuMDYxNSAwLjEwMTYxNywtMC4xMzkzMiAwLjEwMTYxNywtMC4yMzQ3OSAwLC0wLjA5NzcgLTAuMDMzNzMsLTAuMTc2NTcgLTAuMTAxNjE3LC0wLjIzNTk2IC0wLjA2NTc3LC0wLjA2MTUgLTAuMTc3MTI3LC0wLjA5MjUgLTAuMzM0MTIzLC0wLjA5MjUgeiBtIDAsMS4yMjg1NiBjIC0wLjE1Njk5NSwwIC0wLjI2OTY4LDAuMDMwOSAtMC4zMzc1NjksMC4wOTI1IC0wLjA2NTc3LDAuMDU5NCAtMC4wOTgxNywwLjEzNzc3IC0wLjA5ODE3LDAuMjM1MzggMCwwLjA5NzcgMC4wMzIzOSwwLjE3NiAwLjA5ODE3LDAuMjM1MzggMC4wNjc5LDAuMDU5NCAwLjE4MDU3NCwwLjA4OSAwLjMzNzU2OSwwLjA4OSBoIDIuNzg3ODA0IGMgMC4xNTY5OTUsMCAwLjI2ODM1NCwtMC4wMjk3IDAuMzM0MTIzLC0wLjA4OSAwLjA2NzksLTAuMDU5NCAwLjEwMTYxNywtMC4xMzc4IDAuMTAxNjE3LC0wLjIzNTM4IDAsLTAuMDk3NyAtMC4wMzM3MywtMC4xNzYgLTAuMTAxNjE3LC0wLjIzNTM4IC0wLjA2NTc3LC0wLjA2MTUgLTAuMTc3MTI3LC0wLjA5MjUgLTAuMzM0MTIzLC0wLjA5MjUgeiBtIC0xOC4zMDE1NzQsMC4zMjQzNyBjIDAuMjIwNjQxLDAgMC40NjEyNTgsMC4wMjU1IDAuNzIyMjExLDAuMDc2NCB2IDAuMjgwMTYgYyAtMC4xNTQ4NzUsMC4xMDYxIC0wLjMzMjE4NiwwLjE4OTk2IC0wLjUzMTYxMSwwLjI1MTQ2IC0wLjE5NzMwNywwLjA2MTUgLTAuMzc0MDQyLDAuMDkyNSAtMC41MzEwMzksMC4wOTI1IC0wLjE4NDU3MywwIC0wLjMzMDIzMSwtMC4wMzUxIC0wLjQzNjMxMiwtMC4xMDUwNyAtMC4wNTcyOCwtMC4wMzgyIC0wLjA4NjExLC0wLjA4NzggLTAuMDg2MTEsLTAuMTQ5MjYgMCwtMC4wODQ5IDAuMDU5NzQsLTAuMTY5MjQgMC4xNzg1NDUsLTAuMjUyMDMgMC4xOTA5NDEsLTAuMTI5NDUgMC40MTkxMjQsLTAuMTk0MDQgMC42ODQzMjEsLTAuMTk0MDQgeiBtIDExLjczMzM1MiwwIGMgMC4yMjA2NDIsMCAwLjQ2MTI1OCwwLjAyNTUgMC43MjIyMTMsMC4wNzY0IHYgMC4yODAxNiBjIC0wLjE1NDg3NiwwLjEwNjEgLTAuMzMyMTg2LDAuMTg5OTYgLTAuNTMxNjEyLDAuMjUxNDYgLTAuMTk3MzA4LDAuMDYxNSAtMC4zNzQwNDIsMC4wOTI1IC0wLjUzMTAzOSwwLjA5MjUgLTAuMTg0NTczLDAgLTAuMzMwMjMzLC0wLjAzNTEgLTAuNDM2MzEyLC0wLjEwNTA3IC0wLjA1NzI5LC0wLjAzODIgLTAuMDg2MTEsLTAuMDg3OCAtMC4wODYxMSwtMC4xNDkyNiAwLC0wLjA4NDkgMC4wNTk3NCwtMC4xNjkyNCAwLjE3ODU0NSwtMC4yNTIwMyAwLjE5MDk0MSwtMC4xMjk0NSAwLjQxOTEyNCwtMC4xOTQwNCAwLjY4NDMyLC0wLjE5NDA0IHoiIC8+CiAgICA8cmVjdAogICAgICAgc3R5bGU9ImZpbGw6Izk5OTk5OTtmaWxsLW9wYWNpdHk6MTtzdHJva2Utd2lkdGg6MC4yNTg2MDQiCiAgICAgICBpZD0icmVjdDIwIgogICAgICAgd2lkdGg9IjEuNSIKICAgICAgIGhlaWdodD0iMTkuOTM0ODkxIgogICAgICAgeD0iMTA4Ljk2ODQ4IgogICAgICAgeT0iMjI2LjQxMjQ2IgogICAgICAgcnk9IjAuNzk3Mzk1NjUiIC8+CiAgICA8cGF0aAogICAgICAgaWQ9InBhdGgyMCIKICAgICAgIHN0eWxlPSJmaWxsOiM5OTk5OTk7ZmlsbC1vcGFjaXR5OjE7c3Ryb2tlLXdpZHRoOjAuMTU0NDc0IgogICAgICAgZD0ibSAyOS43NTgwMDksMjEyLjI1NjAyIDEuMjc0MTA0LDMuMDU4OTkgYSA4Ljg0MzAzMjcsMTAuNzEwNzc2IDAgMCAwIC00LjI5Mjk3Nyw5LjE0MTcgOC44NDMwMzI3LDEwLjcxMDc3NiAwIDAgMCAwLjAxNjU5LDAuMjkyOTcgOC44NDMwMzI3LDEwLjcxMDc3NiAwIDAgMCAtMC4wMTY1OSwwLjI5MzI1IDguODQzMDMyNywxMC43MTA3NzYgMCAwIDAgNC4yOTI5NzcsOS4xNDE3IGwgLTEuMjc0MTA0LDMuMDU4OTkgNi4zNjE0NzUsLTIuMTYyOTMgLTIuODY1OTA4LC02LjIyOTMyIC0wLjkxOTI5OSwyLjIwNzI4IGEgNi4zNzA1MzU5LDcuNzE2MDYxNiAwIDAgMSAtMy4xMDM2NSwtNi4zMDg5NyA2LjM3MDUzNTksNy43MTYwNjE2IDAgMCAxIDMuMTAzNjUsLTYuMzA4NjkgbCAwLjkxOTI5OSwyLjIwNzI4IDIuODY1OTA4LC02LjIyOTMzIHoiIC8+CiAgICA8cmVjdAogICAgICAgc3R5bGU9ImZpbGw6I2IzYjNiMztmaWxsLW9wYWNpdHk6MTtzdHJva2Utd2lkdGg6MC4xNDg5NDkiCiAgICAgICBpZD0icmVjdDIyIgogICAgICAgd2lkdGg9IjkiCiAgICAgICBoZWlnaHQ9IjkiCiAgICAgICB4PSIyNS44NjQxNyIKICAgICAgIHk9IjE3NC4wMTA0NCIgLz4KICAgIDxyZWN0CiAgICAgICBzdHlsZT0iZmlsbDojYjNiM2IzO2ZpbGwtb3BhY2l0eToxO3N0cm9rZS13aWR0aDowLjE0ODk0OSIKICAgICAgIGlkPSJyZWN0MjItMiIKICAgICAgIHdpZHRoPSI5IgogICAgICAgaGVpZ2h0PSI5IgogICAgICAgeD0iMjUuODY5MzYyIgogICAgICAgeT0iMTg0Ljk1ODQ1IiAvPgogICAgPGVsbGlwc2UKICAgICAgIHN0eWxlPSJmaWxsOiNmOWY5Zjk7ZmlsbC1vcGFjaXR5OjE7c3Ryb2tlLXdpZHRoOjAuMjE2MDQ2IgogICAgICAgaWQ9InBhdGgyMiIKICAgICAgIGN4PSIzMC4zNjQxNyIKICAgICAgIGN5PSIxNzYuMjM0NjgiCiAgICAgICByeD0iMy41IgogICAgICAgcnk9IjEuMjM1OTg5OSIgLz4KICAgIDxwYXRoCiAgICAgICBpZD0iZWxsaXBzZTIzIgogICAgICAgc3R5bGU9ImZpbGw6I2Y5ZjlmOTtmaWxsLW9wYWNpdHk6MTtzdHJva2Utd2lkdGg6MC4yMTA0MDkiCiAgICAgICBkPSJtIDI2Ljg2Mzk5MywxNzYuODUwNTkgdiA0LjEyNjU4IGEgMy41LDEuMTcyMzM1MSAwIDAgMCAzLjUwMDA0NSwxLjE3MjQ0IDMuNSwxLjE3MjMzNTEgMCAwIDAgMy41MDAwNDUsLTEuMTcyNDQgdiAtNC4xMjYwOSBhIDMuNTkzNDgyNywxLjIzOTQwNTUgMCAwIDEgLTMuNTAwMDQ1LDAuOTYzNjMgMy41OTM0ODI3LDEuMjM5NDA1NSAwIDAgMSAtMy41MDAwNDUsLTAuOTY0MTIgeiIgLz4KICAgIDxwYXRoCiAgICAgICBpZD0icGF0aDQtOSIKICAgICAgIHN0eWxlPSJmaWxsOiNlY2VjZWM7ZmlsbC1vcGFjaXR5OjE7c3Ryb2tlLXdpZHRoOjAuMDQ1MzIxOSIKICAgICAgIGQ9Im0gMjcuODEwODYyLDE5MC44NjA3IGEgMC44MjM3NzY3MiwwLjgyMzc3NjcyIDAgMCAwIC0wLjgyMzcyMywwLjgyMzcyIDAuODIzNzc2NzIsMC44MjM3NzY3MiAwIDAgMCAwLjgyMzcyMywwLjgyMzczIDAuODIzNzc2NzIsMC44MjM3NzY3MiAwIDAgMCAwLjgyMzcyMiwtMC44MjM3MyAwLjgyMzc3NjcyLDAuODIzNzc2NzIgMCAwIDAgLTAuODIzNzIyLC0wLjgyMzcyIHogbSAyLjU1ODUsMCBhIDAuODIzNzc2NzIsMC44MjM3NzY3MiAwIDAgMCAtMC44MjQyMzksMC44MjM3MiAwLjgyMzc3NjcyLDAuODIzNzc2NzIgMCAwIDAgMC44MjQyMzksMC44MjM3MyAwLjgyMzc3NjcyLDAuODIzNzc2NzIgMCAwIDAgMC44MjM3MjIsLTAuODIzNzMgMC44MjM3NzY3MiwwLjgyMzc3NjcyIDAgMCAwIC0wLjgyMzcyMiwtMC44MjM3MiB6IG0gMi41NTg1LDAgYSAwLjgyMzc3NjcyLDAuODIzNzc2NzIgMCAwIDAgLTAuODI0MjM5LDAuODIzNzIgMC44MjM3NzY3MiwwLjgyMzc3NjcyIDAgMCAwIDAuODI0MjM5LDAuODIzNzMgMC44MjM3NzY3MiwwLjgyMzc3NjcyIDAgMCAwIDAuODIzNzIyLC0wLjgyMzczIDAuODIzNzc2NzIsMC44MjM3NzY3MiAwIDAgMCAtMC44MjM3MjIsLTAuODIzNzIgeiIgLz4KICA8L2c+Cjwvc3ZnPgo=;" vertex="1" parent="1">
          <mxGeometry x="330.05" y="150" width="179.9" height="200" as="geometry" />
        </mxCell>
        <mxCell id="Iunje0_k27cHRM6f_ocS-3" value="" style="group" vertex="1" connectable="0" parent="1">
          <mxGeometry x="95" y="170" width="64.40000000000003" height="73" as="geometry" />
        </mxCell>
        <mxCell id="JDpEO1lSi9x2BgJFtEtq-9" value="&lt;div&gt;User&lt;/div&gt;" style="text;html=1;align=center;verticalAlign=middle;whiteSpace=wrap;rounded=0;fontSize=14;fontStyle=1;container=0;" parent="Iunje0_k27cHRM6f_ocS-3" vertex="1">
          <mxGeometry y="51" width="41" height="20" as="geometry" />
        </mxCell>
        <mxCell id="v6klMF0UBrYqatLwZ3fX-3" value="" style="shape=image;aspect=fixed;image=data:image/svg+xml,PD94bWwgdmVyc2lvbj0iMS4wIiBlbmNvZGluZz0iVVRGLTgiIHN0YW5kYWxvbmU9Im5vIj8+CjwhLS0gQ3JlYXRlZCB3aXRoIElua3NjYXBlIChodHRwOi8vd3d3Lmlua3NjYXBlLm9yZy8pIC0tPgoKPHN2ZwogICB3aWR0aD0iNDEuMTExMzI4bW0iCiAgIGhlaWdodD0iNzcuMzQwOTgxbW0iCiAgIHZpZXdCb3g9IjAgMCA0MS4xMTEzMjggNzcuMzQwOTgiCiAgIHZlcnNpb249IjEuMSIKICAgaWQ9InN2ZzEiCiAgIGlua3NjYXBlOnZlcnNpb249IjEuMy4yICgwOTFlMjBlLCAyMDIzLTExLTI1KSIKICAgc29kaXBvZGk6ZG9jbmFtZT0idXNlci1ob2xsb3cuc3ZnIgogICB4bWxuczppbmtzY2FwZT0iaHR0cDovL3d3dy5pbmtzY2FwZS5vcmcvbmFtZXNwYWNlcy9pbmtzY2FwZSIKICAgeG1sbnM6c29kaXBvZGk9Imh0dHA6Ly9zb2RpcG9kaS5zb3VyY2Vmb3JnZS5uZXQvRFREL3NvZGlwb2RpLTAuZHRkIgogICB4bWxucz0iaHR0cDovL3d3dy53My5vcmcvMjAwMC9zdmciCiAgIHhtbG5zOnN2Zz0iaHR0cDovL3d3dy53My5vcmcvMjAwMC9zdmciPgogIDxzb2RpcG9kaTpuYW1lZHZpZXcKICAgICBpZD0ibmFtZWR2aWV3MSIKICAgICBwYWdlY29sb3I9IiNmZmZmZmYiCiAgICAgYm9yZGVyY29sb3I9IiMwMDAwMDAiCiAgICAgYm9yZGVyb3BhY2l0eT0iMC4yNSIKICAgICBpbmtzY2FwZTpzaG93cGFnZXNoYWRvdz0iMiIKICAgICBpbmtzY2FwZTpwYWdlb3BhY2l0eT0iMC4wIgogICAgIGlua3NjYXBlOnBhZ2VjaGVja2VyYm9hcmQ9IjAiCiAgICAgaW5rc2NhcGU6ZGVza2NvbG9yPSIjZDFkMWQxIgogICAgIGlua3NjYXBlOmRvY3VtZW50LXVuaXRzPSJtbSIKICAgICBpbmtzY2FwZTp6b29tPSIyLjczODY5NjgiCiAgICAgaW5rc2NhcGU6Y3g9IjczLjc1NzcwOCIKICAgICBpbmtzY2FwZTpjeT0iMTg5LjMyMzYyIgogICAgIGlua3NjYXBlOndpbmRvdy13aWR0aD0iMTY4MCIKICAgICBpbmtzY2FwZTp3aW5kb3ctaGVpZ2h0PSIxMjg4IgogICAgIGlua3NjYXBlOndpbmRvdy14PSIxNzYyIgogICAgIGlua3NjYXBlOndpbmRvdy15PSIyOCIKICAgICBpbmtzY2FwZTp3aW5kb3ctbWF4aW1pemVkPSIwIgogICAgIGlua3NjYXBlOmN1cnJlbnQtbGF5ZXI9ImxheWVyMSIgLz4KICA8ZGVmcwogICAgIGlkPSJkZWZzMSIgLz4KICA8ZwogICAgIGlua3NjYXBlOmxhYmVsPSJFYmVuZSAxIgogICAgIGlua3NjYXBlOmdyb3VwbW9kZT0ibGF5ZXIiCiAgICAgaWQ9ImxheWVyMSIKICAgICB0cmFuc2Zvcm09InRyYW5zbGF0ZSgtNjkuMTY0MDYyLC0zOS4xNjA5NjcpIj4KICAgIDxwYXRoCiAgICAgICBpZD0icGF0aDgiCiAgICAgICBzdHlsZT0iZmlsbDojNGQ0ZDRkO2ZpbGwtb3BhY2l0eToxO3N0cm9rZS13aWR0aDowLjMzNTEwOCIKICAgICAgIGQ9Im0gODkuMTU2MjUsMzkuMTc5Njg4IGMgLTQuMDAyMjAzLDAuMTg3NzMgLTcuNzcyOTc3LDIuODM2MjQ4IC05LjIwOTgxNCw2LjU5MjE2NiAtMS43MDkxNDIsNC4wNDg5OTMgLTAuNDQyNjgsOS4wNzc3MzYgMi45NDA4MTMsMTEuODY4ODEgMS40NzE2MjYsMS4yNDk5NjIgMy4yOTI3MDEsMi4xMDIxMDggNS4yMDg0NTQsMi4zNzEwNTUgMCwxLjE3MDU3MyAwLDIuMzQxMTQ2IDAsMy41MTE3MTkgLTYuMDg1Mjg2LDAgLTEyLjE3MDU3MywtMTBlLTcgLTE4LjI1NTg1OSwwIDAsMS4wNTkyNDQgMCwyLjExODQ4OSAwLDMuMTc3NzM0IDYuMDg1Mjg2LDAgMTIuMTcwNTczLDAgMTguMjU1ODU5LDAgMCw3LjUzNDUwNSAwLDE1LjA2OTAxIDAsMjIuNjAzNTE2IC02LjMxMDM3OSw4LjQzMjQxNyAtMTIuNjIyMTA3LDE2Ljg2MzgyMiAtMTguOTMxNjQxLDI1LjI5Njg3MiAwLjg0ODQxOSwwLjYzMzMyIDEuNjk2NTAzLDEuMjY3MDggMi41NDQ5MjIsMS45MDAzOSA2LjAwMTUyNCwtOC4wMjAzNCAxMi4wMDUzODgsLTE2LjAzODkzIDE4LjAwNzgxMywtMjQuMDU4NTkxIDYuMDAyNDI0LDguMDE5NjcxIDEyLjAwNjI5MywxNi4wMzgyNTEgMTguMDA3ODEzLDI0LjA1ODU5MSAwLjg0OTgxLC0wLjYzNDA2IDEuNjk5ODUsLTEuMjY3ODMgMi41NTA3OCwtMS45MDAzOSAtNi4zMzQ3OCwtOC40NTk4NSAtMTIuNjY2NDI2LC0xNi45MjIwNTIgLTE4Ljk5OTk5OSwtMjUuMzgyODEgMCwtNy41MDU4NTkgMCwtMTUuMDExNzE5IDAsLTIyLjUxNzU3OCA2LjA4Mzk4NCwwIDEyLjE2Nzk2OSwwIDE4LjI1MTk0OSwwIDAsLTEuMDU5MjQ1IDAsLTIuMTE4NDkgMCwtMy4xNzc3MzQgLTYuMDgzOTgsLTEwZS03IC0xMi4xNjc5NjUsMCAtMTguMjUxOTQ5LDAgMCwtMS4xNjAxNTcgMCwtMi4zMjAzMTMgMCwtMy40ODA0NjkgNC4zNjYzMjUsLTAuNjA5MDI2IDguMTA0MjY4LC00LjI1MzU1NCA4Ljc1MzIwOSwtOC42MjYzOTcgMC43Njg0NCwtNC4wNzMwMTkgLTEuMTk2MDY3LC04LjQ2MzI1OSAtNC43MjkyNjIsLTEwLjYyNDAwMyAtMS44MTk1MzcsLTEuMTQ5MTc3IC0zLjk4OTE0NiwtMS43NDc2NDcgLTYuMTQzMDg4LC0xLjYxMjg4MSB6IG0gMC45MTYwMTYsMy4yMjY1NjIgYyAzLjY2NzE5NiwwLjExODE3MSA2Ljg4NTMyMiwzLjQwNjI4OCA2Ljg4NDg0NSw3LjA4MzA5OSAwLjA5OTA0LDMuMzA3NjAzIC0yLjI4NTQ0NSw2LjUzODkwMSAtNS41NTY5NTEsNy4yMzEwMyAtMy4xMDYxOTIsMC44MTE5MjUgLTYuNjMxMjUsLTAuNzMyMTMxIC04LjA4NTc4NCwtMy42MDczMzggLTEuNjYwMzQsLTIuODc1NjkxIC0wLjkyMjA2MSwtNi44MjQyMzYgMS42Mzk4MTgsLTguOTI2NTYxIDEuNDAxMTksLTEuMjI0Njg3IDMuMjU5NDk5LC0xLjg2OTYyMiA1LjExODA3MiwtMS43ODAyMyB6IiAvPgogIDwvZz4KPC9zdmc+Cg==;" vertex="1" parent="Iunje0_k27cHRM6f_ocS-3">
          <mxGeometry x="7.22999999999999" width="26.54" height="50" as="geometry" />
        </mxCell>
        <mxCell id="Iunje0_k27cHRM6f_ocS-4" style="rounded=0;orthogonalLoop=1;jettySize=auto;html=1;strokeWidth=2;dashed=1;" edge="1" parent="1">
          <mxGeometry relative="1" as="geometry">
            <mxPoint x="150" y="190" as="sourcePoint" />
            <mxPoint x="320" y="190" as="targetPoint" />
          </mxGeometry>
        </mxCell>
        <mxCell id="Iunje0_k27cHRM6f_ocS-6" value="" style="rounded=1;whiteSpace=wrap;html=1;fillColor=none;strokeWidth=2;strokeColor=light-dark(#4d4d4d, #ededed);dashed=1;dashPattern=1 1;" vertex="1" parent="1">
          <mxGeometry x="227" y="278" width="143" height="79" as="geometry" />
        </mxCell>
        <mxCell id="Iunje0_k27cHRM6f_ocS-5" style="rounded=0;orthogonalLoop=1;jettySize=auto;html=1;strokeWidth=2;dashed=1;startArrow=none;startFill=0;entryX=0.166;entryY=0.798;entryDx=0;entryDy=0;entryPerimeter=0;exitX=1;exitY=0.5;exitDx=0;exitDy=0;" edge="1" parent="1" source="v6klMF0UBrYqatLwZ3fX-54">
          <mxGeometry relative="1" as="geometry">
            <mxPoint x="146" y="205" as="sourcePoint" />
            <mxPoint x="355.9133999999999" y="314.6" as="targetPoint" />
          </mxGeometry>
        </mxCell>
        <mxCell id="v6klMF0UBrYqatLwZ3fX-54" value="" style="shape=image;aspect=fixed;image=data:image/svg+xml,PD94bWwgdmVyc2lvbj0iMS4wIiBlbmNvZGluZz0iVVRGLTgiIHN0YW5kYWxvbmU9Im5vIj8+CjwhLS0gQ3JlYXRlZCB3aXRoIElua3NjYXBlIChodHRwOi8vd3d3Lmlua3NjYXBlLm9yZy8pIC0tPgoKPHN2ZwogICB3aWR0aD0iMTIxLjA3MTY4bW0iCiAgIGhlaWdodD0iMTM1LjUwNDM5bW0iCiAgIHZpZXdCb3g9IjAgMCAxMjEuMDcxNjggMTM1LjUwNDM5IgogICB2ZXJzaW9uPSIxLjEiCiAgIGlkPSJzdmcxIgogICB4bWw6c3BhY2U9InByZXNlcnZlIgogICBpbmtzY2FwZTp2ZXJzaW9uPSIxLjMuMiAoMDkxZTIwZSwgMjAyMy0xMS0yNSkiCiAgIHNvZGlwb2RpOmRvY25hbWU9InJvYm90ZXIuc3ZnIgogICB4bWxuczppbmtzY2FwZT0iaHR0cDovL3d3dy5pbmtzY2FwZS5vcmcvbmFtZXNwYWNlcy9pbmtzY2FwZSIKICAgeG1sbnM6c29kaXBvZGk9Imh0dHA6Ly9zb2RpcG9kaS5zb3VyY2Vmb3JnZS5uZXQvRFREL3NvZGlwb2RpLTAuZHRkIgogICB4bWxucz0iaHR0cDovL3d3dy53My5vcmcvMjAwMC9zdmciCiAgIHhtbG5zOnN2Zz0iaHR0cDovL3d3dy53My5vcmcvMjAwMC9zdmciPjxzb2RpcG9kaTpuYW1lZHZpZXcKICAgICBpZD0ibmFtZWR2aWV3MSIKICAgICBwYWdlY29sb3I9IiNmZmZmZmYiCiAgICAgYm9yZGVyY29sb3I9IiMwMDAwMDAiCiAgICAgYm9yZGVyb3BhY2l0eT0iMC4yNSIKICAgICBpbmtzY2FwZTpzaG93cGFnZXNoYWRvdz0iMiIKICAgICBpbmtzY2FwZTpwYWdlb3BhY2l0eT0iMC4wIgogICAgIGlua3NjYXBlOnBhZ2VjaGVja2VyYm9hcmQ9IjAiCiAgICAgaW5rc2NhcGU6ZGVza2NvbG9yPSIjZDFkMWQxIgogICAgIGlua3NjYXBlOmRvY3VtZW50LXVuaXRzPSJtbSIKICAgICBzaG93Z3VpZGVzPSJ0cnVlIgogICAgIGlua3NjYXBlOnpvb209IjAuNjU2Mzg2OTYiCiAgICAgaW5rc2NhcGU6Y3g9Ii0xMDkuNjkxMzkiCiAgICAgaW5rc2NhcGU6Y3k9IjcwOS4xODUzMyIKICAgICBpbmtzY2FwZTp3aW5kb3ctd2lkdGg9IjIxNzYiCiAgICAgaW5rc2NhcGU6d2luZG93LWhlaWdodD0iMTIzNCIKICAgICBpbmtzY2FwZTp3aW5kb3cteD0iMTY5NiIKICAgICBpbmtzY2FwZTp3aW5kb3cteT0iMjUiCiAgICAgaW5rc2NhcGU6d2luZG93LW1heGltaXplZD0iMCIKICAgICBpbmtzY2FwZTpjdXJyZW50LWxheWVyPSJsYXllcjEiIC8+PGRlZnMKICAgICBpZD0iZGVmczEiIC8+PGcKICAgICBpbmtzY2FwZTpsYWJlbD0iRWJlbmUgMSIKICAgICBpbmtzY2FwZTpncm91cG1vZGU9ImxheWVyIgogICAgIGlkPSJsYXllcjEiCiAgICAgdHJhbnNmb3JtPSJ0cmFuc2xhdGUoLTM5LjAxODI5LC0xNC43NjEzNzMpIj48cGF0aAogICAgICAgaWQ9InJlY3QxIgogICAgICAgc3R5bGU9ImZpbGw6IzRkNGQ0ZDtmaWxsLW9wYWNpdHk6MTtzdHJva2Utd2lkdGg6MC4xNzAyMzMiCiAgICAgICBkPSJtIDk5LjU1NDEzLDE0Ljc2MTM3MyBhIDcuNzQ3MzEyMSw3Ljc0NzMxMjEgMCAwIDAgLTcuNzQ3MzMxLDcuNzQ3MzMxIDcuNzQ3MzEyMSw3Ljc0NzMxMjEgMCAwIDAgNS4zMjIxNTYsNy4zNDMyMjEgViAzNC45NjE2OSBIIDgwLjcxODU4NyBjIC02Ljk0MzE2NywwIC0xMi41MzI1NjgsNS41ODk5MTggLTEyLjUzMjU2OCwxMi41MzMwODUgdiAwLjI2NzE2OCBBIDEyLjU3MDYyNSwxMi41NzA2MjUgMCAwIDAgNTcuMjYxMTA0LDYwLjIxNDkyOSAxMi41NzA2MjUsMTIuNTcwNjI1IDAgMCAwIDY4LjE4NjAxOSw3Mi42Njc5MTYgViA3Mi45MzU2IGMgMCw2Ljk0MzE2NyA1LjU4OTQwMSwxMi41MzI1NjggMTIuNTMyNTY4LDEyLjUzMjU2OCBoIDE4LjgzNTU0MyAxOC44MzU1NCBjIDYuOTQzMTYsMCAxMi41MzI1NywtNS41ODk0MDEgMTIuNTMyNTcsLTEyLjUzMjU2OCBWIDcyLjY2NzkxNiBBIDEyLjU3MDYyNSwxMi41NzA2MjUgMCAwIDAgMTQxLjg0NzE2LDYwLjIxNDkyOSAxMi41NzA2MjUsMTIuNTcwNjI1IDAgMCAwIDEzMC45MjIyNCw0Ny43NjE5NDMgdiAtMC4yNjcxNjggYyAwLC02Ljk0MzE2NyAtNS41ODk0MSwtMTIuNTMzMDg1IC0xMi41MzI1NywtMTIuNTMzMDg1IGggLTE2LjQxMDM2IHYgLTUuMDk3MzYzIGEgNy43NDczMTIxLDcuNzQ3MzEyMSAwIDAgMCA1LjMyMjE1LC03LjM1NTYyMyA3Ljc0NzMxMjEsNy43NDczMTIxIDAgMCAwIC03Ljc0NzMzLC03Ljc0NzMzMSB6IG0gMCw0LjU4NzgzNCBhIDMuMTU5MjMzMSwzLjE1OTIzMzEgMCAwIDEgMy4xNTg5OCwzLjE1OTQ5NyAzLjE1OTIzMzEsMy4xNTkyMzMxIDAgMCAxIC0zLjE1ODk4LDMuMTU4OTggMy4xNTkyMzMxLDMuMTU5MjMzMSAwIDAgMSAtMy4xNTg5OCwtMy4xNTg5OCAzLjE1OTIzMzEsMy4xNTkyMzMxIDAgMCAxIDMuMTU4OTgsLTMuMTU5NDk3IHogTSA4Mi4wMTg3NjYsMzkuODg4MDA1IGggMTcuNTM1MzY0IDE3LjUzNTM2IGMgNC45MDgxOCwwIDguODU5OTMsMy45NTE3MjkgOC44NTk5Myw4Ljg1OTkyNCBWIDcxLjY4MTkzIGMgMCw0LjkwODIwMSAtMy45NTE3NSw4Ljg1OTkyNCAtOC44NTk5Myw4Ljg1OTkyNCBIIDk5LjU1NDEzIDgyLjAxODc2NiBjIC00LjkwODE5NSwwIC04Ljg1OTkyNCwtMy45NTE3MjMgLTguODU5OTI0LC04Ljg1OTkyNCBWIDQ4Ljc0NzkyOSBjIDAsLTQuOTA4MTk1IDMuOTUxNzI5LC04Ljg1OTkyNCA4Ljg1OTkyNCwtOC44NTk5MjQgeiBtIDQuMTY2MTU0LDUuNTk4NjI0IGEgOS4zMTY4MzkyLDkuMzE2ODM5MiAwIDAgMCAtOS4zMTY3NDQsOS4zMTY3NDQgOS4zMTY4MzkyLDkuMzE2ODM5MiAwIDAgMCA5LjMxNjc0NCw5LjMxNjc0NCA5LjMxNjgzOTIsOS4zMTY4MzkyIDAgMCAwIDkuMzE2NzQ0LC05LjMxNjc0NCA5LjMxNjgzOTIsOS4zMTY4MzkyIDAgMCAwIC05LjMxNjc0NCwtOS4zMTY3NDQgeiBtIDI2LjY0NzQ3LDAgYSA5LjMxNjgzOTIsOS4zMTY4MzkyIDAgMCAwIC05LjMxNjc0LDkuMzE2NzQ0IDkuMzE2ODM5Miw5LjMxNjgzOTIgMCAwIDAgOS4zMTY3NCw5LjMxNjc0NCA5LjMxNjgzOTIsOS4zMTY4MzkyIDAgMCAwIDkuMzE2NzQsLTkuMzE2NzQ0IDkuMzE2ODM5Miw5LjMxNjgzOTIgMCAwIDAgLTkuMzE2NzQsLTkuMzE2NzQ0IHogbSAtMjYuNjQ3NDcsNC42ODM5NTIgYSA0LjYzMjk2NTEsNC42MzI5NjUxIDAgMCAxIDQuNjMyNzkyLDQuNjMyNzkyIDQuNjMyOTY1MSw0LjYzMjk2NTEgMCAwIDEgLTQuNjMyNzkyLDQuNjMzMzA5IDQuNjMyOTY1MSw0LjYzMjk2NTEgMCAwIDEgLTQuNjMyNzkyLC00LjYzMzMwOSA0LjYzMjk2NTEsNC42MzI5NjUxIDAgMCAxIDQuNjMyNzkyLC00LjYzMjc5MiB6IG0gMjYuNjQ3NDcsMCBhIDQuNjMyOTY1MSw0LjYzMjk2NTEgMCAwIDEgNC42MzI3OSw0LjYzMjc5MiA0LjYzMjk2NTEsNC42MzI5NjUxIDAgMCAxIC00LjYzMjc5LDQuNjMzMzA5IDQuNjMyOTY1MSw0LjYzMjk2NTEgMCAwIDEgLTQuNjMyNzksLTQuNjMzMzA5IDQuNjMyOTY1MSw0LjYzMjk2NTEgMCAwIDEgNC42MzI3OSwtNC42MzI3OTIgeiBNIDY4LjE4NjAxOSw1Mi42NjI5MzUgViA2Ny43Njc0NCBhIDcuNzUwNDM2Myw3Ljc1MDQzNjMgMCAwIDEgLTYuMTA0NTM3LC03LjU1MjUxMSA3Ljc1MDQzNjMsNy43NTA0MzYzIDAgMCAxIDYuMTA0NTM3LC03LjU1MTk5NCB6IG0gNjIuNzM2MjIxLDAgYSA3Ljc1MDQzNjMsNy43NTA0MzYzIDAgMCAxIDYuMTA0NTQsNy41NTE5OTQgNy43NTA0MzYzLDcuNzUwNDM2MyAwIDAgMSAtNi4xMDQ1NCw3LjU1MjUxMSB6IG0gMTMuNjQwNTEsMTIuMzk0MDc2IGMgLTEuMTQ0MzQsLTEuMTRlLTQgLTIuMjg4NzYsMC42NzM1NTIgLTIuMjg4NzUsMi4wMjI2MTUgLTAuMDEyNCwwLjEzMTg5IC0wLjAyMTksMC4yNjQwNDkgLTAuMDI4NCwwLjM5NjM1OSAtMWUtNSwzLjYyNTggMi4xNjc3NCw2Ljc0MzI3MyA1LjI3NjY4LDguMTMzMzUzIC0xLjQxMzQ2LDQuMzUyODMgLTkuMDg4OSwxMS44OTA3NDcgLTE2LjU0ODg2LDExLjg5MDc0NyBsIDUuMmUtNCw1LjEwNjE0OSBjIDguNjg1OTMsMCAxOS43MDcyLC05LjA1NTI0IDIxLjgyMjQ0LC0xNi4zNjg1MSBsIC0wLjAxLC0wLjAwMSBjIDQuMTUzNDUsLTAuNzU1NzE1IDcuMzAzNDQsLTQuMzg5MiA3LjMwMzQzLC04Ljc2MDcwNSAtMC4wMDcsLTAuMTMyMzEgLTAuMDE2LC0wLjI2NDQ2OSAtMC4wMjg0LC0wLjM5NjM1OSAwLC0yLjY5ODE5MSAtNC41Nzc1LC0yLjY5NTIyMiAtNC41Nzc1LC0wLjAwMjEgbCAtNS4yZS00LDAuMzk4OTQyIGMgOGUtNSwyLjM3NTQyIC0xLjkyNTY1LDQuMzAxMTEgLTQuMzAxMDMsNC4zMDEwMyAtMC4wMDUsMCAtMC4wMSwtNC45N2UtNCAtMC4wMTQ1LC01LjE3ZS00IC0wLjAwNSwyZS01IC0wLjAxMDUsNS4xN2UtNCAtMC4wMTUsNS4xN2UtNCAtMi4zNzU0Miw4ZS01IC00LjMwMTExLC0xLjkyNTYxIC00LjMwMTAzLC00LjMwMTAzIGwgLTUuMmUtNCwtMC4zOTg5NDIgYyAwLC0xLjM0NjYwOCAtMS4xNDQzNywtMi4wMjA0MzQgLTIuMjg4NzUsLTIuMDIwNTQ4IHogTSAxMzAuOTczNCw4Ny41MDAwODUgSCA2OC4xMzQ4NTkgdiAzNy43NzU5ODUgaCAtMS4wOTY1NzQgYyAtNi40NzI1NTYsMCAtMTEuNjgzNTI0LDUuMjEwOTkgLTExLjY4MzUyNCwxMS42ODM1MyB2IDEuNjIyNjQgYyAwLDYuNDcyNTcgNS4yMTA5NjgsMTEuNjgzNTIgMTEuNjgzNTI0LDExLjY4MzUyIGggNjUuMDMxNjg1IGMgNi40NzI1NSwwIDExLjY4MzUzLC01LjIxMDk1IDExLjY4MzUzLC0xMS42ODM1MiB2IC0xLjYyMjY0IGMgMCwtNi40NzI1NCAtNS4yMTA5OCwtMTEuNjgzNTMgLTExLjY4MzUzLC0xMS42ODM1MyBoIC0xLjA5NjU3IHogbSAtNjIuODM4NTQxLDAgYyAtOC42ODU5MzEsMCAtMTkuNzA3MjEzLDkuMDU1MjUyIC0yMS44MjI0NCwxNi4zNjg1MTUgbCAwLjAwOTMsMC4wMDEgYyAtNC4xNTM0MzEsMC43NTU3MiAtNy4zMDM0NDIsNC4zODkxOCAtNy4zMDM0Myw4Ljc2MDcgMC4wMDY1LDAuMTMyMzEgMC4wMTYsMC4yNjQ0NyAwLjAyODQyLDAuMzk2MzYgLTNlLTYsMi42OTgxNyA0LjU3NzQ5OSwyLjY5NTQzIDQuNTc3NDk5LDAuMDAyIGwgNS4xNmUtNCwtMC4zOTg5NCBjIC04LjJlLTUsLTIuMzc1NDMgMS45MjU2MjYsLTQuMzAxMTEgNC4zMDEwMywtNC4zMDEwMyAwLjAwNDksMCAwLjAwOTYsNWUtNCAwLjAxNDQ3LDUuMmUtNCAwLjAwNDksLTJlLTUgMC4wMDk2LC01LjJlLTQgMC4wMTQ0NywtNS4yZS00IDIuMzc1NDA5LC04ZS01IDQuMzAxMTExLDEuOTI1NiA0LjMwMTAyOSw0LjMwMTAzIGwgNS4xN2UtNCwwLjM5ODk0IGMgMCwyLjY5MzI0IDQuNTc3NTAxLDIuNjk1OTIgNC41Nzc0OTgsLTAuMDAyIDAuMDEyNDIsLTAuMTMxODkgMC4wMjE5MiwtMC4yNjQwNSAwLjAyODQyLC0wLjM5NjM2IDllLTYsLTMuNjI1ODEgLTIuMTY3NzE0LC02Ljc0MzI2IC01LjI3NjY4LC04LjEzMzM1IDEuNDEzNDg3LC00LjM1MjggOS4wODg5MjIsLTExLjg5MDc0NiAxNi41NDg4NiwtMTEuODkwNzQ2IHogTSAxMTUuNzIxMSw2OS4zODAyNjEgYyAtMC4yOTg0MSwwLjAwNCAtMC42MzI5MiwwLjA2NTUyIC0xLjAwNDA3LDAuMTk1ODU0IC0xLjA3NTY3LDAuMzc3NzQyIC0xMS42NTY0Niw1LjkxNjgzMSAtMjcuMzQ4MjAzLDAuNjQ2OTg5IC0xLjI5ODkwOCwtMC40MzYyMjIgLTIuNDY1OTk5LDEuMTMzOTU0IC0yLjQ2NTk5OSwyLjU0MjQ4IDAsMS40MDg1MjggMS4xNjQzNDIsMi4xMTUwNTYgMi40NjU5OTksMi41NDI0ODEgMTQuMDc3NzQzLDQuNjIyNjY4IDI2Ljk1NDQxMywtMC4yODA4NjIgMjguMDY1NDczLC0wLjkyNDQ5MiAxLjQwMzA2LC0wLjgxMjc3OCAyLjE5NzI4LC0xLjQxMTQ1NSAyLjE5NzI4LC0yLjgxOTk4MyAwLC0xLjE0NDQyNyAtMC42MTczMywtMi4yMDA0NjkgLTEuOTEwNDgsLTIuMTgzMzI5IHogTSA3Mi45ODk4Niw5Mi4zMTMyMjggaCA1My4xMjgwMiBWIDEyNS4yNzYwNyBIIDcyLjk4OTg2IFogbSAzNy4xMjAyMSw0LjE2NDA4NyBjIC0yLjQ1MjYyLDAgLTQuMTczOTcsMC4wNDQ4NyAtNS4xNjQwMiwwLjEzNDg3NiAtMC42MDc1MywwLjA1NjI2IC0xLjExOTU1LDAuMjc1ODQ3IC0xLjUzNTgyLDAuNjU4MzU4IC0wLjQ1MDAzLDAuNDE2MjY4IC0wLjY3NTQyLDAuOTU2MjY1IC0wLjY3NTQyLDEuNjIwMDU2IDAsMC42NTI1MjIgMC4yMjUzOSwxLjE5NzgyNSAwLjY3NTQyLDEuNjM2NTk1IDAuNDYxMjcsMC40Mzg3OCAxLjAyOTI0LDAuNjU4MzYgMS43MDQyOCwwLjY1ODM2IGwgMy42NjIzMSwtMC4xMDEyOSBjIC0wLjIyNTAxLDIuNzc4OSAtMC4zMzc0NCw1LjY5ODQ3IC0wLjMzNzQ0LDguNzU4NjQgMCwzLjc1NzY5IDAuMDExLDYuMzAwMzkgMC4wMzM2LDcuNjI3OTYgLTEuMjQ4ODIsMC4xNjg3NiAtMi4yNTU5NywwLjI1MzIxIC0zLjAyMTAxLDAuMjUzMjEgLTAuNjc1MDQsMCAtMS4yMzcyMSwwLjIyNDg4IC0xLjY4NzIzLDAuNjc0ODkgLTAuNDM4NzgsMC40NTAwMyAtMC42NTgzNiwwLjk5MDAyIC0wLjY1ODM2LDEuNjIwMDYgMCwwLjYzMDAzIDAuMjE5NTgsMS4xNzAwNCAwLjY1ODM2LDEuNjIwMDYgMC40NTAwMiwwLjQzODc4IDEuMDEyMTksMC42NTgzNSAxLjY4NzIzLDAuNjU4MzUgMC43NDI1NCwwIDEuODU2MzIsLTAuMTAxMzQgMy4zNDE0LC0wLjMwMzg1IDEuNDg1MDgsLTAuMTkxMjcgMi41OTkzNywtMC4yODY4MSAzLjM0MTkxLC0wLjI4NjgxIDAuNjMwMDMsMCAxLjU3NDksLTAuMDExIDIuODM0OTcsLTAuMDMzNiAxLjI2MDA3LC0wLjAzMzcgMi4yMDQ5NCwtMC4wNTA2IDIuODM0OTcsLTAuMDUwNiAwLjY3NTAzLDAgMS4yMzE5MiwtMC4yMTk1OSAxLjY3MDcsLTAuNjU4MzYgMC40NTAwMiwtMC40NTAwMiAwLjY3NDksLTAuOTkwMDEgMC42NzQ5LC0xLjYyMDA1IDAsLTAuNjMwMDQgLTAuMjI0ODgsLTEuMTcwMDUgLTAuNjc0OSwtMS42MjAwNiAtMC40Mzg3OCwtMC40NTAwMyAtMC45OTU2NywtMC42NzQ4OSAtMS42NzA3LC0wLjY3NDg5IC0xLjU1MjU4LDAgLTMuMDc3MDIsMC4wMTY4IC00LjU3MzM2LDAuMDUwNiBsIDAuMDE3MSwtNy41NzczMiBjIDAsLTMuNDMxNDMgMC4wNzg3LC02LjE4MjA5IDAuMjM2MTYsLTguMjUyMjEgMi42MjE0LDAuMzE1MDIgNC4yMjQ1LDAuNDcyMzMgNC44MDk1MywwLjQ3MjMzIDAuNTg1MDIsMCAxLjEwODE0LC0wLjE3NDcxIDEuNTY5NDEsLTAuNTIzNDkgMC41NjI1MywtMC40MTYyNyAwLjg0Mzg4LC0wLjk4NDI1IDAuODQzODgsLTEuNzA0Mjg0IDAsLTEuMzYxMzE3IC0wLjY5MjAzLC0yLjEzNzI4OSAtMi4wNzU4NCwtMi4zMjg1NCAtMy40NzY0NCwtMC40NzI1MzEgLTYuMzE2ODQsLTAuNzA5MDAxIC04LjUyMTk3LC0wLjcwOTAwMSB6IG0gLTE3LjI4MTExMSwwLjI3MDI2OCBjIC0wLjY1MjUzNSwwIC0yLjM4NDk2NywyLjEzMjAzNyAtNS4xOTc2MTUsNi4zOTU5OTcgLTEuOTU3NjA0LDIuOTcwMTUgLTMuNzM1NDI0LDUuODM5MDUgLTUuMzMzMDA4LDguNjA2NyAtMS4wNDYzMDIsMC4zMDM3NyAtMS41OTIxMDMsMC43MjU1NCAtMS42MzcxMSwxLjI2NTU2IC0wLjAyMjUsMC4zMDM3NyAwLjA0NTA2LDAuNjI5OTkgMC4yMDI1NzIsMC45Nzg3NSAtMS42NDI1ODYsMy4zMTg5MyAtMi40NjM5MzIsNS4yNjUxNCAtMi40NjM5MzIsNS44Mzg5MiAwLDAuNjUyNTQgMC4yNDc1NjQsMS4xOTI1NCAwLjc0MjU5LDEuNjIwMDYgMC40OTUwMjYsMC40MTYyOCAxLjA1MTkxNiwwLjYyNDc3IDEuNjcwNjk5LDAuNjI0NzcgMC44Nzc1NDYsMCAxLjU2NDI3OSwtMC40MDUzOCAyLjA1OTMwNiwtMS4yMTU0MyAxLjI4MjU2NywtMi40ODYzOSAyLjE4MjU2NywtNC4zNDgxNSAyLjcwMDA5NCwtNS41ODU3MSAwLjk0NTA1LC0wLjE2ODc1IDIuMzA2Mzk0LC0wLjMxNDk3IDQuMDgzOTg4LC0wLjQzODczIDEuODkwMDk5LC0wLjEyMzc1IDMuMjUxNDQ0LC0wLjI0Nzc5IDQuMDgzOTg4LC0wLjM3MTU2IDAuNDI3NTIyLDEuNzMyNiAwLjkzOTAyNCwzLjI2Mjg2IDEuNTM1MzA3LDQuNTkwNDIgMC45MDAwNDcsMi4wNTg4OCAxLjc5NDc2MSwzLjEwNTEgMi42ODM1NTcsMy4xMzg4MyAwLjYxODc4MywwLjAyMjUgMS4xNjk4NzEsLTAuMTg1NDggMS42NTM2NDYsLTAuNjI0MjUgMC40OTUwMjksLTAuNDM4NzggMC43NDI1ODksLTAuOTg0NTkgMC43NDI1ODksLTEuNjM3MTEgMCwtMC40ODM3OCAtMC4yMDI2OSwtMS4yMDk1OCAtMC42MDc3MTMsLTIuMTc3MTMgLTAuNDk1MDMxLC0xLjE3MDA3IC0wLjc4MTY2MiwtMS45MTIyMyAtMC44NjA0MTMsLTIuMjI3MjUgLTAuOTkwMDUyLC00LjE3Mzk3IC0xLjgyODI4OSwtNy44ODExMiAtMi41MTQ1NzUsLTExLjEyMTI5IC0wLjQ4Mzc3NiwtMi40MDc2MyAtMC44Mzc5NzIsLTQuMjEzNDQgLTEuMDYyOTg0LC01LjQxNzI0IC0wLjQxNjI3MiwtMS40OTYzMjEgLTEuMjQzNDIxLC0yLjI0NDMwNyAtMi40ODA5ODYsLTIuMjQ0MzA3IHogbSAtMS4xNjQyNyw4LjEzMzg2NyBjIDAuNDcyNTI0LDIuMzQwMTMgMC44NDM2MTIsNC4yNDE0OCAxLjExMzYyNyw1LjcwNDA1IC0wLjMyNjI2NywwLjA0NSAtMS4xMTk2MzMsMC4xMDY3NiAtMi4zNzk2OTksMC4xODU1MiAtMS4wNjg4MDcsMC4wNjc1IC0xLjg1NTg1MywwLjE1Nzc2IC0yLjM2MjEzLDAuMjcwMjYgMS41NDEzMzIsLTIuNTk4ODggMi43NTA2NTYsLTQuNjUyMjUgMy42MjgyMDIsLTYuMTU5ODMgeiBtIC0yNC40NzQ0NzUsMjUuMjA3NzcgaCAwLjk0NDY0NSA2Mi44Mzg1NDEgMC45NDQxMyBjIDMuOTc5MjcsMCA3LjE4MzAyLDMuMjAzNzUgNy4xODMwMiw3LjE4MzAyIHYgMC45OTczNiBjIDAsMy45NzkyNiAtMy4yMDM3NSw3LjE4MzAyIC03LjE4MzAyLDcuMTgzMDIgSCA2Ny4xOTAyMTQgYyAtMy45NzkyNTUsMCAtNy4xODI1MDcsLTMuMjAzNzYgLTcuMTgyNTA3LC03LjE4MzAyIHYgLTAuOTk3MzYgYyAwLC0zLjk3OTI3IDMuMjAzMjUyLC03LjE4MzAyIDcuMTgyNTA3LC03LjE4MzAyIHogbSA1Ljk4Nzc0OCwxLjQ4MTA0IGEgNi4yODMzMDU2LDYuMjgzMzA1NiAwIDAgMCAtNi4yODMzMzcsNi4yODMzNCA2LjI4MzMwNTYsNi4yODMzMDU2IDAgMCAwIDYuMjgzMzM3LDYuMjgzMzQgNi4yODMzMDU2LDYuMjgzMzA1NiAwIDAgMCA2LjI4MzMzOCwtNi4yODMzNCA2LjI4MzMwNTYsNi4yODMzMDU2IDAgMCAwIC02LjI4MzMzOCwtNi4yODMzNCB6IG0gMjYuMzA0ODU1LDAgYSA2LjI4MzMwNTYsNi4yODMzMDU2IDAgMCAwIC02LjI4MzMzOCw2LjI4MzM0IDYuMjgzMzA1Niw2LjI4MzMwNTYgMCAwIDAgNi4yODMzMzgsNi4yODMzNCA2LjI4MzMwNTYsNi4yODMzMDU2IDAgMCAwIDYuMjgzMzMzLC02LjI4MzM0IDYuMjgzMzA1Niw2LjI4MzMwNTYgMCAwIDAgLTYuMjgzMzMzLC02LjI4MzM0IHogbSAyNi4zMDUzNzMsMCBhIDYuMjgzMzA1Niw2LjI4MzMwNTYgMCAwIDAgLTYuMjgzMzQsNi4yODMzNCA2LjI4MzMwNTYsNi4yODMzMDU2IDAgMCAwIDYuMjgzMzQsNi4yODMzNCA2LjI4MzMwNTYsNi4yODMzMDU2IDAgMCAwIDYuMjgzMzQsLTYuMjgzMzQgNi4yODMzMDU2LDYuMjgzMzA1NiAwIDAgMCAtNi4yODMzNCwtNi4yODMzNCB6IG0gLTM5LjQ3MjUyOCwzLjY4Mjk4IGMgLTEuMzg0OTk5LDAgLTIuNDk5NTg5LDEuMTE1MTEgLTIuNDk5NTg5LDIuNTAwMTEgMCwxLjM4NSAxLjExNDU5LDIuNDk5NTkgMi40OTk1ODksMi40OTk1OSAxLjM4NDk5OCwwIDIuNTAwMTA1LC0xLjExNDU5IDIuNTAwMTA1LC0yLjQ5OTU5IDAsLTEuMzg1IC0xLjExNTEwNywtMi41MDAxMSAtMi41MDAxMDUsLTIuNTAwMTEgeiBtIDI2LjMwMjI2OCwwIGMgLTEuMzg1LDAgLTIuNDk5NTksMS4xMTUxMSAtMi40OTk1OSwyLjUwMDExIDAsMS4zODUgMS4xMTQ1OSwyLjQ5OTU5IDIuNDk5NTksMi40OTk1OSAxLjM4NSwwIDIuNTAwMTEsLTEuMTE0NTkgMi41MDAxMSwtMi40OTk1OSAwLC0xLjM4NSAtMS4xMTUxMSwtMi41MDAxMSAtMi41MDAxMSwtMi41MDAxMSB6IG0gLTM5LjQzOTk2OCwwLjE0MjYzIGEgMi40NTc1MTk4LDIuNDU3NTE5OCAwIDAgMSAyLjQ1NzczMSwyLjQ1NzczIDIuNDU3NTE5OCwyLjQ1NzUxOTggMCAwIDEgLTIuNDU3NzMxLDIuNDU3MjIgMi40NTc1MTk4LDIuNDU3NTE5OCAwIDAgMSAtMi40NTcyMTQsLTIuNDU3MjIgMi40NTc1MTk4LDIuNDU3NTE5OCAwIDAgMSAyLjQ1NzIxNCwtMi40NTc3MyB6IG0gMjYuMzA0ODU1LDAgYSAyLjQ1NzUxOTgsMi40NTc1MTk4IDAgMCAxIDIuNDU3NzMzLDIuNDU3NzMgMi40NTc1MTk4LDIuNDU3NTE5OCAwIDAgMSAtMi40NTc3MzMsMi40NTcyMiAyLjQ1NzUxOTgsMi40NTc1MTk4IDAgMCAxIC0yLjQ1NzIxNSwtMi40NTcyMiAyLjQ1NzUxOTgsMi40NTc1MTk4IDAgMCAxIDIuNDU3MjE1LC0yLjQ1NzczIHogbSAyNi4zMDUzNzMsMCBhIDIuNDU3NTE5OCwyLjQ1NzUxOTggMCAwIDEgMi40NTc3MywyLjQ1NzczIDIuNDU3NTE5OCwyLjQ1NzUxOTggMCAwIDEgLTIuNDU3NzMsMi40NTcyMiAyLjQ1NzUxOTgsMi40NTc1MTk4IDAgMCAxIC0yLjQ1NzIyLC0yLjQ1NzIyIDIuNDU3NTE5OCwyLjQ1NzUxOTggMCAwIDEgMi40NTcyMiwtMi40NTc3MyB6IiAvPjwvZz48L3N2Zz4K;" vertex="1" parent="1">
          <mxGeometry x="236" y="285" width="52.78" height="59" as="geometry" />
        </mxCell>
        <mxCell id="Iunje0_k27cHRM6f_ocS-7" style="rounded=0;orthogonalLoop=1;jettySize=auto;html=1;strokeWidth=2;dashed=1;entryX=0;entryY=0.25;entryDx=0;entryDy=0;exitX=0.135;exitY=0.13;exitDx=0;exitDy=0;exitPerimeter=0;" edge="1" parent="1" source="5BD-4aEA06oa_ZhCL0HX-2" target="v6klMF0UBrYqatLwZ3fX-54">
          <mxGeometry relative="1" as="geometry">
            <mxPoint x="150" y="190" as="sourcePoint" />
            <mxPoint x="480" y="190" as="targetPoint" />
          </mxGeometry>
        </mxCell>
        <mxCell id="Iunje0_k27cHRM6f_ocS-9" style="rounded=0;orthogonalLoop=1;jettySize=auto;html=1;entryX=0;entryY=0.5;entryDx=0;entryDy=0;endArrow=oval;startFill=0;strokeWidth=2;dashed=1;startArrow=none;endFill=1;" edge="1" parent="1" source="Iunje0_k27cHRM6f_ocS-8" target="Iunje0_k27cHRM6f_ocS-6">
          <mxGeometry relative="1" as="geometry" />
        </mxCell>
        <mxCell id="Iunje0_k27cHRM6f_ocS-8" value="&lt;font style=&quot;font-size: 14px;&quot;&gt;&amp;nbsp;Minimize&amp;nbsp;&lt;/font&gt;&lt;div&gt;&lt;span style=&quot;background-color: transparent; color: light-dark(rgb(0, 0, 0), rgb(255, 255, 255));&quot;&gt;&lt;font style=&quot;font-size: 14px;&quot;&gt;&quot;AI-blackbox&quot;&lt;/font&gt;&lt;/span&gt;&lt;/div&gt;&lt;div&gt;&lt;span style=&quot;background-color: transparent; color: light-dark(rgb(0, 0, 0), rgb(255, 255, 255));&quot;&gt;&lt;font style=&quot;font-size: 14px;&quot;&gt;to reduce cost&lt;/font&gt;&lt;/span&gt;&lt;/div&gt;&lt;div&gt;&lt;span style=&quot;background-color: transparent; color: light-dark(rgb(0, 0, 0), rgb(255, 255, 255));&quot;&gt;&lt;font style=&quot;font-size: 14px;&quot;&gt;and uncertainty&lt;/font&gt;&lt;/span&gt;&lt;/div&gt;" style="shape=note;whiteSpace=wrap;html=1;backgroundOutline=1;darkOpacity=0.05;size=13;labelBackgroundColor=none;fillColor=#FFFFCC;gradientColor=none;align=center;verticalAlign=top;" vertex="1" parent="1">
          <mxGeometry x="80" y="269" width="110" height="80" as="geometry" />
        </mxCell>
        <mxCell id="v6klMF0UBrYqatLwZ3fX-23" value="" style="group" vertex="1" connectable="0" parent="1">
          <mxGeometry x="666" y="168" width="87.80000000000001" height="75" as="geometry" />
        </mxCell>
        <mxCell id="v6klMF0UBrYqatLwZ3fX-7" value="" style="shape=image;aspect=fixed;image=data:image/svg+xml,PD94bWwgdmVyc2lvbj0iMS4wIiBlbmNvZGluZz0iVVRGLTgiIHN0YW5kYWxvbmU9Im5vIj8+CjwhLS0gQ3JlYXRlZCB3aXRoIElua3NjYXBlIChodHRwOi8vd3d3Lmlua3NjYXBlLm9yZy8pIC0tPgoKPHN2ZwogICB3aWR0aD0iNDEuMTExMzI4bW0iCiAgIGhlaWdodD0iNzcuMzQwOTgxbW0iCiAgIHZpZXdCb3g9IjAgMCA0MS4xMTEzMjggNzcuMzQwOTgiCiAgIHZlcnNpb249IjEuMSIKICAgaWQ9InN2ZzEiCiAgIGlua3NjYXBlOnZlcnNpb249IjEuMy4yICgwOTFlMjBlLCAyMDIzLTExLTI1KSIKICAgc29kaXBvZGk6ZG9jbmFtZT0idXNlci1zdXBwb3J0LnN2ZyIKICAgeG1sbnM6aW5rc2NhcGU9Imh0dHA6Ly93d3cuaW5rc2NhcGUub3JnL25hbWVzcGFjZXMvaW5rc2NhcGUiCiAgIHhtbG5zOnNvZGlwb2RpPSJodHRwOi8vc29kaXBvZGkuc291cmNlZm9yZ2UubmV0L0RURC9zb2RpcG9kaS0wLmR0ZCIKICAgeG1sbnM9Imh0dHA6Ly93d3cudzMub3JnLzIwMDAvc3ZnIgogICB4bWxuczpzdmc9Imh0dHA6Ly93d3cudzMub3JnLzIwMDAvc3ZnIj4KICA8c29kaXBvZGk6bmFtZWR2aWV3CiAgICAgaWQ9Im5hbWVkdmlldzEiCiAgICAgcGFnZWNvbG9yPSIjZmZmZmZmIgogICAgIGJvcmRlcmNvbG9yPSIjMDAwMDAwIgogICAgIGJvcmRlcm9wYWNpdHk9IjAuMjUiCiAgICAgaW5rc2NhcGU6c2hvd3BhZ2VzaGFkb3c9IjIiCiAgICAgaW5rc2NhcGU6cGFnZW9wYWNpdHk9IjAuMCIKICAgICBpbmtzY2FwZTpwYWdlY2hlY2tlcmJvYXJkPSIwIgogICAgIGlua3NjYXBlOmRlc2tjb2xvcj0iI2QxZDFkMSIKICAgICBpbmtzY2FwZTpkb2N1bWVudC11bml0cz0ibW0iCiAgICAgaW5rc2NhcGU6em9vbT0iMC43NjI1NDYzMSIKICAgICBpbmtzY2FwZTpjeD0iMzA0LjI0MzgyIgogICAgIGlua3NjYXBlOmN5PSI0My45MzE3NTgiCiAgICAgaW5rc2NhcGU6d2luZG93LXdpZHRoPSIxNjgwIgogICAgIGlua3NjYXBlOndpbmRvdy1oZWlnaHQ9IjEyODgiCiAgICAgaW5rc2NhcGU6d2luZG93LXg9IjE3NjIiCiAgICAgaW5rc2NhcGU6d2luZG93LXk9IjI4IgogICAgIGlua3NjYXBlOndpbmRvdy1tYXhpbWl6ZWQ9IjAiCiAgICAgaW5rc2NhcGU6Y3VycmVudC1sYXllcj0ibGF5ZXIxIiAvPgogIDxkZWZzCiAgICAgaWQ9ImRlZnMxIiAvPgogIDxnCiAgICAgaW5rc2NhcGU6bGFiZWw9IkViZW5lIDEiCiAgICAgaW5rc2NhcGU6Z3JvdXBtb2RlPSJsYXllciIKICAgICBpZD0ibGF5ZXIxIgogICAgIHRyYW5zZm9ybT0idHJhbnNsYXRlKC02OS4xNjQwNjIsLTM5LjE2MDk2NykiPgogICAgPHBhdGgKICAgICAgIGlkPSJjaXJjbGU4IgogICAgICAgc3R5bGU9ImZpbGw6IzRkNGQ0ZDtmaWxsLW9wYWNpdHk6MTtzdHJva2Utd2lkdGg6MC4xNDEzMzgiCiAgICAgICBkPSJtIDg5LjY3ODc4NSw0My41MzM0MDMgYyAtMC4yNDA1MzksMC4wMDgyIC0wLjQ4MDQ4NCwwLjA2Njg1IC0wLjcxMzgxOSwwLjE5MTIzMyAtMC4yNzYyMTQsMC4xNDg5OTUgLTAuNTQyNjc3LDAuMzc5ODcyIC0wLjc4NzA3NCwwLjY4ODA0IC0wLjI2MTcxOSwwLjMyOTIwOCAtMC40OTg0MzUsMC43NDQxMzIgLTAuNjk4OTI4LDEuMjI2MzcgLTAuMTc0NDQ1LDAuNDE2Mjc1IC0wLjMxOTA2LDAuODg1MjY3IC0wLjQzNDkyNCwxLjM4Mjg4MyAtMC4xMjE0MjMsMC41NDA0MjkgLTAuMjA4Nzg2LDEuMTE2MDk5IC0wLjI1MTQ0MSwxLjcwNzExOCAtMC4wNDc1NCwwLjYzMTc0IC0wLjA0NjA3LDEuMjc4MzcxIDAuMDAxOCwxLjkwOTg0NCAwLjA0MTE1LDAuNTQ3MDkyIDAuMTIwNTQzLDEuMDc5NjU1IDAuMjI4MjM1LDEuNTg1MTk1IDAuMTE4Njk1LDAuNTI5OTcgMC4yNjk0NjIsMS4wMjk2NjIgMC40NTM1NSwxLjQ3MDc0MSAwLjIwMDM5NywwLjQ4MjI5OSAwLjQzNjUwNCwwLjg5ODY5NCAwLjY5ODE4NSwxLjIyODA4MSAwLjIyNjAxMiwwLjI4NzMyMyAwLjQ3MTUwNSwwLjUwNDgyIDAuNzI1NjM1LDAuNjU3MTQ2IDAuMjc1MTkyLDAuMTU2ODQ0IDAuNTYxMDIsMC4yMzY2ODQgMC44NDYzMDgsMC4yMjIxNDggMC4zMDUyOTgsLTAuMDExNjggMC42MDkwOTYsLTAuMTI3MDA3IDAuODk3NzMsLTAuMzM1MjI1IDAuMjQ3MjIxLC0wLjE3ODczMyAwLjQ4MTg3NCwtMC40Mjk1NjggMC42OTg0MDEsLTAuNzM2NjA1IDAuMjMyMjk0LC0wLjMzNjI2IDAuNDQyNjY1LC0wLjc0MDIyMiAwLjYyMDE3LC0xLjIwMDQzOSAwLjE5MTgwOSwtMC40OTcyNDQgMC4zNDY1OTQsLTEuMDU2NDM0IDAuNDU2MTE2LC0xLjY1MzE5NCAwLjA5NiwtMC41MTU5MTYgMC4xNTU1MjUsLTEuMDU5OTk2IDAuMTgzMDY5LC0xLjYxMDQ4MSAwLjA2NTk0LC0xLjM1NTk2NCAtMC4wOTQ1MSwtMi43NTI4OSAtMC40NDYxNzMsLTMuODk5NTIxIC0wLjQ0MDY2NiwtMS40NjE4NSAtMS4xOTAyODcsLTIuNDkxMDk5IC0yLjAwNTkyMSwtMi43NTYwMjYgLTAuMTU1NTkyLC0wLjA1Mjc2IC0wLjMxMzI2LC0wLjA3ODA1IC0wLjQ3MDg1NiwtMC4wNzczMiB6IiAvPgogICAgPHBhdGgKICAgICAgIGlkPSJwYXRoOCIKICAgICAgIHN0eWxlPSJmaWxsOiM0ZDRkNGQ7ZmlsbC1vcGFjaXR5OjE7c3Ryb2tlLXdpZHRoOjAuMzM1MTA4IgogICAgICAgZD0ibSA4OS4xNTYyNSwzOS4xNzk2ODggYyAtNC4wMDIyMDMsMC4xODc3MyAtNy43NzI5NzcsMi44MzYyNDggLTkuMjA5ODE0LDYuNTkyMTY2IC0xLjcwOTE0Miw0LjA0ODk5MyAtMC40NDI2OCw5LjA3NzczNiAyLjk0MDgxMywxMS44Njg4MSAxLjQ3MTYyNiwxLjI0OTk2MiAzLjI5MjcwMSwyLjEwMjEwOCA1LjIwODQ1NCwyLjM3MTA1NSAwLDEuMTcwNTczIDAsMi4zNDExNDYgMCwzLjUxMTcxOSAtNi4wODUyODYsMCAtMTIuMTcwNTczLC0xMGUtNyAtMTguMjU1ODU5LDAgMCwxLjA1OTI0NCAwLDIuMTE4NDg5IDAsMy4xNzc3MzQgNi4wODUyODYsMCAxMi4xNzA1NzMsMCAxOC4yNTU4NTksMCAwLDcuNTM0NTA1IDAsMTUuMDY5MDEgMCwyMi42MDM1MTYgLTYuMzEwMzc5LDguNDMyNDE3IC0xMi42MjIxMDcsMTYuODYzODIyIC0xOC45MzE2NDEsMjUuMjk2ODcyIDAuODQ4NDE5LDAuNjMzMzIgMS42OTY1MDMsMS4yNjcwOCAyLjU0NDkyMiwxLjkwMDM5IDYuMDAxNTI0LC04LjAyMDM0IDEyLjAwNTM4OCwtMTYuMDM4OTMgMTguMDA3ODEzLC0yNC4wNTg1OTEgNi4wMDI0MjQsOC4wMTk2NzEgMTIuMDA2MjkzLDE2LjAzODI1MSAxOC4wMDc4MTMsMjQuMDU4NTkxIDAuODQ5ODEsLTAuNjM0MDYgMS42OTk4NSwtMS4yNjc4MyAyLjU1MDc4LC0xLjkwMDM5IC02LjMzNDc4LC04LjQ1OTg1IC0xMi42NjY0MjYsLTE2LjkyMjA1MiAtMTguOTk5OTk5LC0yNS4zODI4MSAwLC03LjUwNTg1OSAwLC0xNS4wMTE3MTkgMCwtMjIuNTE3NTc4IDYuMDgzOTg0LDAgMTIuMTY3OTY5LDAgMTguMjUxOTQ5LDAgMCwtMS4wNTkyNDUgMCwtMi4xMTg0OSAwLC0zLjE3NzczNCAtNi4wODM5OCwtMTBlLTcgLTEyLjE2Nzk2NSwwIC0xOC4yNTE5NDksMCAwLC0xLjE2MDE1NyAwLC0yLjMyMDMxMyAwLC0zLjQ4MDQ2OSA0LjM2NjMyNSwtMC42MDkwMjYgOC4xMDQyNjgsLTQuMjUzNTU0IDguNzUzMjA5LC04LjYyNjM5NyAwLjc2ODQ0LC00LjA3MzAxOSAtMS4xOTYwNjcsLTguNDYzMjU5IC00LjcyOTI2MiwtMTAuNjI0MDAzIC0xLjgxOTUzNywtMS4xNDkxNzcgLTMuOTg5MTQ2LC0xLjc0NzY0NyAtNi4xNDMwODgsLTEuNjEyODgxIHogbSAwLjkxNjAxNiwzLjIyNjU2MiBjIDMuNjY3MTk2LDAuMTE4MTcxIDYuODg1MzIyLDMuNDA2Mjg4IDYuODg0ODQ1LDcuMDgzMDk5IDAuMDk5MDQsMy4zMDc2MDMgLTIuMjg1NDQ1LDYuNTM4OTAxIC01LjU1Njk1MSw3LjIzMTAzIC0zLjEwNjE5MiwwLjgxMTkyNSAtNi42MzEyNSwtMC43MzIxMzEgLTguMDg1Nzg0LC0zLjYwNzMzOCAtMS42NjAzNCwtMi44NzU2OTEgLTAuOTIyMDYxLC02LjgyNDIzNiAxLjYzOTgxOCwtOC45MjY1NjEgMS40MDExOSwtMS4yMjQ2ODcgMy4yNTk0OTksLTEuODY5NjIyIDUuMTE4MDcyLC0xLjc4MDIzIHoiIC8+CiAgPC9nPgo8L3N2Zz4K;" vertex="1" parent="v6klMF0UBrYqatLwZ3fX-23">
          <mxGeometry x="29.30000000000001" width="29.2" height="55" as="geometry" />
        </mxCell>
        <mxCell id="v6klMF0UBrYqatLwZ3fX-22" value="&lt;div&gt;Support&lt;/div&gt;" style="text;html=1;align=center;verticalAlign=middle;whiteSpace=wrap;rounded=0;fontSize=14;fontStyle=1;container=0;" vertex="1" parent="v6klMF0UBrYqatLwZ3fX-23">
          <mxGeometry y="55" width="87.8" height="20" as="geometry" />
        </mxCell>
        <mxCell id="Iunje0_k27cHRM6f_ocS-15" value="design, analyze,&amp;nbsp;&lt;div&gt;compare, copy/paste ...&lt;/div&gt;" style="text;html=1;align=left;verticalAlign=middle;whiteSpace=wrap;rounded=0;fontStyle=0;fontSize=14;" vertex="1" parent="1">
          <mxGeometry x="159.39999999999998" y="143.5" width="150" height="50" as="geometry" />
        </mxCell>
        <mxCell id="Iunje0_k27cHRM6f_ocS-16" style="rounded=0;orthogonalLoop=1;jettySize=auto;html=1;strokeWidth=2;dashed=1;entryX=0.635;entryY=0.116;entryDx=0;entryDy=0;entryPerimeter=0;" edge="1" parent="1" target="5BD-4aEA06oa_ZhCL0HX-2">
          <mxGeometry relative="1" as="geometry">
            <mxPoint x="680" y="193" as="sourcePoint" />
            <mxPoint x="480" y="190" as="targetPoint" />
          </mxGeometry>
        </mxCell>
        <mxCell id="Iunje0_k27cHRM6f_ocS-19" value="&lt;span style=&quot;font-size: 14px;&quot;&gt;Human-readable&lt;/span&gt;&lt;div&gt;&lt;span style=&quot;font-size: 14px;&quot;&gt;Audlang-expression as&lt;br&gt;Single&amp;nbsp;&lt;/span&gt;&lt;span style=&quot;font-size: 14px; background-color: transparent; color: light-dark(rgb(0, 0, 0), rgb(255, 255, 255));&quot;&gt;Source of Truth&lt;/span&gt;&lt;/div&gt;" style="shape=note;whiteSpace=wrap;html=1;backgroundOutline=1;darkOpacity=0.05;size=13;labelBackgroundColor=none;fillColor=#FFFFCC;gradientColor=none;align=center;verticalAlign=middle;" vertex="1" parent="1">
          <mxGeometry x="600" y="290" width="160" height="60" as="geometry" />
        </mxCell>
        <mxCell id="Iunje0_k27cHRM6f_ocS-20" style="rounded=0;orthogonalLoop=1;jettySize=auto;html=1;strokeWidth=2;dashed=1;entryX=0.75;entryY=0;entryDx=0;entryDy=0;exitX=0.25;exitY=1;exitDx=0;exitDy=0;" edge="1" parent="1" source="Iunje0_k27cHRM6f_ocS-1" target="v6klMF0UBrYqatLwZ3fX-42">
          <mxGeometry relative="1" as="geometry">
            <mxPoint x="710" y="190" as="sourcePoint" />
            <mxPoint x="560" y="190" as="targetPoint" />
          </mxGeometry>
        </mxCell>
        <mxCell id="Iunje0_k27cHRM6f_ocS-21" style="rounded=0;orthogonalLoop=1;jettySize=auto;html=1;entryX=0;entryY=0.5;entryDx=0;entryDy=0;endArrow=none;startFill=1;strokeWidth=2;dashed=1;entryPerimeter=0;startArrow=oval;" edge="1" parent="1" target="Iunje0_k27cHRM6f_ocS-19">
          <mxGeometry relative="1" as="geometry">
            <mxPoint x="490" y="310" as="sourcePoint" />
            <mxPoint x="567" y="323" as="targetPoint" />
          </mxGeometry>
        </mxCell>
        <mxCell id="Iunje0_k27cHRM6f_ocS-23" style="rounded=0;orthogonalLoop=1;jettySize=auto;html=1;strokeWidth=2;dashed=1;entryX=0;entryY=0;entryDx=0;entryDy=15;exitX=0.75;exitY=1;exitDx=0;exitDy=0;entryPerimeter=0;" edge="1" parent="1" source="Iunje0_k27cHRM6f_ocS-1" target="v6klMF0UBrYqatLwZ3fX-41">
          <mxGeometry relative="1" as="geometry">
            <mxPoint x="433.0049999999999" y="380" as="sourcePoint" />
            <mxPoint x="613.3700000000003" y="420" as="targetPoint" />
          </mxGeometry>
        </mxCell>
        <mxCell id="Iunje0_k27cHRM6f_ocS-25" value="&lt;ul&gt;&lt;li&gt;&lt;span style=&quot;background-color: transparent; color: light-dark(rgb(0, 0, 0), rgb(255, 255, 255));&quot;&gt;Size&lt;/span&gt;&lt;/li&gt;&lt;li&gt;Insights&lt;/li&gt;&lt;li&gt;Overlap&lt;/li&gt;&lt;/ul&gt;" style="text;html=1;align=left;verticalAlign=middle;whiteSpace=wrap;rounded=0;fontStyle=0;fontSize=14;" vertex="1" parent="1">
          <mxGeometry x="500" y="385" width="114" height="60" as="geometry" />
        </mxCell>
        <mxCell id="Iunje0_k27cHRM6f_ocS-26" value="review, help" style="text;html=1;align=left;verticalAlign=middle;whiteSpace=wrap;rounded=0;fontStyle=0;fontSize=14;" vertex="1" parent="1">
          <mxGeometry x="594" y="163" width="90" height="37" as="geometry" />
        </mxCell>
        <mxCell id="Iunje0_k27cHRM6f_ocS-27" value="&lt;span style=&quot;font-size: 14px;&quot;&gt;Keeping the audience definitions decoupled from any physical data model simplifies attribute&amp;nbsp;&lt;/span&gt;&lt;span style=&quot;background-color: transparent; color: light-dark(rgb(0, 0, 0), rgb(255, 255, 255)); font-size: 14px;&quot;&gt;usage management,&amp;nbsp;&lt;/span&gt;&lt;span style=&quot;background-color: transparent; color: light-dark(rgb(0, 0, 0), rgb(255, 255, 255)); font-size: 14px;&quot;&gt;hybrid audience processing,&amp;nbsp;&lt;/span&gt;&lt;span style=&quot;background-color: transparent; color: light-dark(rgb(0, 0, 0), rgb(255, 255, 255)); font-size: 14px;&quot;&gt;review, comparison, migration and translation of audiences.&lt;br&gt;&lt;/span&gt;&lt;span style=&quot;background-color: transparent; color: light-dark(rgb(0, 0, 0), rgb(255, 255, 255)); font-size: 14px;&quot;&gt;Early DSL-based optimization can detect duplicate audience definitions and help improve caching.&lt;/span&gt;" style="shape=note;whiteSpace=wrap;html=1;backgroundOutline=1;darkOpacity=0.05;size=13;labelBackgroundColor=none;fillColor=#FFFFCC;gradientColor=none;align=center;verticalAlign=middle;" vertex="1" parent="1">
          <mxGeometry x="80" y="766" width="680" height="60" as="geometry" />
        </mxCell>
      </root>
    </mxGraphModel>
  </diagram>
</mxfile>
